<?xml version="1.0" encoding="utf-8"?>
<!-- Generator: Adobe Illustrator 16.0.0, SVG Export Plug-In . SVG Version: 6.00 Build 0)  -->
<!DOCTYPE svg PUBLIC "-//W3C//DTD SVG 1.1//EN" "http://www.w3.org/Graphics/SVG/1.1/DTD/svg11.dtd">
<svg version="1.1" id="Layer_1" xmlns="http://www.w3.org/2000/svg" xmlns:xlink="http://www.w3.org/1999/xlink" x="0px" y="0px"
	 width="1204.578px" height="358.482px" viewBox="0 0 1204.578 358.482" enable-background="new 0 0 1204.578 358.482"
	 xml:space="preserve">
<path fill="#F04C23" d="M1159.33,98.161"/>
<g>
	<g>
		<polygon fill="#F04C23" points="350.042,212.816 348.787,211.563 345.19,215.163 341.588,211.563 340.334,212.816 
			343.934,216.418 340.334,220.015 341.588,221.27 345.19,217.67 348.787,221.27 350.042,220.015 346.441,216.418 		"/>
		<path fill="#76DFBD" d="M302.975,220.911c-0.035,0-0.069-0.015-0.094-0.039l-3.373-3.373c-0.034-0.034-0.039-0.072-0.039-0.094
			c0-0.021,0.005-0.06,0.039-0.093l1.498-1.5c0.026-0.024,0.06-0.039,0.095-0.039s0.068,0.015,0.095,0.039l1.779,1.78l5.633-5.633
			c0.035-0.034,0.073-0.039,0.095-0.039c0.021,0,0.06,0.005,0.093,0.039l1.5,1.498c0.024,0.026,0.039,0.06,0.039,0.095
			s-0.015,0.068-0.039,0.094l-7.227,7.226C303.043,220.896,303.011,220.911,302.975,220.911z"/>
		<g>
			<rect x="208.523" y="215.493" fill="#A4B0BE" width="1.843" height="6.454"/>
			<rect x="208.523" y="210.885" fill="#A4B0BE" width="1.843" height="2.766"/>
			<path fill="#A4B0BE" d="M209.444,205.354c-6.082,0-11.061,4.977-11.061,11.061s4.979,11.062,11.061,11.062
				c6.083,0,11.062-4.978,11.062-11.062S215.527,205.354,209.444,205.354L209.444,205.354z M209.444,225.633
				c-5.069,0-9.217-4.146-9.217-9.218c0-5.069,4.147-9.217,9.217-9.217c5.068,0,9.218,4.147,9.218,9.217
				C218.662,221.486,214.513,225.633,209.444,225.633L209.444,225.633z M209.444,225.633"/>
		</g>
		<g>
			<path fill="#A4B0BE" d="M393.458,215.25h-4.955c-0.178,0-0.294-0.117-0.294-0.291V210c0-0.351-0.233-0.584-0.584-0.584h-1.165
				c-0.351,0-0.584,0.233-0.584,0.584v4.959c0,0.174-0.117,0.291-0.29,0.291h-4.96c-0.35,0-0.584,0.233-0.584,0.584v1.164
				c0,0.351,0.234,0.584,0.584,0.584h4.96c0.173,0,0.29,0.117,0.29,0.295v4.955c0,0.351,0.233,0.584,0.584,0.584h1.165
				c0.351,0,0.584-0.233,0.584-0.584v-4.955c0-0.178,0.116-0.295,0.294-0.295h4.955c0.352,0,0.584-0.233,0.584-0.584v-1.164
				C394.042,215.483,393.809,215.25,393.458,215.25L393.458,215.25z M393.458,215.25"/>
		</g>
		<g>
			<path fill="#A4B0BE" d="M438.042,215.834c0-0.351-0.233-0.584-0.584-0.584h-12.832c-0.351,0-0.584,0.233-0.584,0.584v1.164
				c0,0.351,0.233,0.584,0.584,0.584h12.832c0.351,0,0.584-0.233,0.584-0.584V215.834z M438.042,215.834"/>
		</g>
		<path fill="#F04C23" d="M514.376,211.805h-6.668c-0.917,0-1.666,0.749-1.666,1.666v3.89c0,0.917,0.749,1.666,1.666,1.666h0.556
			v2.001l2.363-2.001h3.749c0.917,0,1.666-0.749,1.666-1.666v-3.89C516.042,212.554,515.293,211.805,514.376,211.805z
			 M507.708,217.917c-0.302,0-0.554-0.255-0.554-0.557v-3.89c0-0.302,0.252-0.554,0.554-0.554h6.668
			c0.302,0,0.557,0.252,0.557,0.554v3.89c0,0.302-0.255,0.557-0.557,0.557"/>
		<g>
			<g>
				<g>
					<path fill="#F04C23" d="M168.206,199.267c-0.179-0.179-0.398-0.219-0.597-0.14l-13.396,5.374
						c-0.219,0.08-0.358,0.319-0.358,0.538s0.179,0.438,0.398,0.518l5.872,1.811l1.811,5.853c0.06,0.219,0.259,0.378,0.518,0.397
						h0.02c0.219,0,0.418-0.139,0.518-0.358l5.354-13.395C168.424,199.665,168.385,199.426,168.206,199.267z"/>
				</g>
			</g>
			<g>
				<g>
					
						<rect x="152.763" y="211.912" transform="matrix(-0.7071 0.7071 -0.7071 -0.7071 414.5724 253.2169)" fill="#F04C23" width="4.16" height="1.115"/>
				</g>
			</g>
			<g>
				<g>
					
						<rect x="151.168" y="208.749" transform="matrix(-0.707 0.7072 -0.7072 -0.707 409.6171 248.9234)" fill="#F04C23" width="4.161" height="1.115"/>
				</g>
			</g>
			<g>
				<g>
					
						<rect x="155.922" y="213.494" transform="matrix(-0.7071 0.7071 -0.7071 -0.7071 421.0825 253.6845)" fill="#F04C23" width="4.16" height="1.115"/>
				</g>
			</g>
			<g>
				<g>
					<path fill="#738597" d="M168.206,217.095c-0.179-0.179-0.398-0.219-0.597-0.14l-13.396,5.374
						c-0.219,0.08-0.358,0.319-0.358,0.538s0.179,0.438,0.398,0.518l5.872,1.811l1.811,5.853c0.06,0.219,0.259,0.378,0.518,0.397
						h0.02c0.219,0,0.418-0.139,0.518-0.358l5.354-13.395C168.424,217.493,168.385,217.254,168.206,217.095z"/>
				</g>
			</g>
			<g>
				<g>
					
						<rect x="152.763" y="229.74" transform="matrix(-0.7071 0.7071 -0.7071 -0.7071 427.1788 283.6515)" fill="#738597" width="4.16" height="1.115"/>
				</g>
			</g>
			<g>
				<g>
					
						<rect x="151.168" y="226.577" transform="matrix(-0.707 0.7072 -0.7072 -0.707 422.2245 279.3569)" fill="#738597" width="4.161" height="1.115"/>
				</g>
			</g>
			<g>
				<g>
					
						<rect x="155.922" y="231.322" transform="matrix(-0.7071 0.7071 -0.7071 -0.7071 433.6888 284.119)" fill="#738597" width="4.16" height="1.115"/>
				</g>
			</g>
		</g>
		<g>
			<g>
				<g>
					<g>
						<path fill="#F04C23" d="M269.255,208.95c-0.289-0.291-0.758-0.293-1.049-0.005l-1.701,1.684v-2.713
							c0-2.137-0.832-4.146-2.342-5.657c-1.512-1.511-3.521-2.343-5.658-2.343c-1.313,0-2.605,0.323-3.758,0.936
							c-0.002,0.001-0.002,0.002-0.004,0.003c-0.004,0.002-0.006,0.003-0.01,0.005c0,0,0,0-0.002,0.001
							c-0.006,0.004-0.014,0.008-0.021,0.012c-0.002,0.002-0.006,0.003-0.01,0.005c-0.002,0.002-0.006,0.003-0.008,0.005
							c-0.043,0.023-0.086,0.047-0.129,0.071c-0.002,0.002-0.006,0.003-0.008,0.005c-0.174,0.099-0.346,0.205-0.512,0.316
							c-0.34,0.229-0.43,0.688-0.201,1.028c0.143,0.213,0.377,0.327,0.615,0.327c0.143,0,0.287-0.041,0.412-0.126
							c0.184-0.123,0.375-0.238,0.568-0.342c0.939-0.501,1.996-0.765,3.066-0.765c3.596,0,6.52,2.924,6.52,6.519v2.73l-1.705-1.664
							c-0.293-0.285-0.762-0.28-1.047,0.013c-0.287,0.293-0.281,0.762,0.012,1.048l1.916,1.87c0.43,0.42,0.994,0.63,1.557,0.63
							c0.568,0,1.137-0.214,1.568-0.642l1.924-1.903C269.541,209.71,269.542,209.241,269.255,208.95z"/>
					</g>
				</g>
				<g>
					<g>
						<path fill="#F04C23" d="M251.304,206.732c-0.408-0.024-0.76,0.287-0.783,0.695c-0.01,0.161-0.016,0.325-0.016,0.488
							c0,0.109,0.002,0.219,0.008,0.326c0.016,0.398,0.344,0.711,0.738,0.711c0.01,0,0.021,0,0.031-0.001
							c0.408-0.016,0.727-0.36,0.709-0.77c-0.002-0.088-0.004-0.178-0.004-0.267c0-0.133,0.004-0.268,0.012-0.399
							C252.023,207.108,251.712,206.758,251.304,206.732z"/>
					</g>
				</g>
				<g>
					<g>
						<path fill="#F04C23" d="M252.951,211.327c-0.117-0.188-0.225-0.384-0.32-0.582c-0.178-0.369-0.619-0.523-0.988-0.346
							s-0.523,0.62-0.346,0.989c0.117,0.243,0.25,0.484,0.393,0.715c0.139,0.228,0.383,0.354,0.631,0.354
							c0.133,0,0.266-0.036,0.387-0.11C253.056,212.132,253.164,211.676,252.951,211.327z"/>
					</g>
				</g>
				<g>
					<g>
						<path fill="#F04C23" d="M258.505,214.435c-0.221,0-0.445-0.012-0.664-0.033c-0.406-0.042-0.77,0.255-0.811,0.662
							c-0.043,0.407,0.254,0.771,0.662,0.812c0.268,0.027,0.541,0.041,0.813,0.041l0,0c0.41,0,0.742-0.332,0.742-0.741
							C259.248,214.767,258.916,214.435,258.505,214.435z"/>
					</g>
				</g>
				<g>
					<g>
						<path fill="#F04C23" d="M255.324,213.606c-0.193-0.107-0.381-0.227-0.563-0.354c-0.334-0.235-0.797-0.154-1.031,0.181
							c-0.236,0.334-0.156,0.796,0.18,1.031c0.221,0.156,0.453,0.303,0.689,0.435c0.115,0.064,0.238,0.096,0.361,0.096
							c0.26,0,0.512-0.137,0.646-0.379C255.808,214.258,255.681,213.807,255.324,213.606z"/>
					</g>
				</g>
				<g>
					<g>
						<path fill="#F04C23" d="M252.8,203.367c-0.344-0.221-0.803-0.122-1.025,0.222c-0.146,0.229-0.283,0.467-0.406,0.708
							c-0.186,0.365-0.039,0.811,0.326,0.996c0.107,0.055,0.221,0.08,0.334,0.08c0.27,0,0.531-0.147,0.662-0.405
							c0.1-0.196,0.211-0.391,0.33-0.576C253.242,204.048,253.144,203.589,252.8,203.367z"/>
					</g>
				</g>
			</g>
			<g>
				<g>
					<g>
						<path d="M269.255,225.95c-0.289-0.291-0.758-0.293-1.049-0.005l-1.701,1.684v-2.713c0-2.137-0.832-4.146-2.342-5.657
							c-1.512-1.511-3.521-2.343-5.658-2.343c-1.313,0-2.605,0.323-3.758,0.936c-0.002,0.001-0.002,0.002-0.004,0.003
							c-0.004,0.002-0.006,0.003-0.01,0.005c0,0,0,0-0.002,0.001c-0.006,0.004-0.014,0.008-0.021,0.012
							c-0.002,0.002-0.006,0.003-0.01,0.005c-0.002,0.002-0.006,0.003-0.008,0.005c-0.043,0.023-0.086,0.047-0.129,0.071
							c-0.002,0.002-0.006,0.003-0.008,0.005c-0.174,0.099-0.346,0.205-0.512,0.316c-0.34,0.229-0.43,0.688-0.201,1.028
							c0.143,0.213,0.377,0.327,0.615,0.327c0.143,0,0.287-0.041,0.412-0.126c0.184-0.123,0.375-0.238,0.568-0.342
							c0.939-0.501,1.996-0.765,3.066-0.765c3.596,0,6.52,2.924,6.52,6.519v2.73l-1.705-1.664c-0.293-0.285-0.762-0.28-1.047,0.013
							c-0.287,0.293-0.281,0.762,0.012,1.048l1.916,1.87c0.43,0.42,0.994,0.63,1.557,0.63c0.568,0,1.137-0.214,1.568-0.642
							l1.924-1.903C269.541,226.71,269.542,226.241,269.255,225.95z"/>
					</g>
				</g>
				<g>
					<g>
						<path d="M251.304,223.732c-0.408-0.024-0.76,0.287-0.783,0.695c-0.01,0.161-0.016,0.325-0.016,0.488
							c0,0.109,0.002,0.219,0.008,0.326c0.016,0.398,0.344,0.711,0.738,0.711c0.01,0,0.021,0,0.031-0.001
							c0.408-0.016,0.727-0.36,0.709-0.77c-0.002-0.088-0.004-0.178-0.004-0.267c0-0.133,0.004-0.268,0.012-0.399
							C252.023,224.108,251.712,223.758,251.304,223.732z"/>
					</g>
				</g>
				<g>
					<g>
						<path d="M252.951,228.327c-0.117-0.188-0.225-0.384-0.32-0.582c-0.178-0.369-0.619-0.523-0.988-0.346s-0.523,0.62-0.346,0.989
							c0.117,0.243,0.25,0.484,0.393,0.715c0.139,0.228,0.383,0.354,0.631,0.354c0.133,0,0.266-0.036,0.387-0.11
							C253.056,229.132,253.164,228.676,252.951,228.327z"/>
					</g>
				</g>
				<g>
					<g>
						<path d="M258.505,231.435c-0.221,0-0.445-0.012-0.664-0.033c-0.406-0.042-0.77,0.255-0.811,0.662
							c-0.043,0.407,0.254,0.771,0.662,0.812c0.268,0.027,0.541,0.041,0.813,0.041l0,0c0.41,0,0.742-0.332,0.742-0.741
							C259.248,231.767,258.916,231.435,258.505,231.435z"/>
					</g>
				</g>
				<g>
					<g>
						<path d="M255.324,230.606c-0.193-0.107-0.381-0.227-0.563-0.354c-0.334-0.235-0.797-0.154-1.031,0.181
							c-0.236,0.334-0.156,0.796,0.18,1.031c0.221,0.156,0.453,0.303,0.689,0.435c0.115,0.064,0.238,0.096,0.361,0.096
							c0.26,0,0.512-0.137,0.646-0.379C255.808,231.258,255.681,230.807,255.324,230.606z"/>
					</g>
				</g>
				<g>
					<g>
						<path d="M252.8,220.367c-0.344-0.221-0.803-0.122-1.025,0.222c-0.146,0.229-0.283,0.467-0.406,0.708
							c-0.186,0.365-0.039,0.811,0.326,0.996c0.107,0.055,0.221,0.08,0.334,0.08c0.27,0,0.531-0.147,0.662-0.405
							c0.1-0.196,0.211-0.391,0.33-0.576C253.242,221.048,253.144,220.589,252.8,220.367z"/>
					</g>
				</g>
			</g>
		</g>
		<g>
			<path fill-rule="evenodd" clip-rule="evenodd" fill="#A4B0BE" d="M468.042,213.916h2v2h-2V213.916z"/>
			<path fill-rule="evenodd" clip-rule="evenodd" fill="#A4B0BE" d="M471.042,213.916h2v2h-2V213.916z"/>
			<path fill-rule="evenodd" clip-rule="evenodd" fill="#A4B0BE" d="M471.042,210.916h2v2h-2V210.916z"/>
			<path fill-rule="evenodd" clip-rule="evenodd" fill="#A4B0BE" d="M474.042,207.916h2v2h-2V207.916z"/>
			<path fill-rule="evenodd" clip-rule="evenodd" fill="#A4B0BE" d="M474.042,210.916h2v2h-2V210.916z"/>
			<path fill-rule="evenodd" clip-rule="evenodd" fill="#A4B0BE" d="M474.042,213.916h2v2h-2V213.916z"/>
			<path fill-rule="evenodd" clip-rule="evenodd" fill="#F04C23" d="M468.042,222.916h2v2h-2V222.916z"/>
			<path fill-rule="evenodd" clip-rule="evenodd" fill="#F04C23" d="M471.042,222.916h2v2h-2V222.916z"/>
			<path fill-rule="evenodd" clip-rule="evenodd" fill="#F04C23" d="M471.042,219.916h2v2h-2V219.916z"/>
			<path fill-rule="evenodd" clip-rule="evenodd" fill="#F04C23" d="M474.042,216.916h2v2h-2V216.916z"/>
			<path fill-rule="evenodd" clip-rule="evenodd" fill="#F04C23" d="M474.042,219.916h2v2h-2V219.916z"/>
			<path fill-rule="evenodd" clip-rule="evenodd" fill="#F04C23" d="M474.042,222.916h2v2h-2V222.916z"/>
		</g>
	</g>
	<g>
		<g>
			<path fill="#A4B0BE" d="M450.707,140.978h-1.138v-1.339h-1.339v1.339h-7.496v-1.339h-1.339v1.339h-1.138
				c-1.108,0-2.007,0.9-2.007,2.008v11.779c0,1.107,0.899,2.008,2.007,2.008h12.449c1.106,0,2.007-0.9,2.007-2.008v-11.779
				C452.714,141.878,451.813,140.978,450.707,140.978 M438.257,142.316h1.138v1.339h1.339v-1.339h7.496v1.339h1.339v-1.339h1.138
				c0.368,0,0.669,0.301,0.669,0.669v2.108h-13.788v-2.108C437.588,142.617,437.888,142.316,438.257,142.316 M450.707,155.435
				h-12.449c-0.37,0-0.669-0.301-0.669-0.67v-8.332h13.788v8.332C451.376,155.134,451.074,155.435,450.707,155.435"/>
			<path fill="#F04C23" d="M450.707,159.111h-1.138v-1.339h-1.339v1.339h-7.496v-1.339h-1.339v1.339h-1.138
				c-1.108,0-2.007,0.9-2.007,2.008v11.779c0,1.107,0.899,2.008,2.007,2.008h12.449c1.106,0,2.007-0.9,2.007-2.008v-11.779
				C452.714,160.012,451.813,159.111,450.707,159.111 M438.257,160.45h1.138v1.339h1.339v-1.339h7.496v1.339h1.339v-1.339h1.138
				c0.368,0,0.669,0.301,0.669,0.669v2.108h-13.788v-2.108C437.588,160.751,437.888,160.45,438.257,160.45 M450.707,173.568h-12.449
				c-0.37,0-0.669-0.301-0.669-0.67v-8.332h13.788v8.332C451.376,173.268,451.074,173.568,450.707,173.568"/>
		</g>
		<g>
			<g>
				<rect x="1014.086" y="155.497" fill="#C4CCD5" width="12.752" height="1.275"/>
				<path fill="#C4CCD5" d="M1026.455,144.216l-3.443-3.443l-8.926,8.926v3.443h3.443L1026.455,144.216z M1015.361,151.866v-1.657
					l7.65-7.651l1.658,1.658l-7.652,7.65H1015.361z M1015.361,151.866"/>
			</g>
			<g>
				<rect x="1014.086" y="172.497" fill="#F04C23" width="12.752" height="1.275"/>
				<path fill="#F04C23" d="M1026.455,161.216l-3.443-3.443l-8.926,8.926v3.443h3.443L1026.455,161.216z M1015.361,168.866v-1.657
					l7.65-7.651l1.658,1.658l-7.652,7.65H1015.361z M1015.361,168.866"/>
			</g>
		</g>
		<g>
			<g>
				<g>
					<g>
						<path fill="#C4CCD5" d="M937.437,143.714H924.2c-0.357,0-0.646,0.289-0.646,0.646c0,0.356,0.289,0.646,0.646,0.646h13.236
							c0.357,0,0.646-0.29,0.646-0.646C938.083,144.003,937.794,143.714,937.437,143.714z"/>
					</g>
				</g>
				<g>
					<g>
						<path fill="#C4CCD5" d="M935.966,143.714c-0.357,0-0.646,0.289-0.646,0.646v10.295c0,0.455-0.369,0.824-0.824,0.824h-7.354
							c-0.455,0-0.824-0.369-0.824-0.824V144.36c0-0.357-0.289-0.646-0.646-0.646s-0.646,0.289-0.646,0.646v10.295
							c0,1.167,0.949,2.117,2.117,2.117h7.354c1.168,0,2.117-0.95,2.117-2.117V144.36
							C936.612,144.003,936.323,143.714,935.966,143.714z"/>
					</g>
				</g>
				<g>
					<g>
						<path fill="#C4CCD5" d="M932.29,140.772h-2.941c-1.168,0-2.117,0.949-2.117,2.117v1.471c0,0.356,0.289,0.646,0.646,0.646
							c0.355,0,0.646-0.29,0.646-0.646v-1.471c0-0.455,0.369-0.824,0.824-0.824h2.941c0.453,0,0.824,0.369,0.824,0.824v1.471
							c0,0.356,0.289,0.646,0.646,0.646c0.355,0,0.646-0.29,0.646-0.646v-1.471C934.407,141.722,933.456,140.772,932.29,140.772z"/>
					</g>
				</g>
				<g>
					<g>
						<path fill="#C4CCD5" d="M929.349,147.391c-0.357,0-0.646,0.289-0.646,0.646v4.412c0,0.357,0.289,0.646,0.646,0.646
							c0.355,0,0.646-0.289,0.646-0.646v-4.412C929.995,147.68,929.704,147.391,929.349,147.391z"/>
					</g>
				</g>
				<g>
					<g>
						<path fill="#C4CCD5" d="M932.29,147.391c-0.357,0-0.646,0.289-0.646,0.646v4.412c0,0.357,0.289,0.646,0.646,0.646
							c0.355,0,0.646-0.289,0.646-0.646v-4.412C932.937,147.68,932.646,147.391,932.29,147.391z"/>
					</g>
				</g>
			</g>
			<g>
				<g>
					<g>
						<path fill="#F04C23" d="M937.437,160.714H924.2c-0.357,0-0.646,0.289-0.646,0.646c0,0.356,0.289,0.646,0.646,0.646h13.236
							c0.357,0,0.646-0.29,0.646-0.646C938.083,161.003,937.794,160.714,937.437,160.714z"/>
					</g>
				</g>
				<g>
					<g>
						<path fill="#F04C23" d="M935.966,160.714c-0.357,0-0.646,0.289-0.646,0.646v10.295c0,0.455-0.369,0.824-0.824,0.824h-7.354
							c-0.455,0-0.824-0.369-0.824-0.824V161.36c0-0.357-0.289-0.646-0.646-0.646s-0.646,0.289-0.646,0.646v10.295
							c0,1.167,0.949,2.117,2.117,2.117h7.354c1.168,0,2.117-0.95,2.117-2.117V161.36
							C936.612,161.003,936.323,160.714,935.966,160.714z"/>
					</g>
				</g>
				<g>
					<g>
						<path fill="#F04C23" d="M932.29,157.772h-2.941c-1.168,0-2.117,0.949-2.117,2.117v1.471c0,0.356,0.289,0.646,0.646,0.646
							c0.355,0,0.646-0.29,0.646-0.646v-1.471c0-0.455,0.369-0.824,0.824-0.824h2.941c0.453,0,0.824,0.369,0.824,0.824v1.471
							c0,0.356,0.289,0.646,0.646,0.646c0.355,0,0.646-0.29,0.646-0.646v-1.471C934.407,158.722,933.456,157.772,932.29,157.772z"/>
					</g>
				</g>
				<g>
					<g>
						<path fill="#F04C23" d="M929.349,164.391c-0.357,0-0.646,0.289-0.646,0.646v4.412c0,0.357,0.289,0.646,0.646,0.646
							c0.355,0,0.646-0.289,0.646-0.646v-4.412C929.995,164.68,929.704,164.391,929.349,164.391z"/>
					</g>
				</g>
				<g>
					<g>
						<path fill="#F04C23" d="M932.29,164.391c-0.357,0-0.646,0.289-0.646,0.646v4.412c0,0.357,0.289,0.646,0.646,0.646
							c0.355,0,0.646-0.289,0.646-0.646v-4.412C932.937,164.68,932.646,164.391,932.29,164.391z"/>
					</g>
				</g>
			</g>
		</g>
		<g>
			<path fill="#A4B0BE" d="M219.789,144.547h-1.322v-2.738c0-1.98-1.611-3.591-3.591-3.591h-2.83c-1.979,0-3.59,1.61-3.59,3.591
				v2.738h-1.322c-0.372,0-0.673,0.3-0.673,0.672v6.576c0,2.745,2.232,4.978,4.977,4.978h4.045c2.745,0,4.978-2.232,4.978-4.978
				v-6.576C220.462,144.847,220.16,144.547,219.789,144.547L219.789,144.547z M209.804,141.809c0-1.238,1.007-2.245,2.244-2.245
				h2.829c1.237,0,2.244,1.007,2.244,2.245v2.738h-7.317V141.809z M219.116,151.795c0,2.003-1.629,3.632-3.631,3.632h-4.045
				c-2.002,0-3.631-1.629-3.631-3.632v-5.902h11.308V151.795z M219.116,151.795"/>
			<path fill="#A4B0BE" d="M212.788,153.19c0,0.373,0.302,0.673,0.674,0.673c0.372,0,0.673-0.3,0.673-0.673v-1.922
				c0.08-0.111,0.128-0.246,0.128-0.394c0-0.372-0.302-0.674-0.673-0.674h-0.257c-0.372,0-0.673,0.302-0.673,0.674
				c0,0.147,0.048,0.282,0.127,0.394V153.19z M212.788,153.19"/>
			<path fill="#F04C23" d="M219.789,164.102h-1.322v-2.738c0-1.98-1.611-3.591-3.591-3.591h-2.83c-1.979,0-3.59,1.61-3.59,3.591
				v2.738h-1.322c-0.372,0-0.673,0.3-0.673,0.672v6.576c0,2.745,2.232,4.978,4.977,4.978h4.045c2.745,0,4.978-2.232,4.978-4.978
				v-6.576C220.462,164.401,220.16,164.102,219.789,164.102L219.789,164.102z M209.804,161.363c0-1.238,1.007-2.245,2.244-2.245
				h2.829c1.237,0,2.244,1.007,2.244,2.245v2.738h-7.317V161.363z M219.116,171.35c0,2.003-1.629,3.632-3.631,3.632h-4.045
				c-2.002,0-3.631-1.629-3.631-3.632v-5.902h11.308V171.35z M219.116,171.35"/>
			<path fill="#F04C23" d="M212.788,172.745c0,0.373,0.302,0.673,0.674,0.673c0.372,0,0.673-0.3,0.673-0.673v-1.922
				c0.08-0.111,0.128-0.246,0.128-0.394c0-0.372-0.302-0.674-0.673-0.674h-0.257c-0.372,0-0.673,0.302-0.673,0.674
				c0,0.147,0.048,0.282,0.127,0.394V172.745z M212.788,172.745"/>
		</g>
		<g>
			<g>
				<path fill="#A4B0BE" d="M266.48,144.278c-0.288-0.287-0.634-0.431-1.038-0.431h-13.512c-0.404,0-0.75,0.144-1.038,0.431
					c-0.288,0.287-0.431,0.634-0.431,1.038v9.986c0,0.405,0.144,0.75,0.431,1.038c0.288,0.287,0.634,0.432,1.038,0.432h13.512
					c0.404,0,0.75-0.145,1.038-0.432c0.288-0.288,0.431-0.633,0.431-1.038v-9.986C266.912,144.912,266.768,144.565,266.48,144.278
					L266.48,144.278z M265.737,155.303c0,0.08-0.029,0.149-0.087,0.207c-0.058,0.059-0.127,0.088-0.207,0.088h-13.512
					c-0.08,0-0.148-0.029-0.207-0.088c-0.059-0.058-0.087-0.127-0.087-0.207v-7.05c0.196,0.221,0.407,0.423,0.633,0.606
					c1.64,1.261,2.944,2.295,3.911,3.103c0.313,0.263,0.566,0.469,0.762,0.615s0.461,0.296,0.794,0.444
					c0.333,0.151,0.647,0.226,0.94,0.226h0.019c0.294,0,0.607-0.074,0.941-0.226c0.334-0.148,0.598-0.298,0.794-0.444
					c0.196-0.146,0.449-0.353,0.762-0.615c0.966-0.808,2.27-1.842,3.91-3.103c0.227-0.184,0.437-0.386,0.633-0.606V155.303z
					 M265.737,145.555v0.101c0,0.362-0.143,0.765-0.427,1.208c-0.284,0.443-0.592,0.796-0.922,1.06
					c-1.182,0.93-2.408,1.9-3.681,2.909c-0.037,0.031-0.144,0.122-0.321,0.271c-0.177,0.149-0.318,0.265-0.422,0.344
					c-0.104,0.08-0.24,0.177-0.409,0.29c-0.168,0.113-0.322,0.197-0.463,0.252c-0.14,0.056-0.272,0.083-0.395,0.083h-0.019
					c-0.123,0-0.253-0.027-0.395-0.083c-0.141-0.055-0.295-0.139-0.463-0.252c-0.168-0.113-0.305-0.21-0.409-0.29
					c-0.104-0.079-0.245-0.194-0.422-0.344c-0.178-0.149-0.285-0.24-0.321-0.271c-1.273-1.009-2.5-1.979-3.681-2.909
					c-0.9-0.709-1.35-1.579-1.35-2.606c0-0.08,0.03-0.148,0.087-0.208c0.058-0.058,0.126-0.086,0.207-0.086h13.512
					c0.049,0.027,0.092,0.036,0.128,0.022c0.038-0.012,0.065,0.011,0.083,0.068c0.018,0.06,0.035,0.087,0.05,0.083
					c0.015-0.002,0.024,0.035,0.028,0.115c0.002,0.079,0.004,0.119,0.004,0.119V145.555z M265.737,145.555"/>
			</g>
			<g>
				<path fill="#F04C23" d="M266.48,158.203c-0.288-0.287-0.634-0.431-1.038-0.431h-13.512c-0.404,0-0.75,0.144-1.038,0.431
					c-0.288,0.287-0.431,0.634-0.431,1.038v9.986c0,0.405,0.144,0.75,0.431,1.038c0.288,0.287,0.634,0.432,1.038,0.432h13.512
					c0.404,0,0.75-0.145,1.038-0.432c0.288-0.288,0.431-0.633,0.431-1.038v-9.986C266.912,158.837,266.768,158.49,266.48,158.203
					L266.48,158.203z M265.737,169.228c0,0.08-0.029,0.149-0.087,0.207c-0.058,0.059-0.127,0.088-0.207,0.088h-13.512
					c-0.08,0-0.148-0.029-0.207-0.088c-0.059-0.058-0.087-0.127-0.087-0.207v-7.05c0.196,0.221,0.407,0.423,0.633,0.606
					c1.64,1.261,2.944,2.295,3.911,3.103c0.313,0.263,0.566,0.469,0.762,0.615s0.461,0.296,0.794,0.444
					c0.333,0.151,0.647,0.226,0.94,0.226h0.019c0.294,0,0.607-0.074,0.941-0.226c0.334-0.148,0.598-0.298,0.794-0.444
					c0.196-0.146,0.449-0.353,0.762-0.615c0.966-0.808,2.27-1.842,3.91-3.103c0.227-0.184,0.437-0.386,0.633-0.606V169.228z
					 M265.737,159.479v0.101c0,0.362-0.143,0.765-0.427,1.208c-0.284,0.443-0.592,0.796-0.922,1.06
					c-1.182,0.93-2.408,1.9-3.681,2.909c-0.037,0.031-0.144,0.122-0.321,0.271c-0.177,0.149-0.318,0.265-0.422,0.344
					c-0.104,0.08-0.24,0.177-0.409,0.29c-0.168,0.113-0.322,0.197-0.463,0.252c-0.14,0.056-0.272,0.083-0.395,0.083h-0.019
					c-0.123,0-0.253-0.027-0.395-0.083c-0.141-0.055-0.295-0.139-0.463-0.252c-0.168-0.113-0.305-0.21-0.409-0.29
					c-0.104-0.079-0.245-0.194-0.422-0.344c-0.178-0.149-0.285-0.24-0.321-0.271c-1.273-1.009-2.5-1.979-3.681-2.909
					c-0.9-0.709-1.35-1.579-1.35-2.606c0-0.08,0.03-0.148,0.087-0.208c0.058-0.058,0.126-0.086,0.207-0.086h13.512
					c0.049,0.027,0.092,0.036,0.128,0.022c0.038-0.012,0.065,0.011,0.083,0.068c0.018,0.06,0.035,0.087,0.05,0.083
					c0.015-0.002,0.024,0.035,0.028,0.115c0.002,0.079,0.004,0.119,0.004,0.119V159.479z M265.737,159.479"/>
			</g>
		</g>
		<g>
			<g>
				<g>
					<path fill="#A4B0BE" d="M310.479,146.567c-0.165-0.841-0.571-1.606-1.178-2.213c-0.606-0.606-1.372-1.014-2.213-1.178
						c-0.361-0.07-0.711,0.166-0.782,0.527s0.166,0.712,0.526,0.781c1.188,0.232,2.105,1.15,2.337,2.338
						c0.062,0.317,0.342,0.54,0.654,0.54c0.042,0,0.085-0.005,0.128-0.014C310.313,147.28,310.549,146.93,310.479,146.567z"/>
				</g>
			</g>
			<g>
				<g>
					<path fill="#A4B0BE" d="M313.387,146.613c-0.181-1.615-0.915-3.137-2.064-4.285s-2.673-1.88-4.289-2.06
						c-0.366-0.041-0.695,0.223-0.736,0.589c-0.041,0.366,0.223,0.696,0.589,0.737c2.739,0.304,4.867,2.429,5.175,5.169
						c0.038,0.34,0.326,0.592,0.662,0.592c0.024,0,0.05-0.002,0.075-0.005C313.165,147.31,313.428,146.979,313.387,146.613z"/>
				</g>
			</g>
			<g>
				<g>
					<path fill="#A4B0BE" d="M310.845,150.342c-0.001,0-0.004,0-0.006,0c-0.645-0.086-1.281-0.244-1.89-0.471
						c-0.771-0.29-1.648-0.103-2.233,0.476c-0.001,0.001-0.001,0.002-0.003,0.003l-0.553,0.553
						c-1.375-0.868-2.539-2.033-3.407-3.406l0.553-0.554c0.001-0.001,0.002-0.001,0.002-0.003c0.58-0.586,0.767-1.463,0.478-2.231
						c-0.228-0.609-0.387-1.246-0.472-1.892c0-0.002,0-0.004-0.001-0.006c-0.147-1.047-1.056-1.829-2.113-1.82h-2.173
						c-0.063,0-0.126,0.003-0.188,0.008c-1.163,0.105-2.022,1.137-1.918,2.299c0,0.003,0.001,0.007,0.002,0.011
						c0.248,2.332,1.052,4.606,2.327,6.576c1.158,1.819,2.731,3.394,4.552,4.551c1.96,1.271,4.223,2.075,6.545,2.328
						c0.004,0,0.008,0.001,0.012,0.001c0.063,0.006,0.127,0.009,0.191,0.009c0.002,0,0.005,0,0.008,0
						c1.167-0.005,2.113-0.959,2.108-2.123v-2.168C312.688,151.411,311.907,150.491,310.845,150.342z M311.332,152.474v2.178
						c0.002,0.433-0.348,0.785-0.78,0.787c-0.023,0-0.046-0.001-0.069-0.003c-2.114-0.23-4.175-0.965-5.959-2.122
						c-0.001-0.001-0.003-0.002-0.005-0.004c-1.658-1.053-3.091-2.486-4.146-4.144c-0.001-0.002-0.001-0.003-0.003-0.006
						c-1.162-1.792-1.896-3.863-2.122-5.988c-0.036-0.429,0.281-0.807,0.71-0.846c0.023-0.001,0.047-0.003,0.069-0.003h2.175
						c0.005,0,0.01,0,0.014,0c0.388,0,0.72,0.286,0.775,0.671c0.098,0.744,0.281,1.478,0.544,2.181
						c0.107,0.286,0.038,0.608-0.175,0.826l-0.919,0.919c-0.212,0.212-0.257,0.54-0.108,0.801c1.091,1.92,2.682,3.511,4.601,4.601
						c0.261,0.148,0.588,0.104,0.801-0.108l0.919-0.918c0.216-0.214,0.541-0.282,0.827-0.176c0.703,0.263,1.437,0.445,2.18,0.543
						c0.393,0.058,0.681,0.399,0.671,0.796C311.332,152.463,311.332,152.469,311.332,152.474z"/>
				</g>
			</g>
			<g>
				<g>
					<path fill="#F04C23" d="M310.479,164.075c-0.165-0.841-0.571-1.606-1.178-2.213c-0.606-0.606-1.372-1.014-2.213-1.178
						c-0.361-0.07-0.711,0.166-0.782,0.527s0.166,0.712,0.526,0.781c1.188,0.232,2.105,1.15,2.337,2.338
						c0.062,0.317,0.342,0.54,0.654,0.54c0.042,0,0.085-0.005,0.128-0.014C310.313,164.788,310.549,164.438,310.479,164.075z"/>
				</g>
			</g>
			<g>
				<g>
					<path fill="#F04C23" d="M313.387,164.121c-0.181-1.615-0.915-3.137-2.064-4.285s-2.673-1.88-4.289-2.06
						c-0.366-0.041-0.695,0.223-0.736,0.589c-0.041,0.366,0.223,0.696,0.589,0.737c2.739,0.304,4.867,2.429,5.175,5.169
						c0.038,0.34,0.326,0.592,0.662,0.592c0.024,0,0.05-0.002,0.075-0.005C313.165,164.817,313.428,164.487,313.387,164.121z"/>
				</g>
			</g>
			<g>
				<g>
					<path fill="#F04C23" d="M310.845,167.85c-0.001,0-0.004,0-0.006,0c-0.645-0.086-1.281-0.244-1.89-0.471
						c-0.771-0.29-1.648-0.103-2.233,0.476c-0.001,0.001-0.001,0.002-0.003,0.003l-0.553,0.553
						c-1.375-0.868-2.539-2.033-3.407-3.406l0.553-0.554c0.001-0.001,0.002-0.001,0.002-0.003c0.58-0.586,0.767-1.463,0.478-2.231
						c-0.228-0.609-0.387-1.246-0.472-1.892c0-0.002,0-0.004-0.001-0.006c-0.147-1.047-1.056-1.829-2.113-1.82h-2.173
						c-0.063,0-0.126,0.003-0.188,0.008c-1.163,0.105-2.022,1.137-1.918,2.299c0,0.003,0.001,0.007,0.002,0.011
						c0.248,2.332,1.052,4.606,2.327,6.576c1.158,1.819,2.731,3.394,4.552,4.551c1.96,1.271,4.223,2.075,6.545,2.328
						c0.004,0,0.008,0.001,0.012,0.001c0.063,0.006,0.127,0.009,0.191,0.009c0.002,0,0.005,0,0.008,0
						c1.167-0.005,2.113-0.959,2.108-2.123v-2.168C312.688,168.919,311.907,167.999,310.845,167.85z M311.332,169.981v2.178
						c0.002,0.433-0.348,0.785-0.78,0.787c-0.023,0-0.046-0.001-0.069-0.003c-2.114-0.23-4.175-0.965-5.959-2.122
						c-0.001-0.001-0.003-0.002-0.005-0.004c-1.658-1.053-3.091-2.486-4.146-4.144c-0.001-0.002-0.001-0.003-0.003-0.006
						c-1.162-1.792-1.896-3.863-2.122-5.988c-0.036-0.429,0.281-0.807,0.71-0.846c0.023-0.001,0.047-0.003,0.069-0.003h2.175
						c0.005,0,0.01,0,0.014,0c0.388,0,0.72,0.286,0.775,0.671c0.098,0.744,0.281,1.478,0.544,2.181
						c0.107,0.286,0.038,0.608-0.175,0.826l-0.919,0.919c-0.212,0.212-0.257,0.54-0.108,0.801c1.091,1.92,2.682,3.511,4.601,4.601
						c0.261,0.148,0.588,0.104,0.801-0.108l0.919-0.918c0.216-0.214,0.541-0.282,0.827-0.176c0.703,0.263,1.437,0.445,2.18,0.543
						c0.393,0.058,0.681,0.399,0.671,0.796C311.332,169.971,311.332,169.977,311.332,169.981z"/>
				</g>
			</g>
		</g>
		<g>
			<rect x="354.406" y="148.208" fill="#A4B0BE" width="1.385" height="2.147"/>
			<rect x="347.547" y="148.208" fill="#A4B0BE" width="1.385" height="2.147"/>
			<path fill="#A4B0BE" d="M344.049,156.771c-0.338,0-0.621-0.259-0.658-0.604l0.001-11.585c0-0.373,0.297-0.677,0.663-0.677h4.252
				v-3.055h6.528v3.056l4.35-0.001c0.365,0,0.661,0.304,0.661,0.677v11.519c0,0.184-0.068,0.354-0.193,0.479
				c-0.123,0.124-0.286,0.192-0.459,0.192l0,0L344.049,156.771z M344.712,155.423h13.81v-10.16h-13.81L344.712,155.423z
				 M349.692,143.905l3.757,0.001v-1.786h-3.757V143.905z"/>
			<rect x="354.406" y="165.13" fill="#F04C23" width="1.385" height="2.147"/>
			<rect x="347.547" y="165.13" fill="#F04C23" width="1.385" height="2.147"/>
			<path fill="#F04C23" d="M344.049,173.693c-0.338,0-0.621-0.259-0.658-0.604l0.001-11.585c0-0.373,0.297-0.677,0.663-0.677h4.252
				v-3.055h6.528v3.056l4.35-0.001c0.365,0,0.661,0.304,0.661,0.677v11.519c0,0.184-0.068,0.354-0.193,0.479
				c-0.123,0.124-0.286,0.192-0.459,0.192l0,0L344.049,173.693z M344.712,172.345h13.81v-10.16h-13.81L344.712,172.345z
				 M349.692,160.827l3.757,0.001v-1.786h-3.757V160.827z"/>
		</g>
		<g>
			<g>
				<path fill="#A4B0BE" d="M405.558,155.38h-1.219v-11.035c0-0.381-0.315-0.695-0.697-0.695c-0.381,0-0.696,0.314-0.696,0.695
					v11.035h-2.334v-8.141c0-0.382-0.314-0.697-0.696-0.697c-0.381,0-0.696,0.315-0.696,0.697v8.141h-2.367v-5.401
					c0-0.383-0.314-0.698-0.696-0.698s-0.696,0.315-0.696,0.698v5.401h-2.334v-3.543c0-0.383-0.315-0.697-0.696-0.697
					c-0.382,0-0.696,0.314-0.696,0.697v3.543h-1.189c-0.381,0-0.696,0.314-0.696,0.695c0,0.383,0.315,0.697,0.696,0.697h14.979
					c0.381,0,0.729-0.314,0.729-0.697C406.254,155.69,405.939,155.38,405.558,155.38L405.558,155.38z M405.558,155.38"/>
				<path fill="#A4B0BE" d="M391.587,147.541c0.204-0.034,4.908-1.129,8.536-4.767v1.35c0,0.383,0.315,0.697,0.696,0.697
					c0.382,0,0.696-0.314,0.696-0.729v-3.03c0-0.383-0.314-0.697-0.696-0.697h-3.064c-0.382,0-0.696,0.314-0.696,0.697
					c0,0.381,0.314,0.695,0.696,0.695h1.437c-3.328,3.423-7.883,4.495-7.916,4.495c-0.385,0.069-0.593,0.419-0.525,0.799
					C390.857,147.496,391.329,147.628,391.587,147.541L391.587,147.541z M391.587,147.541"/>
			</g>
			<g>
				<path fill="#F04C23" d="M405.558,172.788h-1.219v-11.035c0-0.381-0.315-0.695-0.697-0.695c-0.381,0-0.696,0.314-0.696,0.695
					v11.035h-2.334v-8.141c0-0.382-0.314-0.697-0.696-0.697c-0.381,0-0.696,0.315-0.696,0.697v8.141h-2.367v-5.401
					c0-0.383-0.314-0.698-0.696-0.698s-0.696,0.315-0.696,0.698v5.401h-2.334v-3.543c0-0.383-0.315-0.697-0.696-0.697
					c-0.382,0-0.696,0.314-0.696,0.697v3.543h-1.189c-0.381,0-0.696,0.314-0.696,0.695c0,0.383,0.315,0.697,0.696,0.697h14.979
					c0.381,0,0.729-0.314,0.729-0.697C406.254,173.099,405.939,172.788,405.558,172.788L405.558,172.788z M405.558,172.788"/>
				<path fill="#F04C23" d="M391.587,164.949c0.204-0.034,4.908-1.129,8.536-4.767v1.35c0,0.383,0.315,0.697,0.696,0.697
					c0.382,0,0.696-0.314,0.696-0.729v-3.03c0-0.383-0.314-0.697-0.696-0.697h-3.064c-0.382,0-0.696,0.314-0.696,0.697
					c0,0.381,0.314,0.695,0.696,0.695h1.437c-3.328,3.423-7.883,4.495-7.916,4.495c-0.385,0.069-0.593,0.419-0.525,0.799
					C390.857,164.904,391.329,165.036,391.587,164.949L391.587,164.949z M391.587,164.949"/>
			</g>
		</g>
		<g>
			<g>
				<g>
					<path fill="#A4B0BE" d="M497.723,144.239H484.16c-0.797,0-1.446,0.647-1.446,1.445v9.642c0,0.798,0.649,1.446,1.446,1.446
						h13.563c0.797,0,1.446-0.648,1.446-1.446v-9.642C499.169,144.887,498.52,144.239,497.723,144.239z M498.205,155.326
						c0,0.266-0.216,0.482-0.482,0.482H484.16c-0.266,0-0.482-0.217-0.482-0.482v-6.267h14.526V155.326z M498.205,148.095h-14.526
						v-0.964h14.526V148.095z M498.205,146.166h-14.526v-0.481c0-0.266,0.216-0.482,0.482-0.482h13.563
						c0.266,0,0.482,0.217,0.482,0.482V146.166z"/>
				</g>
			</g>
			<g>
				<g>
					<path fill="#A4B0BE" d="M492.838,152.916h-0.964c-0.267,0-0.482,0.216-0.482,0.482c0,0.266,0.216,0.481,0.482,0.481h0.964
						c0.266,0,0.481-0.216,0.481-0.481C493.319,153.132,493.104,152.916,492.838,152.916z"/>
				</g>
			</g>
			<g>
				<g>
					<path fill="#A4B0BE" d="M495.794,152.916h-0.964c-0.267,0-0.482,0.216-0.482,0.482c0,0.266,0.215,0.481,0.482,0.481h0.964
						c0.266,0,0.482-0.216,0.482-0.481C496.277,153.132,496.061,152.916,495.794,152.916z"/>
				</g>
			</g>
			<g>
				<g>
					<path fill="#A4B0BE" d="M488.499,150.988c-0.352,0-0.68,0.095-0.964,0.258c-0.291-0.167-0.623-0.258-0.965-0.258
						c-1.063,0-1.928,0.864-1.928,1.928s0.865,1.929,1.928,1.929c0.342,0,0.674-0.091,0.965-0.26c0.284,0.165,0.612,0.26,0.964,0.26
						c1.063,0,1.928-0.865,1.928-1.929S489.562,150.988,488.499,150.988z M486.812,153.849c-0.078,0.021-0.159,0.031-0.242,0.031
						c-0.531,0-0.964-0.433-0.964-0.964s0.433-0.964,0.964-0.964c0.083,0,0.164,0.011,0.242,0.031
						c-0.153,0.276-0.242,0.594-0.242,0.933S486.659,153.572,486.812,153.849z M488.499,153.88c-0.532,0-0.964-0.433-0.964-0.964
						s0.433-0.964,0.964-0.964s0.964,0.433,0.964,0.964S489.031,153.88,488.499,153.88z"/>
				</g>
			</g>
			<g>
				<g>
					<path fill="#F04C23" d="M497.723,157.772H484.16c-0.797,0-1.446,0.647-1.446,1.445v9.642c0,0.798,0.649,1.446,1.446,1.446
						h13.563c0.797,0,1.446-0.648,1.446-1.446v-9.642C499.169,158.42,498.52,157.772,497.723,157.772z M498.205,168.859
						c0,0.266-0.216,0.482-0.482,0.482H484.16c-0.266,0-0.482-0.217-0.482-0.482v-6.267h14.526V168.859z M498.205,161.628h-14.526
						v-0.964h14.526V161.628z M498.205,159.699h-14.526v-0.481c0-0.266,0.216-0.482,0.482-0.482h13.563
						c0.266,0,0.482,0.217,0.482,0.482V159.699z"/>
				</g>
			</g>
			<g>
				<g>
					<path fill="#F04C23" d="M492.838,166.449h-0.964c-0.267,0-0.482,0.216-0.482,0.482c0,0.266,0.216,0.481,0.482,0.481h0.964
						c0.266,0,0.481-0.216,0.481-0.481C493.319,166.665,493.104,166.449,492.838,166.449z"/>
				</g>
			</g>
			<g>
				<g>
					<path fill="#F04C23" d="M495.794,166.449h-0.964c-0.267,0-0.482,0.216-0.482,0.482c0,0.266,0.215,0.481,0.482,0.481h0.964
						c0.266,0,0.482-0.216,0.482-0.481C496.277,166.665,496.061,166.449,495.794,166.449z"/>
				</g>
			</g>
			<g>
				<g>
					<path fill="#F04C23" d="M488.499,164.521c-0.352,0-0.68,0.095-0.964,0.258c-0.291-0.167-0.623-0.258-0.965-0.258
						c-1.063,0-1.928,0.864-1.928,1.928s0.865,1.929,1.928,1.929c0.342,0,0.674-0.091,0.965-0.26c0.284,0.165,0.612,0.26,0.964,0.26
						c1.063,0,1.928-0.865,1.928-1.929S489.562,164.521,488.499,164.521z M486.812,167.382c-0.078,0.021-0.159,0.031-0.242,0.031
						c-0.531,0-0.964-0.433-0.964-0.964s0.433-0.964,0.964-0.964c0.083,0,0.164,0.011,0.242,0.031
						c-0.153,0.276-0.242,0.594-0.242,0.933S486.659,167.105,486.812,167.382z M488.499,167.413c-0.532,0-0.964-0.433-0.964-0.964
						s0.433-0.964,0.964-0.964s0.964,0.433,0.964,0.964S489.031,167.413,488.499,167.413z"/>
				</g>
			</g>
		</g>
		<g>
			<path fill="#A4B0BE" d="M538.334,156.772c-0.044,0-0.089-0.004-0.13-0.013c-0.138-0.025-0.259-0.088-0.356-0.186l-7.207-7.207
				c-0.95-0.948-1.473-2.213-1.473-3.559c0-1.348,0.523-2.611,1.473-3.561c0.951-0.953,2.215-1.476,3.561-1.476
				s2.61,0.522,3.561,1.476l0.567,0.566l0.566-0.566c0.952-0.953,2.216-1.476,3.562-1.476c1.345,0,2.609,0.522,3.56,1.476
				c0.949,0.949,1.473,2.213,1.473,3.561c0,1.346-0.523,2.61-1.473,3.559l-7.207,7.207
				C538.684,156.703,538.515,156.772,538.334,156.772z M534.202,142.12c-0.985,0-1.911,0.383-2.607,1.079
				c-1.438,1.439-1.438,3.777,0,5.216l6.735,6.734l6.734-6.734c1.438-1.438,1.438-3.776,0-5.216
				c-0.696-0.696-1.622-1.079-2.606-1.079c-0.986,0-1.911,0.383-2.607,1.079l-1.044,1.046c-0.119,0.119-0.293,0.188-0.476,0.188
				c-0.184,0-0.357-0.068-0.478-0.188l-1.043-1.046C536.113,142.503,535.188,142.12,534.202,142.12z"/>
			<path fill="#F04C23" d="M546.018,159.248c-0.951-0.953-2.215-1.476-3.56-1.476c-1.346,0-2.61,0.522-3.562,1.476l-0.566,0.566
				l-0.567-0.566c-0.951-0.953-2.215-1.476-3.561-1.476s-2.609,0.522-3.561,1.476c-0.95,0.949-1.473,2.213-1.473,3.561
				c0,1.346,0.523,2.61,1.473,3.559l7.207,7.207c0.097,0.098,0.218,0.16,0.356,0.186c0.041,0.009,0.086,0.013,0.13,0.013
				c0.18,0,0.349-0.069,0.477-0.198l7.207-7.207c0.95-0.948,1.473-2.213,1.473-3.559
				C547.491,161.461,546.967,160.197,546.018,159.248z"/>
		</g>
		<g>
			<g>
				<g>
					<path fill="#A4B0BE" d="M585.462,140.772c-4.411,0-8,3.589-8,8s3.589,8,8,8s8-3.589,8-8S589.873,140.772,585.462,140.772z
						 M591.126,144.676c-0.862,0.342-1.748,0.612-2.657,0.791c-0.386-1.271-0.999-2.488-1.841-3.589
						C588.472,142.189,590.07,143.221,591.126,144.676z M587.726,150.952c-1.502-0.206-3.027-0.206-4.529,0
						c-0.308-1.434-0.309-2.918-0.002-4.353c0.746,0.102,1.5,0.173,2.267,0.173s1.52-0.071,2.266-0.173
						C588.035,148.034,588.034,149.519,587.726,150.952z M587.467,145.621c-1.331,0.173-2.68,0.173-4.011,0
						c0.41-1.286,1.08-2.505,2.006-3.585C586.388,143.116,587.057,144.335,587.467,145.621z M584.294,141.878
						c-0.842,1.101-1.454,2.317-1.84,3.589c-0.908-0.179-1.794-0.449-2.656-0.791C580.853,143.221,582.451,142.189,584.294,141.878z
						 M578.462,148.772c0-1.166,0.291-2.264,0.797-3.232c0.956,0.394,1.937,0.702,2.946,0.905c-0.321,1.537-0.321,3.124,0.001,4.662
						c-1.008,0.201-1.993,0.508-2.947,0.9C578.753,151.037,578.462,149.939,578.462,148.772z M579.798,152.869
						c0.862-0.342,1.748-0.612,2.656-0.791c0.386,1.271,0.999,2.488,1.841,3.589C582.451,155.355,580.853,154.324,579.798,152.869z
						 M583.457,151.924c1.33-0.173,2.679-0.173,4.01,0c-0.41,1.285-1.08,2.505-2.005,3.585
						C584.536,154.429,583.867,153.209,583.457,151.924z M586.628,155.667c0.842-1.101,1.455-2.317,1.841-3.589
						c0.908,0.179,1.795,0.45,2.657,0.791C590.07,154.324,588.472,155.355,586.628,155.667z M588.717,151.105
						c0.322-1.537,0.323-3.124,0.001-4.661c1.009-0.203,1.991-0.511,2.947-0.905c0.506,0.97,0.797,2.067,0.797,3.233
						c0,1.167-0.291,2.265-0.797,3.233C590.711,151.614,589.726,151.308,588.717,151.105z"/>
				</g>
			</g>
			<g>
				<g>
					<path fill="#F04C23" d="M585.462,157.772c-4.411,0-8,3.589-8,8s3.589,8,8,8s8-3.589,8-8S589.873,157.772,585.462,157.772z
						 M591.126,161.676c-0.862,0.342-1.748,0.612-2.657,0.791c-0.386-1.271-0.999-2.488-1.841-3.589
						C588.472,159.189,590.07,160.221,591.126,161.676z M587.726,167.952c-1.502-0.206-3.027-0.206-4.529,0
						c-0.308-1.434-0.309-2.918-0.002-4.353c0.746,0.102,1.5,0.173,2.267,0.173s1.52-0.071,2.266-0.173
						C588.035,165.034,588.034,166.519,587.726,167.952z M587.467,162.621c-1.331,0.173-2.68,0.173-4.011,0
						c0.41-1.286,1.08-2.505,2.006-3.585C586.388,160.116,587.057,161.335,587.467,162.621z M584.294,158.878
						c-0.842,1.101-1.454,2.317-1.84,3.589c-0.908-0.179-1.794-0.449-2.656-0.791C580.853,160.221,582.451,159.189,584.294,158.878z
						 M578.462,165.772c0-1.166,0.291-2.264,0.797-3.232c0.956,0.394,1.937,0.702,2.946,0.905c-0.321,1.537-0.321,3.124,0.001,4.662
						c-1.008,0.201-1.993,0.508-2.947,0.9C578.753,168.037,578.462,166.939,578.462,165.772z M579.798,169.869
						c0.862-0.342,1.748-0.612,2.656-0.791c0.386,1.271,0.999,2.488,1.841,3.589C582.451,172.355,580.853,171.324,579.798,169.869z
						 M583.457,168.924c1.33-0.173,2.679-0.173,4.01,0c-0.41,1.285-1.08,2.505-2.005,3.585
						C584.536,171.429,583.867,170.209,583.457,168.924z M586.628,172.667c0.842-1.101,1.455-2.317,1.841-3.589
						c0.908,0.179,1.795,0.45,2.657,0.791C590.07,171.324,588.472,172.355,586.628,172.667z M588.717,168.105
						c0.322-1.537,0.323-3.124,0.001-4.661c1.009-0.203,1.991-0.511,2.947-0.905c0.506,0.97,0.797,2.067,0.797,3.233
						c0,1.167-0.291,2.265-0.797,3.233C590.711,168.614,589.726,168.308,588.717,168.105z"/>
				</g>
			</g>
		</g>
		<g>
			<g>
				<rect x="630.795" y="148.105" fill="#A4B0BE" width="1.333" height="4.667"/>
				<rect x="630.795" y="144.772" fill="#A4B0BE" width="1.333" height="2"/>
				<path fill="#A4B0BE" d="M631.462,140.772c-4.4,0-8,3.6-8,8s3.6,8,8,8s8-3.6,8-8S635.862,140.772,631.462,140.772
					L631.462,140.772z M631.462,155.439c-3.667,0-6.667-3-6.667-6.667s3-6.667,6.667-6.667c3.667,0,6.667,3,6.667,6.667
					S635.128,155.439,631.462,155.439L631.462,155.439z M631.462,155.439"/>
			</g>
			<g>
				<rect x="630.795" y="165.105" fill="#F04C23" width="1.333" height="4.667"/>
				<rect x="630.795" y="161.772" fill="#F04C23" width="1.333" height="2"/>
				<path fill="#F04C23" d="M631.462,157.772c-4.4,0-8,3.6-8,8s3.6,8,8,8s8-3.6,8-8S635.862,157.772,631.462,157.772
					L631.462,157.772z M631.462,172.439c-3.667,0-6.667-3-6.667-6.667s3-6.667,6.667-6.667c3.667,0,6.667,3,6.667,6.667
					S635.128,172.439,631.462,172.439L631.462,172.439z M631.462,172.439"/>
			</g>
		</g>
		<g>
			<g>
				<rect x="769.278" y="149.943" fill="#A4B0BE" width="1.051" height="3.678"/>
				<rect x="769.278" y="147.317" fill="#A4B0BE" width="1.051" height="1.576"/>
				<path fill="#A4B0BE" d="M769.804,144.166c-3.467,0-6.303,2.836-6.303,6.303s2.836,6.304,6.303,6.304
					c3.465,0,6.303-2.837,6.303-6.304S773.269,144.166,769.804,144.166L769.804,144.166z M769.804,155.722
					c-2.891,0-5.254-2.363-5.254-5.253c0-2.889,2.363-5.252,5.254-5.252c2.889,0,5.252,2.363,5.252,5.252
					C775.056,153.358,772.692,155.722,769.804,155.722L769.804,155.722z M769.804,155.722"/>
			</g>
			<g>
				<rect x="769.278" y="163.551" fill="#F04C23" width="1.051" height="3.677"/>
				<rect x="769.278" y="160.924" fill="#F04C23" width="1.051" height="1.576"/>
				<path fill="#F04C23" d="M769.804,157.772c-3.467,0-6.303,2.837-6.303,6.304s2.836,6.303,6.303,6.303
					c3.465,0,6.303-2.836,6.303-6.303S773.269,157.772,769.804,157.772L769.804,157.772z M769.804,169.328
					c-2.891,0-5.254-2.363-5.254-5.252c0-2.89,2.363-5.253,5.254-5.253c2.889,0,5.252,2.363,5.252,5.253
					C775.056,166.965,772.692,169.328,769.804,169.328L769.804,169.328z M769.804,169.328"/>
			</g>
		</g>
		<g>
			<path fill-rule="evenodd" clip-rule="evenodd" fill="#A4B0BE" d="M669.462,141.772h3v3h-3V141.772z"/>
			<path fill-rule="evenodd" clip-rule="evenodd" fill="#A4B0BE" d="M669.462,147.772h3v3h-3V147.772z"/>
			<path fill-rule="evenodd" clip-rule="evenodd" fill="#A4B0BE" d="M669.462,153.772h3v3h-3V153.772z"/>
			<path fill-rule="evenodd" clip-rule="evenodd" fill="#A4B0BE" d="M674.499,141.772h13v3h-13V141.772z"/>
			<path fill-rule="evenodd" clip-rule="evenodd" fill="#A4B0BE" d="M674.499,147.772h13v3h-13V147.772z"/>
			<path fill-rule="evenodd" clip-rule="evenodd" fill="#A4B0BE" d="M674.499,153.772h13v3h-13V153.772z"/>
			<path fill-rule="evenodd" clip-rule="evenodd" fill="#F04C23" d="M669.462,157.772h3v3h-3V157.772z"/>
			<path fill-rule="evenodd" clip-rule="evenodd" fill="#F04C23" d="M669.462,163.772h3v3h-3V163.772z"/>
			<path fill-rule="evenodd" clip-rule="evenodd" fill="#F04C23" d="M669.462,169.772h3v3h-3V169.772z"/>
			<path fill-rule="evenodd" clip-rule="evenodd" fill="#F04C23" d="M674.499,157.772h13v3h-13V157.772z"/>
			<path fill-rule="evenodd" clip-rule="evenodd" fill="#F04C23" d="M674.499,163.772h13v3h-13V163.772z"/>
			<path fill-rule="evenodd" clip-rule="evenodd" fill="#F04C23" d="M674.499,169.772h13v3h-13V169.772z"/>
		</g>
		<g>
			<path fill-rule="evenodd" clip-rule="evenodd" fill="#A4B0BE" d="M717.499,141.772h6v6h-6V141.772z"/>
			<path fill-rule="evenodd" clip-rule="evenodd" fill="#A4B0BE" d="M717.499,150.772h6v6h-6V150.772z"/>
			<path fill-rule="evenodd" clip-rule="evenodd" fill="#A4B0BE" d="M727.5,141.772h5.999v6H727.5V141.772z"/>
			<path fill-rule="evenodd" clip-rule="evenodd" fill="#A4B0BE" d="M727.5,150.772h5.999v6H727.5V150.772z"/>
			<g>
				<path fill-rule="evenodd" clip-rule="evenodd" fill="#F04C23" d="M717.499,157.772h6v6h-6V157.772z"/>
				<path fill-rule="evenodd" clip-rule="evenodd" fill="#F04C23" d="M717.499,166.772h6v6h-6V166.772z"/>
				<path fill-rule="evenodd" clip-rule="evenodd" fill="#F04C23" d="M727.5,157.772h5.999v6H727.5V157.772z"/>
				<path fill-rule="evenodd" clip-rule="evenodd" fill="#F04C23" d="M727.5,166.772h5.999v6H727.5V166.772z"/>
			</g>
		</g>
		<g>
			<path fill="#C4CCD5" d="M968.635,156.772c-0.305,0-0.553-0.248-0.553-0.553v-10.896c0-0.151,0.066-0.3,0.18-0.405l4.354-3.999
				c0.102-0.094,0.234-0.146,0.373-0.146h5.998c0.305,0,0.553,0.248,0.553,0.553v2.223l0.641-0.768
				c0.111-0.132,0.25-0.199,0.414-0.199c0.156,0,0.305,0.066,0.369,0.131l0.004,0.004l2.928,2.56
				c0.229,0.198,0.256,0.536,0.063,0.769l-4.418,5.32v4.855c0,0.305-0.248,0.553-0.553,0.553H968.635z M969.188,155.668h9.244
				v-2.972l-0.707,0.852c-0.072,0.088-0.17,0.15-0.285,0.181l-3.234,0.852l-0.01,0.004c-0.01,0.005-0.041,0.015-0.098,0.015
				c-0.117,0-0.301-0.048-0.43-0.183c-0.104-0.107-0.152-0.251-0.145-0.427l0.303-3.401c0.008-0.113,0.051-0.217,0.123-0.303
				l4.486-5.404v-3.003h-4.758v3.884c0,0.421-0.396,0.552-0.541,0.552l-3.949-0.058V155.668z M974.914,150.858l-0.219,2.449
				l2.297-0.603l5.773-6.954l-2.096-1.828L974.914,150.858z M969.633,145.159l2.939,0.038v-2.739L969.633,145.159z"/>
			<path fill="#F04C23" d="M968.635,173.772c-0.305,0-0.553-0.248-0.553-0.553v-10.896c0-0.151,0.066-0.3,0.18-0.405l4.354-3.999
				c0.102-0.094,0.234-0.146,0.373-0.146h5.998c0.305,0,0.553,0.248,0.553,0.553v2.223l0.641-0.768
				c0.111-0.132,0.25-0.199,0.414-0.199c0.156,0,0.305,0.066,0.369,0.131l0.004,0.004l2.928,2.56
				c0.229,0.198,0.256,0.536,0.063,0.769l-4.418,5.32v4.855c0,0.305-0.248,0.553-0.553,0.553H968.635z M969.188,172.668h9.244
				v-2.972l-0.707,0.852c-0.072,0.088-0.17,0.15-0.285,0.181l-3.234,0.852l-0.01,0.004c-0.01,0.005-0.041,0.015-0.098,0.015
				c-0.117,0-0.301-0.048-0.43-0.183c-0.104-0.107-0.152-0.251-0.145-0.427l0.303-3.401c0.008-0.113,0.051-0.217,0.123-0.303
				l4.486-5.404v-3.003h-4.758v3.884c0,0.421-0.396,0.552-0.541,0.552l-3.949-0.058V172.668z M974.914,167.858l-0.219,2.449
				l2.297-0.603l5.773-6.954l-2.096-1.828L974.914,167.858z M969.633,162.159l2.939,0.038v-2.739L969.633,162.159z"/>
		</g>
		<g>
			<polygon fill="#C4CCD5" points="806.106,151.673 808.647,147.272 811.187,151.673 			"/>
			<polygon fill="#C4CCD5" points="811.187,162.872 808.647,167.272 806.106,162.872 			"/>
			<circle fill="#C4CCD5" cx="808.647" cy="157.272" r="2.54"/>
		</g>
		<g>
			<polygon fill="#F04C23" points="841.187,150.272 844.362,144.772 847.536,150.272 			"/>
			<polygon fill="#F04C23" points="847.536,164.272 844.362,169.772 841.187,164.272 			"/>
			<circle fill="#F04C23" cx="844.362" cy="157.272" r="3.175"/>
		</g>
		<g>
			<path fill="#F04C23" d="M893.354,157.973c-0.268-0.267-0.668-0.267-0.934,0l-1.316,1.314c-0.996-0.858-5.699-2.123-12.203,4.267
				c-0.471,0.046-0.75,0.248-0.926,0.423c-1.301,1.268,0.473,4.401,2.805,6.571c4.912,4.58,6.373,3.002,6.604,2.803
				c0.232-0.237,0.359-0.531,0.4-0.868c4.357-4.392,6.102-9.579,4.26-12.268l1.311-1.311
				C893.622,158.64,893.622,158.241,893.354,157.973L893.354,157.973z M886.417,172.42c0,0-1.303,0.413-4.67-2.836
				c-2.41-2.325-3.066-4.373-2.836-4.67c0,0,1.039-0.416,4.197,2.388l-0.68,0.707c-0.268,0.268-0.268,0.668,0,0.935
				c0.266,0.268,0.666,0.268,0.934,0l0.684-0.71C886.04,170.383,886.634,172.14,886.417,172.42L886.417,172.42z M887.489,170.871
				c-0.527-1.308-1.664-2.813-2.941-4.092c-1.385-1.383-2.848-2.417-4.059-2.911c3.27-2.946,8.023-5.198,10.197-3.193
				C892.542,162.389,890.993,166.984,887.489,170.871L887.489,170.871z M887.489,170.871"/>
			<path fill="#A4B0BE" d="M893.354,140.972c-0.268-0.267-0.668-0.267-0.934,0l-1.316,1.314c-0.996-0.858-5.699-2.123-12.203,4.267
				c-0.471,0.046-0.75,0.248-0.926,0.423c-1.301,1.268,0.473,4.401,2.805,6.571c4.912,4.58,6.373,3.002,6.604,2.803
				c0.232-0.237,0.359-0.531,0.4-0.868c4.357-4.392,6.102-9.579,4.26-12.268l1.311-1.311
				C893.622,141.639,893.622,141.24,893.354,140.972L893.354,140.972z M886.417,155.419c0,0-1.303,0.413-4.67-2.836
				c-2.41-2.325-3.066-4.373-2.836-4.67c0,0,1.039-0.416,4.197,2.388l-0.68,0.707c-0.268,0.268-0.268,0.668,0,0.935
				c0.266,0.268,0.666,0.268,0.934,0l0.684-0.71C886.04,153.382,886.634,155.139,886.417,155.419L886.417,155.419z M887.489,153.87
				c-0.527-1.308-1.664-2.813-2.941-4.092c-1.385-1.383-2.848-2.417-4.059-2.911c3.27-2.946,8.023-5.198,10.197-3.193
				C892.542,145.388,890.993,149.983,887.489,153.87L887.489,153.87z M887.489,153.87"/>
		</g>
		<g>
			<g>
				<g>
					<path fill="#C4CCD5" d="M1074.25,140.981c-0.279-0.278-0.73-0.278-1.008,0l-8.404,8.404l-1.926-1.926
						c-0.277-0.278-0.729-0.278-1.008,0c-0.277,0.277-0.277,0.729,0,1.006l2.43,2.43c0.135,0.134,0.314,0.209,0.504,0.209
						s0.369-0.075,0.504-0.209l8.908-8.908C1074.527,141.71,1074.527,141.259,1074.25,140.981z"/>
				</g>
			</g>
			<g>
				<g>
					<path fill="#C4CCD5" d="M1072.127,148.061c-0.395,0-0.713,0.319-0.713,0.712v5.669c0,0.501-0.406,0.908-0.908,0.908h-11.336
						c-0.502,0-0.908-0.407-0.908-0.908v-11.337c0-0.501,0.406-0.908,0.908-0.908h8.908c0.393,0,0.711-0.318,0.711-0.712
						c0-0.393-0.318-0.712-0.711-0.712h-8.908c-1.287,0-2.332,1.046-2.332,2.332v11.337c0,1.285,1.045,2.331,2.332,2.331h11.336
						c1.287,0,2.332-1.046,2.332-2.331v-5.669C1072.838,148.38,1072.52,148.061,1072.127,148.061z"/>
				</g>
			</g>
			<g>
				<g>
					<path fill="#F04C23" d="M1074.25,157.981c-0.279-0.278-0.73-0.278-1.008,0l-8.404,8.404l-1.926-1.926
						c-0.277-0.278-0.729-0.278-1.008,0c-0.277,0.277-0.277,0.729,0,1.006l2.43,2.43c0.135,0.134,0.314,0.209,0.504,0.209
						s0.369-0.075,0.504-0.209l8.908-8.908C1074.527,158.71,1074.527,158.259,1074.25,157.981z"/>
				</g>
			</g>
			<g>
				<g>
					<path fill="#F04C23" d="M1072.127,165.061c-0.395,0-0.713,0.319-0.713,0.712v5.669c0,0.501-0.406,0.908-0.908,0.908h-11.336
						c-0.502,0-0.908-0.407-0.908-0.908v-11.337c0-0.501,0.406-0.908,0.908-0.908h8.908c0.393,0,0.711-0.318,0.711-0.712
						c0-0.393-0.318-0.712-0.711-0.712h-8.908c-1.287,0-2.332,1.046-2.332,2.332v11.337c0,1.285,1.045,2.331,2.332,2.331h11.336
						c1.287,0,2.332-1.046,2.332-2.331v-5.669C1072.838,165.38,1072.52,165.061,1072.127,165.061z"/>
				</g>
			</g>
		</g>
		<g>
			<g>
				<path fill="#C4CCD5" d="M1115.82,148.772h-2.051c-0.281,0-0.512,0.229-0.512,0.513v4.1c0,0.283,0.23,0.513,0.512,0.513h2.051
					c0.566,0,1.025-0.459,1.025-1.025v-3.075C1116.846,149.231,1116.387,148.772,1115.82,148.772z M1115.82,152.872h-1.537v-3.075
					h1.537V152.872z"/>
				<path fill="#C4CCD5" d="M1120.537,149.797v-1.024h-2.563c-0.281,0-0.512,0.229-0.512,0.513v4.612h1.025v-2.05h2.049v-1.025
					h-2.049v-1.025H1120.537z"/>
				<path fill="#C4CCD5" d="M1105.568,155.225V142.32c0-0.241,0.195-0.438,0.438-0.438h7.385v1.926c0,0.58,0.473,1.052,1.053,1.052
					h1.926v1.489h1.109v-2.044c0.002-0.146-0.057-0.29-0.16-0.395l-2.979-2.978c-0.105-0.104-0.244-0.161-0.391-0.161h-7.943
					c-0.854,0-1.549,0.694-1.549,1.548v12.904c0,0.854,0.695,1.548,1.549,1.548h3.531v-1.11h-3.531
					C1105.764,155.662,1105.568,155.466,1105.568,155.225z"/>
				<path fill="#C4CCD5" d="M1111.607,148.772h-2.049c-0.283,0-0.514,0.229-0.514,0.513v4.612h1.025v-1.538h1.537
					c0.566,0,1.025-0.459,1.025-1.024v-1.538C1112.633,149.231,1112.174,148.772,1111.607,148.772z M1111.607,151.335h-1.537v-1.538
					h1.537V151.335z"/>
			</g>
			<g>
				<path fill="#F04C23" d="M1115.82,165.772h-2.051c-0.281,0-0.512,0.229-0.512,0.513v4.1c0,0.283,0.23,0.513,0.512,0.513h2.051
					c0.566,0,1.025-0.459,1.025-1.025v-3.075C1116.846,166.231,1116.387,165.772,1115.82,165.772z M1115.82,169.872h-1.537v-3.075
					h1.537V169.872z"/>
				<path fill="#F04C23" d="M1120.537,166.797v-1.024h-2.563c-0.281,0-0.512,0.229-0.512,0.513v4.612h1.025v-2.05h2.049v-1.025
					h-2.049v-1.025H1120.537z"/>
				<path fill="#F04C23" d="M1105.568,172.225V159.32c0-0.241,0.195-0.438,0.438-0.438h7.385v1.926c0,0.58,0.473,1.052,1.053,1.052
					h1.926v1.489h1.109v-2.044c0.002-0.146-0.057-0.29-0.16-0.395l-2.979-2.978c-0.105-0.104-0.244-0.161-0.391-0.161h-7.943
					c-0.854,0-1.549,0.694-1.549,1.548v12.904c0,0.854,0.695,1.548,1.549,1.548h3.531v-1.11h-3.531
					C1105.764,172.662,1105.568,172.466,1105.568,172.225z"/>
				<path fill="#F04C23" d="M1111.607,165.772h-2.049c-0.283,0-0.514,0.229-0.514,0.513v4.612h1.025v-1.538h1.537
					c0.566,0,1.025-0.459,1.025-1.024v-1.538C1112.633,166.231,1112.174,165.772,1111.607,165.772z M1111.607,168.335h-1.537v-1.538
					h1.537V168.335z"/>
			</g>
		</g>
		<g>
			<path fill="#A4B0BE" d="M176.183,142.952c-0.3-0.423-0.805-0.664-1.386-0.664h-2.21v-2.404c0-0.926-0.754-1.68-1.68-1.68h-7.749
				c-0.329,0-0.844-0.262-1.038-0.527l-0.58-0.793c-0.452-0.619-1.372-1.086-2.138-1.086h-2.685c-0.844,0-1.692,0.6-1.974,1.396
				l-0.185,0.522c-0.087,0.246-0.429,0.488-0.69,0.488h-0.805c-0.926,0-1.68,0.754-1.68,1.68v15.172c0,0.08,0.015,0.157,0.04,0.229
				c0.014,0.301,0.107,0.583,0.277,0.823c0.3,0.423,0.805,0.665,1.385,0.665h17.117c1.035,0,2.113-0.766,2.455-1.742l3.694-10.551
				C176.544,143.932,176.482,143.375,176.183,142.952L176.183,142.952z M153.063,139.566h0.805c0.844,0,1.693-0.601,1.974-1.396
				l0.184-0.522c0.087-0.246,0.429-0.487,0.69-0.487h2.685c0.33,0,0.844,0.261,1.039,0.527l0.58,0.793
				c0.452,0.619,1.371,1.086,2.138,1.086h7.749c0.172,0,0.318,0.145,0.318,0.317v2.404h-13.544c-1.035,0-2.113,0.765-2.455,1.741
				l-2.48,7.083v-11.229C152.746,139.711,152.891,139.566,153.063,139.566L153.063,139.566z M175.066,144.029l-3.694,10.551
				c-0.151,0.435-0.709,0.83-1.169,0.83h-17.117c-0.131,0-0.234-0.034-0.274-0.091c-0.041-0.057-0.039-0.165,0.005-0.289
				l3.694-10.551c0.152-0.435,0.709-0.83,1.169-0.83h17.116c0.132,0,0.234,0.034,0.275,0.091
				C175.111,143.797,175.11,143.905,175.066,144.029L175.066,144.029z M175.066,144.029"/>
			<path fill="#F04C23" d="M176.183,164.927c-0.3-0.423-0.805-0.664-1.386-0.664h-2.21v-2.404c0-0.926-0.754-1.68-1.68-1.68h-7.749
				c-0.329,0-0.844-0.262-1.038-0.527l-0.58-0.793c-0.452-0.619-1.372-1.086-2.138-1.086h-2.685c-0.844,0-1.692,0.6-1.974,1.396
				l-0.185,0.522c-0.087,0.246-0.429,0.488-0.69,0.488h-0.805c-0.926,0-1.68,0.754-1.68,1.68v15.172c0,0.08,0.015,0.157,0.04,0.229
				c0.014,0.301,0.107,0.583,0.277,0.823c0.3,0.423,0.805,0.665,1.385,0.665h17.117c1.035,0,2.113-0.766,2.455-1.742l3.694-10.551
				C176.544,165.906,176.482,165.35,176.183,164.927L176.183,164.927z M153.063,161.541h0.805c0.844,0,1.693-0.601,1.974-1.396
				l0.184-0.522c0.087-0.246,0.429-0.487,0.69-0.487h2.685c0.33,0,0.844,0.261,1.039,0.527l0.58,0.793
				c0.452,0.619,1.371,1.086,2.138,1.086h7.749c0.172,0,0.318,0.145,0.318,0.317v2.404h-13.544c-1.035,0-2.113,0.765-2.455,1.741
				l-2.48,7.083v-11.229C152.746,161.686,152.891,161.541,153.063,161.541L153.063,161.541z M175.066,166.004l-3.694,10.551
				c-0.151,0.435-0.709,0.83-1.169,0.83h-17.117c-0.131,0-0.234-0.034-0.274-0.091c-0.041-0.057-0.039-0.165,0.005-0.289
				l3.694-10.551c0.152-0.435,0.709-0.83,1.169-0.83h17.116c0.132,0,0.234,0.034,0.275,0.091
				C175.111,165.771,175.11,165.88,175.066,166.004L175.066,166.004z M175.066,166.004"/>
		</g>
	</g>
</g>
</svg>
