<?xml version="1.0" encoding="utf-8"?>
<!-- Generator: Adobe Illustrator 22.0.1, SVG Export Plug-In . SVG Version: 6.00 Build 0)  -->
<svg version="1.1" id="Layer_1" xmlns="http://www.w3.org/2000/svg" xmlns:xlink="http://www.w3.org/1999/xlink" x="0px" y="0px"
	 viewBox="0 0 16 16" enable-background="new 0 0 16 16" xml:space="preserve">
<path fill="#8E969F" d="M8,8.617c0.67,0,1.235,0.424,1.235,0.926S8.67,10.469,8,10.469c-0.336,0-0.649-0.104-0.883-0.293
	C6.855,9.961,6.465,10,6.249,10.264c-0.216,0.266-0.177,0.654,0.089,0.869c0.298,0.242,0.658,0.406,1.045,0.494v0.695
	c0,0.34,0.276,0.617,0.617,0.617s0.618-0.277,0.618-0.617v-0.695c1.062-0.24,1.853-1.08,1.853-2.084c0-1.191-1.108-2.16-2.471-2.16
	c-0.669,0-1.234-0.424-1.234-0.928c0-0.502,0.565-0.926,1.234-0.926c0.336,0,0.65,0.103,0.883,0.295
	C9.147,6.037,9.536,6,9.752,5.734c0.216-0.264,0.176-0.652-0.09-0.869C9.365,4.623,9.004,4.461,8.618,4.373V3.678
	C8.618,3.336,8.341,3.06,8,3.06c-0.341,0-0.617,0.275-0.617,0.617V4.37C6.32,4.613,5.53,5.451,5.53,6.455
	C5.53,7.648,6.638,8.617,8,8.617z"/>
<path fill="#8E969F" d="M0.664,16h4.07h6.694h3.979C15.74,15.965,16,15.688,16,15.354V0.648c0.002-0.172-0.065-0.336-0.188-0.457
	C15.687,0.066,15.519,0,15.34,0H0.664C0.297,0,0,0.291,0,0.65v1.307V3.26v10.959v1.131C0,15.707,0.297,16,0.664,16z M1.332,1.301
	h13.344v13.4H1.332V1.301z"/>
</svg>
