<svg xmlns="http://www.w3.org/2000/svg" xmlns:xlink="http://www.w3.org/1999/xlink" width="24" height="24" viewBox="0 0 24 24">
    <defs>
        <path id="a" d="M20.3 5.303H13.27c-.315 0-.808-.251-.994-.505l-.555-.759C11.288 3.447 10.407 3 9.674 3h-2.57c-.807 0-1.619.574-1.889 1.336l-.177.5c-.083.235-.41.467-.66.467H4a2 2 0 0 0-2 2v11.77a2 2 0 0 0 2 2h16.35a2 2 0 0 0 2-2.009l-.05-11.77a2 2 0 0 0-2-1.991zM9 13.41v-.99h2.42V10h.99v2.42h2.42v.99h-2.42v2.42h-.99v-2.42H9zm11.989-5.804v11.236a1 1 0 0 1-1 1H4.304a1 1 0 0 1-1-1V7.606a1 1 0 0 1 1-1H19.99a1 1 0 0 1 1 1z"/>
    </defs>
    <g fill="none" fill-rule="evenodd">
        <mask id="b" fill="#fff">
            <use xlink:href="#a"/>
        </mask>
        <use fill="#A4B0BE" fill-rule="nonzero" xlink:href="#a"/>
        <g fill="#8E97A0" fill-rule="nonzero" mask="url(#b)">
            <path d="M0 0h24v24H0z"/>
        </g>
    </g>
</svg>
