<?xml version="1.0" encoding="utf-8"?>
<!-- Generator: Adobe Illustrator 22.0.1, SVG Export Plug-In . SVG Version: 6.00 Build 0)  -->
<svg version="1.1" id="Layer_1" xmlns="http://www.w3.org/2000/svg" xmlns:xlink="http://www.w3.org/1999/xlink" x="0px" y="0px"
	 viewBox="0 0 15.999 16.125" enable-background="new 0 0 15.999 16.125" xml:space="preserve">
<path fill="#8E969F" d="M8,5.469c-1.43,0-2.594,1.164-2.594,2.594c0,1.432,1.164,2.596,2.594,2.596c1.431,0,2.594-1.164,2.594-2.596
	C10.593,6.633,9.43,5.469,8,5.469z M8,9.248c-0.652,0-1.186-0.531-1.186-1.186C6.814,7.41,7.347,6.877,8,6.877
	S9.185,7.41,9.185,8.063C9.184,8.717,8.653,9.248,8,9.248z"/>
<path fill="#8E969F" d="M15.753,9.941l-1.631-1.25c0.046-0.432,0.043-0.852,0-1.258l1.631-1.248c0.253-0.195,0.321-0.547,0.159-0.82
	l-1.579-2.678c-0.158-0.266-0.485-0.379-0.773-0.266l-1.936,0.762c-0.353-0.252-0.731-0.467-1.131-0.641l-0.29-2.004
	C10.158,0.23,9.892,0,9.579,0H6.42C6.107,0,5.842,0.23,5.797,0.539L5.506,2.543C5.107,2.717,4.728,2.932,4.375,3.184L2.441,2.422
	c-0.289-0.113-0.617,0-0.773,0.266l-1.58,2.678c-0.163,0.273-0.093,0.625,0.16,0.82l1.631,1.248c-0.047,0.434-0.043,0.852,0,1.258
	l-1.631,1.25c-0.253,0.193-0.323,0.545-0.16,0.82l1.58,2.676c0.156,0.268,0.484,0.379,0.773,0.266l1.934-0.762
	c0.354,0.254,0.732,0.467,1.131,0.641l0.291,2.004c0.045,0.311,0.31,0.539,0.623,0.539h3.159c0.313,0,0.579-0.229,0.624-0.539
	l0.29-2.004c0.399-0.174,0.777-0.387,1.131-0.641l1.936,0.762c0.288,0.113,0.615,0.002,0.773-0.266l1.579-2.676
	C16.074,10.486,16.006,10.135,15.753,9.941z M13.52,12.334l-1.765-0.695c-0.212-0.082-0.451-0.045-0.628,0.098
	c-0.426,0.346-0.904,0.615-1.421,0.803c-0.218,0.08-0.375,0.273-0.408,0.502l-0.265,1.824H6.967l-0.266-1.824
	c-0.033-0.229-0.189-0.422-0.408-0.502c-0.518-0.188-0.994-0.457-1.42-0.803c-0.178-0.143-0.418-0.18-0.629-0.098l-1.766,0.695
	l-1.022-1.732l1.479-1.133c0.186-0.143,0.277-0.377,0.238-0.607c-0.094-0.537-0.09-1.076,0-1.598
	C3.212,7.033,3.12,6.801,2.935,6.658L1.457,5.523l1.022-1.732l1.766,0.695c0.21,0.084,0.45,0.047,0.628-0.097
	c0.426-0.344,0.902-0.615,1.42-0.803c0.219-0.08,0.375-0.271,0.408-0.502L6.967,1.26h2.067l0.265,1.824
	c0.033,0.23,0.19,0.422,0.408,0.502c0.517,0.188,0.995,0.459,1.421,0.803c0.177,0.144,0.416,0.182,0.628,0.098l1.765-0.695
	l1.023,1.732l-1.479,1.135c-0.186,0.143-0.277,0.375-0.237,0.606c0.093,0.539,0.09,1.078,0,1.598
	c-0.04,0.23,0.052,0.465,0.237,0.607l1.479,1.133L13.52,12.334z"/>
</svg>
