<?xml version="1.0" encoding="utf-8"?>
<!-- Generator: Adobe Illustrator 22.0.1, SVG Export Plug-In . SVG Version: 6.00 Build 0)  -->
<svg version="1.1" id="Layer_1" xmlns="http://www.w3.org/2000/svg" xmlns:xlink="http://www.w3.org/1999/xlink" x="0px" y="0px"
	 viewBox="0 0 15.375 16" enable-background="new 0 0 15.375 16" xml:space="preserve">
<path fill="#F04C23" d="M13.501,1.25h-1.063V0h-1.25v1.25h-7V0h-1.25v1.25H1.875C0.84,1.25,0,2.091,0,3.125v11
	C0,15.159,0.84,16,1.875,16H13.5c1.033,0,1.875-0.841,1.875-1.875v-11C15.376,2.091,14.535,1.25,13.501,1.25 M1.876,2.5h1.063v1.25
	h1.25V2.5h7v1.25h1.25V2.5h1.063c0.344,0,0.625,0.28,0.625,0.625v1.969H1.252V3.125C1.251,2.78,1.531,2.5,1.876,2.5 M13.501,14.75
	H1.876c-0.346,0-0.625-0.28-0.625-0.625V6.344h12.875v7.781C14.126,14.47,13.845,14.75,13.501,14.75"/>
</svg>
