<?xml version="1.0" encoding="utf-8"?>
<!-- Generator: Adobe Illustrator 22.0.1, SVG Export Plug-In . SVG Version: 6.00 Build 0)  -->
<svg version="1.1" id="Layer_1" xmlns="http://www.w3.org/2000/svg" xmlns:xlink="http://www.w3.org/1999/xlink" x="0px" y="0px"
	 viewBox="0 0 200 176.014" enable-background="new 0 0 200 176.014" xml:space="preserve">
<path d="M131.984,154.873H68.103l-21.599,21.141h-11.03l10.111-21.141h-6.893c-15.626,0-26.195-12.408-28.494-27.113L0.088,59.283
	c-0.461-2.297,0.919-3.678,3.217-3.678h41.361c2.297,0,3.676,1.381,3.676,3.678l6.434,42.74c0.46,3.676,2.758,5.055,5.975,5.055
	h78.586c3.218,0,5.056-1.379,5.975-5.055l6.434-42.74c0.46-2.297,1.838-3.217,3.677-3.678h41.361c2.299,0,3.217,1.381,3.217,3.678
	l-10.11,68.477c-2.297,14.705-12.408,27.113-28.493,27.113h-6.893l10.109,21.141h-11.03L131.984,154.873z"/>
<path d="M69.942,90.074l-5.055-34.008v-0.461c-2.299-10.109-9.651-16.543-19.762-17.002l0,0h-8.272l2.758-21.601
	c0-1.378,2.298-6.894,17.464-11.488C68.563,2.297,83.729,0,100.274,0c16.085,0,31.71,1.838,42.74,5.515
	c15.165,4.595,17.464,10.11,17.464,11.488l2.756,21.601h-8.271l0,0c-10.11,0.459-17.464,6.893-19.761,17.002v0.461l-5.057,34.008
	L69.942,90.074L69.942,90.074z"/>
</svg>
