<?xml version="1.0" encoding="utf-8"?>
<svg version="1.1" id="Isolation_Mode" x="0px" y="0px" viewBox="0 0 474 439" style="enable-background:new 0 0 1226.9 879;" xmlns="http://www.w3.org/2000/svg">
  <style type="text/css">
	.st0{fill-rule:evenodd;clip-rule:evenodd;fill:#FFFFFF;}
</style>
  <g transform="matrix(1, 0, 0, 1, -370.209442, -186.094574)">
    <path class="st0" d="M676.9,551.4H536.3l-47.4,46.7h-24.4l22.3-46.7h-15.4c-34.6,0-57.7-27.3-62.4-59.3L386.8,341&#10;&#9;&#9;c-0.7-5.5,1.6-8.2,6.6-8.4l91.4,0c4.9,0.1,7.6,2.8,8.6,7.6l13.8,94.2c1.4,8.1,6,11.4,12.7,11.3h173.4c6.7,0,11.3-3.2,12.7-11.3&#10;&#9;&#9;l13.8-94.2c1-4.8,3.7-7.5,8.6-7.6l91.4,0c5,0.2,7.3,2.9,6.6,8.4l-22.2,151.2c-4.8,32.7-27.7,59.3-62.4,59.3h-15.4l22.3,46.7h-24.4&#10;&#9;&#9;L676.9,551.4z"/>
    <path class="st0" d="M540.2,409.5l-11-75.1c0-0.3-0.1-0.5-0.1-0.8c-4.6-22.3-21.3-36.6-43.5-37.2c-0.1,0-0.3,0-0.4,0l-18,0&#10;&#9;&#9;l6.5-47.1c0.5-3.3,4.6-14.9,38.5-25.1c25.1-7.5,58.7-11.7,94.6-11.7c35.8,0,69.3,4.1,94.4,11.7c33.8,10.1,38,21.8,38.4,25.1&#10;&#9;&#9;l6.5,47.1l-18,0c-0.1,0-0.3,0-0.4,0c-22.2,0.6-38.9,14.9-43.5,37.2c-0.1,0.3-0.1,0.5-0.1,0.8l-11,75.1H540.2z"/>
  </g>
</svg>
