<svg xmlns="http://www.w3.org/2000/svg" xml:space="preserve" viewBox="0 0 72 70"><path fill="#FFF" d="M13.1 69.7H1.8c-.7 0-1.3-.6-1.3-1.3v-18c0-.7.6-1.3 1.3-1.3h11.3c.7 0 1.3.6 1.3 1.3v18c0 .7-.6 1.3-1.3 1.3zM32.1 69.7H20.8c-.7 0-1.3-.6-1.3-1.3V37.7c0-.7.6-1.3 1.3-1.3h11.3c.7 0 1.3.6 1.3 1.3v30.7c.1.7-.5 1.3-1.3 1.3zM51.2 69.7H39.9c-.7 0-1.3-.6-1.3-1.3V44.7c0-.7.6-1.3 1.3-1.3h11.3c.7 0 1.3.6 1.3 1.3v23.7c0 .7-.6 1.3-1.3 1.3zM70.2 69.7H58.9c-.7 0-1.3-.6-1.3-1.3V31.1c0-.7.6-1.3 1.3-1.3h11.3c.7 0 1.3.6 1.3 1.3v37.3c0 .7-.6 1.3-1.3 1.3zM69.5.3H54.8c-1.1 0-2 .9-2 2s.9 2 2 2h10.1L44.7 26.5 27.4 12.3c-.8-.6-1.9-.6-2.6.1l-23.7 22c-.8.8-.9 2-.1 2.8.4.4.9.6 1.5.6.5 0 1-.2 1.4-.5l22.4-20.9 17.4 14.3c.8.7 2 .6 2.7-.2L67.5 7.4V17c0 1.1.9 2 2 2s2-.9 2-2V2.3c0-1.1-.9-2-2-2z"/></svg>