<?xml version="1.0" encoding="utf-8"?>
<!-- Generator: Adobe Illustrator 22.0.1, SVG Export Plug-In . SVG Version: 6.00 Build 0)  -->
<svg version="1.1" id="Layer_1" xmlns="http://www.w3.org/2000/svg" xmlns:xlink="http://www.w3.org/1999/xlink" x="0px" y="0px"
	 viewBox="0 0 7.998 6.617" enable-background="new 0 0 7.998 6.617" xml:space="preserve">
<path fill="#FFFFFF" d="M2.58,6.617c-0.026,0-0.052-0.01-0.069-0.028L0.027,4.106C0.004,4.081,0,4.051,0,4.037
	s0.004-0.044,0.027-0.069l1.105-1.104C1.15,2.845,1.174,2.836,1.2,2.836c0.025,0,0.051,0.01,0.068,0.028L2.58,4.175l4.147-4.147
	C6.752,0.003,6.782,0,6.796,0S6.84,0.003,6.865,0.028l1.104,1.104c0.019,0.019,0.029,0.043,0.029,0.069S7.987,1.252,7.969,1.269
	L2.649,6.59C2.63,6.607,2.605,6.617,2.58,6.617z"/>
</svg>
