<svg xmlns="http://www.w3.org/2000/svg" width="27" height="24" viewBox="0 0 27 24">
    <path fill="#FFF" fill-rule="nonzero" d="M26.405.303c.41.403.41 1.058 0 1.46L13.238 14.697a1.063 1.063 0 0 1-1.49 0l-3.592-3.528a1.022 1.022 0 0 1 0-1.461 1.068 1.068 0 0 1 1.49 0l2.847 2.796L24.915.303a1.068 1.068 0 0 1 1.49 0zm-2.737 10.629c.585 0 1.059.479 1.059 1.068v8.503c0 1.928-1.557 3.497-3.473 3.497H4.372C2.456 24 .9 22.431.9 20.503V3.498C.9 1.569 2.456 0 4.372 0h13.266c.585 0 1.059.478 1.059 1.068 0 .591-.474 1.068-1.059 1.068H4.372c-.747 0-1.352.61-1.352 1.362v17.005c0 .752.605 1.363 1.352 1.363h16.882c.747 0 1.352-.611 1.352-1.363V12c0-.59.474-1.068 1.062-1.068z"/>
</svg>
