<?xml version="1.0" encoding="utf-8"?>
<!-- Generator: Adobe Illustrator 22.0.1, SVG Export Plug-In . SVG Version: 6.00 Build 0)  -->
<svg version="1.1" id="Layer_1" xmlns="http://www.w3.org/2000/svg" xmlns:xlink="http://www.w3.org/1999/xlink" x="0px" y="0px"
	 viewBox="0 0 16 16" enable-background="new 0 0 16 16" xml:space="preserve">
<path fill="#FFFFFF" d="M15.811,0.189C15.686,0.066,15.519,0,15.34,0H0.664C0.297,0,0,0.291,0,0.65v1.307V3.26v10.959v1.129
	C0,15.707,0.297,16,0.664,16h4.07h6.693h3.98C15.74,15.963,16,15.688,16,15.354V0.648C16.002,0.477,15.935,0.312,15.811,0.189z
	 M1.332,1.301h13.344v13.4H14.66c-0.144-0.324-0.307-0.641-0.496-0.938c-0.059-0.094-0.117-0.184-0.182-0.273
	c-0.072-0.104-0.148-0.203-0.227-0.303c-0.144-0.184-0.296-0.363-0.457-0.531c-0.021-0.022-0.039-0.045-0.06-0.064
	c-0.438-0.445-0.93-0.838-1.468-1.166c-0.001-0.002-0.003-0.002-0.004-0.002c-0.272-0.166-0.555-0.316-0.849-0.445h0.001
	c-0.897-0.397-1.883-0.617-2.92-0.617s-2.024,0.221-2.92,0.617l0,0c-0.293,0.129-0.577,0.279-0.849,0.445c0,0-0.002,0-0.003,0.002
	c-0.539,0.328-1.031,0.721-1.469,1.166c-0.02,0.02-0.038,0.043-0.057,0.062c-0.163,0.17-0.314,0.35-0.459,0.533
	c-0.078,0.1-0.154,0.199-0.226,0.303c-0.065,0.09-0.122,0.182-0.184,0.273c-0.189,0.299-0.352,0.613-0.495,0.938H1.332V1.301z
	 M3.111,14.701C4.127,13.055,5.953,11.949,8,11.949s3.872,1.105,4.889,2.752H3.111z"/>
<path fill="#FFFFFF" d="M6.305,8.299c0.494,0.367,1.077,0.56,1.689,0.56c0.143,0,0.282-0.01,0.423-0.031
	c0.752-0.111,1.415-0.51,1.869-1.121c0.453-0.611,0.642-1.361,0.529-2.111c-0.09-0.607-0.367-1.16-0.803-1.596
	C9.58,3.566,9.029,3.287,8.418,3.197c-0.276-0.043-0.561-0.043-0.834,0C6.832,3.309,6.169,3.705,5.715,4.316
	C5.261,4.928,5.072,5.678,5.185,6.43C5.295,7.182,5.693,7.846,6.305,8.299z M6.739,5.076c0.25-0.336,0.616-0.557,1.03-0.617
	C7.846,4.447,7.924,4.443,8,4.443c0.078,0,0.154,0.004,0.231,0.016C8.92,4.561,9.452,5.092,9.555,5.781
	c0.061,0.414-0.043,0.828-0.294,1.166C9.011,7.285,8.645,7.506,8.23,7.566C7.814,7.629,7.4,7.523,7.064,7.273
	C6.728,7.025,6.508,6.658,6.446,6.242C6.385,5.828,6.488,5.414,6.739,5.076z"/>
</svg>
