<?xml version="1.0" encoding="utf-8"?>
<!-- Generator: Adobe Illustrator 22.0.1, SVG Export Plug-In . SVG Version: 6.00 Build 0)  -->
<svg version="1.1" id="Layer_1" xmlns="http://www.w3.org/2000/svg" xmlns:xlink="http://www.w3.org/1999/xlink" x="0px" y="0px"
	 viewBox="0 0 11.993 11.993" enable-background="new 0 0 11.993 11.993" xml:space="preserve">
<path fill="#F04C23" d="M7.854,5.996L11.92,1.93c0.098-0.098,0.098-0.256,0-0.354l-1.502-1.503C10.371,0.026,10.306,0,10.241,0
	s-0.13,0.026-0.177,0.073L5.998,4.139L1.931,0.073c-0.094-0.094-0.26-0.094-0.354,0L0.074,1.576c-0.098,0.098-0.098,0.256,0,0.354
	l4.067,4.066l-4.067,4.066c-0.098,0.098-0.098,0.256,0,0.354l1.503,1.503c0.047,0.047,0.11,0.073,0.177,0.073
	s0.13-0.026,0.177-0.073l4.067-4.066l4.066,4.066c0.047,0.047,0.11,0.074,0.177,0.074c0.065,0,0.13-0.027,0.177-0.074l1.502-1.502
	c0.098-0.098,0.098-0.257,0-0.354L7.854,5.996z"/>
</svg>
