<?xml version="1.0" encoding="UTF-8"?>
<svg width="71px" height="63px" viewBox="0 0 71 63" version="1.1" xmlns="http://www.w3.org/2000/svg" xmlns:xlink="http://www.w3.org/1999/xlink">
    <!-- Generator: Sketch 45 (43475) - http://www.bohemiancoding.com/sketch -->
    <title>cloud upload.3.3.1</title>
    <desc>Created with Sketch.</desc>
    <defs></defs>
    <g id="Page-1" stroke="none" stroke-width="1" fill="none" fill-rule="evenodd">
        <g id="Desktop-Landscape" transform="translate(-610.000000, -410.000000)" fill-rule="nonzero" fill="#5D9CE0">
            <g id="cloud-upload.3.3.1" transform="translate(610.000000, 410.000000)">
                <g id="Outline_Icons_1_" transform="translate(0.459016, 0.837766)">
                    <g id="Outline_Icons">
                        <g id="cloud" transform="translate(-0.000000, 0.000000)">
                            <path d="M54.1713023,11.6217273 C50.396543,4.54562302 43.0548669,0 34.8871415,0 C23.9038298,0 14.7549938,8.15332343 13.225266,18.8615928 C6.17432618,18.4564958 -4.26325641e-14,24.0921985 -4.26325641e-14,31.4446343 C-4.26325641e-14,36.98718 2.57963053,40.654543 6.76855261,42.5977944 C9.15850952,43.7065014 11.5297964,44.0649686 13.2631292,44.0517884 L21.8897431,44.0517585 C22.8412313,44.0517585 23.6125649,43.2763221 23.6125649,42.3197728 C23.6125649,41.3632235 22.8412313,40.587787 21.8897431,40.587787 L13.2579752,40.587787 C12.9046938,40.5904434 12.3344288,40.5558619 11.6124142,40.446715 C10.4420185,40.2697864 9.28000772,39.9478788 8.21224438,39.4525407 C5.1916956,38.0513006 3.44564361,35.5690046 3.44564361,31.4446343 C3.44564361,25.6413558 8.7484398,21.3140707 14.4065895,22.504219 C15.4363016,22.720811 16.416987,21.9671525 16.4792191,20.9113992 C17.0554823,11.135232 25.1089597,3.4639715 34.8871415,3.4639715 C42.0848539,3.4639715 48.5204423,7.65365498 51.5553655,14.0970067 C51.8501533,14.7228615 52.4874213,15.112043 53.1757666,15.0865905 C60.4019197,14.8193933 66.3286394,20.6179532 66.3286394,27.8226191 C66.3286394,32.7861694 64.2281452,36.1677799 60.6532715,38.398412 C59.3760666,39.195356 57.9956293,39.7845098 56.6145807,40.1923742 C55.794144,40.4346734 55.171007,40.5601924 54.8495277,40.6023083 L47.8483606,40.587787 C46.8968724,40.587787 46.1255388,41.3632235 46.1255388,42.3197728 C46.1255388,43.2763221 46.8968724,44.0517585 47.8483606,44.0517585 L55.0721525,44.0517585 C55.7845047,43.9730796 56.5809796,43.8126451 57.5857582,43.5159043 C59.2467351,43.0253687 60.9083233,42.3162233 62.4703421,41.3415624 C67.0075365,38.5104662 69.774283,34.0562483 69.774283,27.8226191 C69.774283,19.038385 62.8403483,11.8938711 54.1713023,11.6217273 Z" id="Shape"></path>
                            <path d="M36.4456436,29.995976 L36.4456436,59.881222 C36.4456436,60.8377714 35.67431,61.6132078 34.7228218,61.6132078 C33.7713336,61.6132078 33,60.8377714 33,59.881222 L33,30.0860816 L26.9410408,36.1772694 C26.268237,36.8536519 25.1774066,36.8536519 24.5046028,36.1772694 C23.8317991,35.5008869 23.8317991,34.4042541 24.5046028,33.7278716 L33.5494173,24.6349465 C34.2222211,23.9585639 35.3130515,23.9585639 35.9858552,24.6349465 L45.0306697,33.7278716 C45.7034735,34.4042541 45.7034735,35.5008869 45.0306697,36.1772694 C44.3578659,36.8536519 43.2670355,36.8536519 42.5942318,36.1772694 L36.4456436,29.995976 Z" id="Combined-Shape"></path>
                        </g>
                    </g>
                </g>
            </g>
        </g>
    </g>
</svg>
