<svg xmlns="http://www.w3.org/2000/svg" width="35" height="27" viewBox="0 0 35 27">
    <g fill="none" fill-rule="evenodd">
        <path d="M1-2h33.43v32H1z"/>
        <path stroke="#5D9CE0" stroke-linecap="round" stroke-linejoin="round" stroke-width="1.6" d="M22.395 20.4h6.083c2.918 0 5.283-2.264 5.283-5.057 0-2.793-2.365-5.057-5.283-5.057l-.039.002c.041-.316.07-.636.07-.963 0-4.294-3.637-7.776-8.124-7.776-3.496 0-6.467 2.118-7.613 5.083a4.096 4.096 0 0 0-2.842-1.13c-2.22 0-4.018 1.722-4.018 3.846 0 .054.007.107.009.16-2.45.649-4.252 2.792-4.252 5.344 0 3.064 2.594 5.548 5.796 5.548h5.57"/>
        <path stroke="#5D9CE0" stroke-linecap="round" stroke-width="1.6" d="M14.372 15.92l3.343-3.2 3.343 3.2M17.715 25.52V12.933"/>
    </g>
</svg>
