<?xml version="1.0" encoding="utf-8"?>
<!-- Generator: Adobe Illustrator 20.0.0, SVG Export Plug-In . SVG Version: 6.00 Build 0)  -->
<svg version="1.1" id="Layer_1" xmlns="http://www.w3.org/2000/svg" xmlns:xlink="http://www.w3.org/1999/xlink" x="0px" y="0px"
	 viewBox="0 0 415.2 90.6" style="enable-background:new 0 0 415.2 90.6;" xml:space="preserve">
<style type="text/css">
	.st0{fill:#AFADAE;}
	.st1{fill:#727273;}
	.st2{fill-rule:evenodd;clip-rule:evenodd;fill:#F04C23;}
</style>
<g>
	<g>
		<path class="st0" d="M231,58.3V38.9c0-5.2,2.7-8,7.3-8c3,0,5,1.4,5.9,2.9V19.1h2.7V66h-2.6v-2.6c-0.9,1.4-3,3-6,3
			C233.7,66.3,231,63.5,231,58.3z M244.2,58.4V38.6c0-3.3-2-5.3-5.2-5.3c-3.2,0-5.3,2-5.3,5.6v19.5c0,3.5,2,5.6,5.3,5.6
			C242.1,63.9,244.2,61.9,244.2,58.4z"/>
		<path class="st0" d="M253.1,58V39.2c0-5.1,2.9-8.4,8-8.4c5.3,0,7.9,3.2,7.9,8.8v10h-13.2v8.8c0,3.3,2.2,5.4,5.3,5.4
			c3.2,0,5.2-2.1,5.2-5v-0.3h2.7v0.3c0,4.1-2.9,7.4-7.9,7.4C256,66.3,253.1,63.1,253.1,58z M255.8,47.4h10.5v-8.2
			c0-3.9-1.9-5.9-5.2-5.9c-3.1,0-5.3,2-5.3,5.6V47.4z"/>
		<path class="st0" d="M289.7,38.6h-2.6c0-3.5-2-5.1-5-5.1c-3,0-4.8,2-4.8,4.5c0,1.4,0.7,3.2,2.1,4.8l7.7,9.2
			c2.2,2.6,2.8,4.8,2.8,7.2c0,3.6-2.4,7.2-7.7,7.2c-5.1,0-8-3-8-7.9h2.7c0,3.4,2,5.4,5.3,5.4c3.3,0,5.1-2.5,5.1-4.9
			c0-1.7-0.3-3.2-2.2-5.5l-7.7-9c-2-2.4-2.7-4.6-2.7-6.6c0-3.7,2.5-7.1,7.2-7.1C286.9,30.8,289.7,33.5,289.7,38.6z"/>
		<path class="st0" d="M297,26.9c-1,0-1.9-0.8-1.9-1.7c0-1.1,0.9-1.7,1.9-1.7c0.9,0,1.7,0.7,1.7,1.7C298.7,26.1,297.8,26.9,297,26.9
			z M295.5,66V31.3h2.7V66H295.5z"/>
		<path class="st0" d="M304.2,58.2V38.9c0-5.1,2.7-7.9,7.1-7.9c3,0,5.2,1.2,6.2,2.9v-2.6h2.6v38.6c0,5.1-2.5,8-7.9,8
			c-5.5,0-7.7-3.2-7.7-6.6h2.6c0,2.4,1.7,4.3,5.1,4.3c3.5,0,5.2-1.7,5.2-5.3v-6.9c-0.9,1.5-2.9,3-5.9,3
			C306.9,66.3,304.2,63.5,304.2,58.2z M317.4,58V39.1c0-3.8-1.9-5.9-5.2-5.9c-3.2,0-5.3,2-5.3,5.6v18.9c0,4.1,1.9,6.2,5.3,6.2
			C315.5,63.9,317.4,61.9,317.4,58z"/>
		<path class="st0" d="M340,66V38.8c0-3.5-2.2-5.6-5.3-5.6c-3.9,0-5.3,2.9-5.3,7.2V66h-2.7V31.3h2.5v2.7c1-1.6,3-3,6.1-3
			c4.6,0,7.3,2.8,7.3,8V66H340z"/>
		<path class="st0" d="M348.6,58V39.2c0-5.1,2.9-8.4,8-8.4c5.3,0,7.9,3.2,7.9,8.8v10h-13.2v8.8c0,3.3,2.2,5.4,5.3,5.4
			c3.2,0,5.2-2.1,5.2-5v-0.3h2.7v0.3c0,4.1-2.9,7.4-7.9,7.4C351.5,66.3,348.6,63.1,348.6,58z M351.3,47.4h10.5v-8.2
			c0-3.9-1.9-5.9-5.2-5.9c-3.1,0-5.3,2-5.3,5.6V47.4z"/>
		<path class="st0" d="M379.6,33.5c-4,0-6.4,2.2-6.4,5.9V66h-2.7V31.3h2.5v2.7c0.9-1.5,2.8-3,6.5-3V33.5z"/>
	</g>
</g>
<g>
	<g>
		<path class="st1" d="M116.8,39.4h-5.6c0-2.5-1.5-3.5-2.9-3.5c-1.5,0-2.8,1.1-2.8,2.7c0,1.1,0.4,2.2,1.5,3.6l7.1,8.5
			c2.5,3,3,5.4,3,8c0,4.3-3,7.7-8.7,7.7c-5.6,0-9-3.2-9-8.7h5.7c0,2.5,1.5,3.8,3.3,3.8c1.7,0,3-1.4,3-3c0-1.2-0.1-2.1-1.7-4.1
			l-7-8.5c-2.5-3.1-2.8-5.3-2.8-7.4c0-4.3,3-7.7,8.2-7.7C113.6,30.8,116.8,33.6,116.8,39.4z"/>
		<path class="st1" d="M119.4,31.6c3.1,0,4-1.1,4-5.5h4v5.2h4.3v5.1h-4.3v20.8c0,2.9,0.3,4.3,4.3,3.8v5.1c-0.6,0.1-1.6,0.1-2.5,0.1
			c-5.9,0-7.5-3.5-7.5-8.8v-21h-2.3V31.6z"/>
		<path class="st1" d="M147.2,31.3h5.7v26.2c0,5.5-3.3,8.9-8.7,8.9c-5.5,0-8.7-3.4-8.7-8.9V31.3h5.7v27c0,2.1,1.4,3,3,3
			c1.5,0,3-0.9,3-3V31.3z"/>
		<path class="st1" d="M157.6,58V39.2c0-5.9,2.7-8.3,6.8-8.3c3.2,0,4.6,2,4.9,2.5V19.1h5.7V66h-5.3v-2.2c-0.3,0.5-2,2.5-5.3,2.5
			C160.3,66.3,157.6,64,157.6,58z M169.3,56.8V40.4c0-3.2-1-4.3-3-4.3c-1.9,0-3,1.2-3,4.3v16.4c0,3.2,1.1,4.3,3,4.3
			C168.3,61.1,169.3,60,169.3,56.8z"/>
		<path class="st1" d="M183.2,28c-2,0-3.5-1.5-3.5-3.4c0-1.9,1.5-3.5,3.5-3.5c1.9,0,3.5,1.5,3.5,3.5C186.7,26.4,185.1,28,183.2,28z
			 M186,66h-5.7V31.3h5.7V66z"/>
		<path class="st1" d="M191,57.2V40c0-5.5,3.2-9.1,8.7-9.1c5.4,0,8.7,3.6,8.7,9.1v17.2c0,5.7-3.2,9.2-8.7,9.2
			C194.1,66.4,191,62.9,191,57.2z M196.7,39.2V58c0,2.4,1.4,3.2,3,3.2c1.5,0,3-0.9,3-3.2V39.2c0-2.2-1.4-3.2-3-3.2
			C198,36,196.7,37,196.7,39.2z"/>
	</g>
</g>
<g>
	<path class="st2" d="M69.9,62.6H56l-4.7,4.6h-2.4l2.2-4.6h-1.5c-3.4,0-5.7-2.7-6.2-5.9l-2.2-14.9c-0.1-0.5,0.2-0.8,0.7-0.8l9,0
		c0.5,0,0.8,0.3,0.8,0.8l1.4,9.3c0.1,0.8,0.6,1.1,1.3,1.1h17.1c0.7,0,1.1-0.3,1.3-1.1l1.4-9.3c0.1-0.5,0.4-0.7,0.8-0.8l9,0
		c0.5,0,0.7,0.3,0.7,0.8l-2.2,14.9c-0.5,3.2-2.7,5.9-6.2,5.9h-1.5l2.2,4.6h-2.4L69.9,62.6z"/>
	<path class="st2" d="M56.4,48.5l-1.1-7.4c0,0,0-0.1,0-0.1c-0.5-2.2-2.1-3.6-4.3-3.7c0,0,0,0,0,0l-1.8,0l0.6-4.7
		c0-0.3,0.5-1.5,3.8-2.5c2.5-0.7,5.8-1.2,9.4-1.2c3.5,0,6.9,0.4,9.3,1.2c3.3,1,3.8,2.2,3.8,2.5l0.6,4.7l-1.8,0c0,0,0,0,0,0
		c-2.2,0.1-3.8,1.5-4.3,3.7c0,0,0,0.1,0,0.1l-1.1,7.4H56.4z"/>
</g>
<g>
	<rect x="219.2" y="21.6" class="st0" width="2" height="47.3"/>
</g>
</svg>
