<?xml version="1.0" encoding="utf-8"?>
<!-- Generator: Adobe Illustrator 22.0.1, SVG Export Plug-In . SVG Version: 6.00 Build 0)  -->
<svg version="1.1" id="Layer_1" xmlns="http://www.w3.org/2000/svg" xmlns:xlink="http://www.w3.org/1999/xlink" x="0px" y="0px"
	 viewBox="0 0 16 17.62" enable-background="new 0 0 16 17.62" xml:space="preserve">
<path fill="#8E969F" d="M15.726,5.819L8.437,0.15c-0.257-0.2-0.616-0.2-0.874,0L0.274,5.819C0.102,5.954,0,6.161,0,6.381v8.907
	c0,1.286,1.046,2.332,2.331,2.332h11.338c1.285,0,2.331-1.046,2.331-2.332V6.381C16,6.161,15.898,5.954,15.726,5.819z
	 M14.576,15.288c0,0.501-0.407,0.908-0.907,0.908H2.331c-0.5,0-0.907-0.407-0.907-0.908v-8.56L8,1.614l6.576,5.114V15.288z"/>
<path fill="#8E969F" d="M10.43,8.098H5.57c-0.393,0-0.712,0.318-0.712,0.712v8.098c0,0.394,0.319,0.712,0.712,0.712
	c0.394,0,0.712-0.318,0.712-0.712V9.521h3.436v7.387c0,0.394,0.318,0.712,0.712,0.712c0.393,0,0.711-0.318,0.711-0.712V8.81
	C11.141,8.417,10.822,8.098,10.43,8.098z"/>
</svg>
