<?xml version="1.0" encoding="utf-8"?>
<!-- Generator: Adobe Illustrator 22.0.1, SVG Export Plug-In . SVG Version: 6.00 Build 0)  -->
<svg version="1.1" id="Layer_1" xmlns="http://www.w3.org/2000/svg" xmlns:xlink="http://www.w3.org/1999/xlink" x="0px" y="0px"
	 viewBox="0 0 16 17.62" enable-background="new 0 0 16 17.62" xml:space="preserve">
<path fill="#FFFFFF" d="M15.726,5.819l-7.289-5.67C8.18-0.05,7.82-0.05,7.563,0.149l-7.288,5.67C0.102,5.954,0,6.161,0,6.38v8.908
	c0,1.285,1.046,2.332,2.331,2.332h11.338c1.285,0,2.331-1.047,2.331-2.332V6.38C16,6.161,15.898,5.954,15.726,5.819z M14.576,15.288
	c0,0.5-0.407,0.908-0.907,0.908H2.331c-0.5,0-0.907-0.408-0.907-0.908V6.727L8,1.614l6.576,5.113V15.288z"/>
<path fill="#FFFFFF" d="M10.43,8.099H5.57c-0.393,0-0.712,0.318-0.712,0.711v8.098c0,0.395,0.319,0.713,0.712,0.713
	c0.394,0,0.712-0.318,0.712-0.713V9.521h3.436v7.387c0,0.395,0.318,0.713,0.712,0.713c0.393,0,0.711-0.318,0.711-0.713V8.809
	C11.141,8.417,10.822,8.099,10.43,8.099z"/>
</svg>
