<?xml version="1.0" encoding="utf-8"?>
<!-- Generator: Adobe Illustrator 22.0.1, SVG Export Plug-In . SVG Version: 6.00 Build 0)  -->
<svg version="1.1" id="Layer_1" xmlns="http://www.w3.org/2000/svg" xmlns:xlink="http://www.w3.org/1999/xlink" x="0px" y="0px"
	 viewBox="0 0 12.9 16" style="enable-background:new 0 0 12.9 16;" xml:space="preserve">
<style type="text/css">
	.st0{fill:#F04C23;}
</style>
<g>
	<path class="st0" d="M12.3,0H4.2H4.1l0,0c0,0,0,0-0.1,0c0,0,0,0-0.1,0l0,0l0,0l0,0L3.8,0.1l-3.7,4c0,0-0.1,0.1-0.1,0.2
		c0,0,0,0,0,0.1c0,0,0,0,0,0.1s0,0,0,0.1v11C0,15.7,0.3,16,0.6,16h11.7c0.3,0,0.6-0.3,0.6-0.6V0.6C12.9,0.3,12.6,0,12.3,0z M1.8,3.9
		l1.7-1.7v1.7H1.8z M11.7,1.2v13.7H1.2V5.1h3c0.3,0,0.6-0.3,0.6-0.6V1.2H11.7z"/>
	<path class="st0" d="M2.8,8c0,0.3,0.3,0.6,0.6,0.6h6.2c0.3,0,0.6-0.3,0.6-0.6S9.9,7.4,9.6,7.4H3.3C3,7.4,2.8,7.6,2.8,8z"/>
	<path class="st0" d="M9.6,10.1H3.3c-0.3,0-0.6,0.3-0.6,0.6s0.3,0.6,0.6,0.6h6.2c0.3,0,0.6-0.3,0.6-0.6C10.1,10.4,9.9,10.1,9.6,10.1
		z"/>
</g>
</svg>
