<?xml version="1.0" encoding="utf-8"?>
<!-- Generator: Adobe Illustrator 22.0.1, SVG Export Plug-In . SVG Version: 6.00 Build 0)  -->
<svg version="1.1" id="Layer_1" xmlns="http://www.w3.org/2000/svg" xmlns:xlink="http://www.w3.org/1999/xlink" x="0px" y="0px"
	 viewBox="0 0 12.9 16.002" enable-background="new 0 0 12.9 16.002" xml:space="preserve">
<g>
	<path fill="#A4B0BE" d="M12.316,0H4.163C4.121,0,4.065,0,4.021,0.014C4.006,0.015,3.993,0.025,3.986,0.031
		c-0.02,0.007-0.037,0.013-0.054,0.02C3.916,0.058,3.899,0.065,3.88,0.071L3.871,0.077c-0.004,0.005-0.009,0.007-0.015,0.01
		C3.849,0.091,3.839,0.096,3.834,0.102c-0.04,0.026-0.085,0.057-0.114,0.1L0.143,4.084C0.1,4.128,0.071,4.185,0.044,4.239
		C0.028,4.258,0.027,4.285,0.027,4.302C0.02,4.323,0.016,4.345,0.013,4.365S0.007,4.403,0.001,4.422L0,15.403
		c0,0.33,0.262,0.599,0.585,0.599h11.73c0.328,0,0.585-0.257,0.585-0.585V0.587C12.901,0.257,12.645,0,12.316,0z M1.847,3.896
		l1.73-1.721v1.721H1.847z M11.732,1.17v13.66H1.171V5.053h2.992c0.328,0,0.584-0.257,0.584-0.585V1.17H11.732z"/>
	<path fill="#A4B0BE" d="M2.756,7.959c0,0.328,0.257,0.585,0.585,0.585H9.56c0.329,0,0.585-0.257,0.585-0.585
		S9.888,7.374,9.56,7.374H3.341C3.014,7.374,2.756,7.631,2.756,7.959z"/>
	<path fill="#A4B0BE" d="M9.561,10.096H3.342c-0.328,0-0.585,0.257-0.585,0.584c0,0.328,0.257,0.586,0.585,0.586h6.219
		c0.329,0,0.585-0.258,0.585-0.586C10.146,10.357,9.884,10.096,9.561,10.096z"/>
</g>
</svg>
