<?xml version="1.0" encoding="utf-8"?>
<!-- Generator: Adobe Illustrator 22.0.1, SVG Export Plug-In . SVG Version: 6.00 Build 0)  -->
<svg version="1.1" id="Layer_1" xmlns="http://www.w3.org/2000/svg" xmlns:xlink="http://www.w3.org/1999/xlink" x="0px" y="0px"
	 viewBox="0 0 12.9 16" style="enable-background:new 0 0 12.9 16;" xml:space="preserve">
<style type="text/css">
	.st0{fill:#F04C23;}
</style>
<g>
	<path class="st0" d="M12.3,0H4.2H4.1l0,0c0,0,0,0-0.1,0c0,0,0,0-0.1,0l0,0l0,0l0,0L3.8,0.1l-3.7,4c0,0-0.1,0.1-0.1,0.2
		c0,0,0,0,0,0.1c0,0,0,0,0,0.1s0,0,0,0.1v11C0,15.7,0.3,16,0.6,16h6.6l0,0c-0.1-0.3-0.1-0.5-0.1-0.8c0-0.1,0-0.2,0-0.3l0,0h-6V5.1h3
		c0.3,0,0.6-0.3,0.6-0.6V1.2h7v3.9l0,0c0.4,0.1,0.8,0.2,1.1,0.3l0,0V0.6C12.9,0.3,12.6,0,12.3,0z M3.6,2.2v1.7H1.8L3.6,2.2z"/>
	<path class="st0" d="M10.4,14.2c-0.2,0-0.5,0.1-0.6,0.3s-0.3,0.4-0.3,0.6c0,0.2,0.1,0.4,0.3,0.6s0.4,0.3,0.6,0.3
		c0.2,0,0.5-0.1,0.6-0.3s0.3-0.4,0.3-0.6c0-0.2-0.1-0.4-0.3-0.6S10.7,14.2,10.4,14.2z"/>
	<path class="st0" d="M12.2,8.1c-0.4-0.4-1-0.6-1.7-0.6S9.2,7.7,8.8,8.1S8,9.1,7.9,9.8h1.4c0-0.3,0.1-0.6,0.3-0.7
		c0.2-0.2,0.4-0.3,0.7-0.3s0.5,0.1,0.7,0.3s0.3,0.4,0.3,0.7s-0.1,0.5-0.3,0.7l-0.9,0.9c-0.3,0.3-0.4,0.5-0.5,0.6
		c-0.1,0.2-0.1,0.4-0.1,0.7v0.7h1.3v-0.5c0-0.3,0.1-0.6,0.2-0.7c0.1-0.1,0.1-0.1,0.2-0.2c0.1-0.1,0.2-0.2,0.3-0.3s0.2-0.2,0.3-0.3
		s0.2-0.2,0.3-0.4c0.3-0.3,0.4-0.7,0.4-1.2C12.9,9,12.7,8.5,12.2,8.1z"/>
</g>
</svg>
