<?xml version="1.0" encoding="utf-8"?>
<!-- Generator: Adobe Illustrator 22.0.1, SVG Export Plug-In . SVG Version: 6.00 Build 0)  -->
<svg version="1.1" id="Layer_1" xmlns="http://www.w3.org/2000/svg" xmlns:xlink="http://www.w3.org/1999/xlink" x="0px" y="0px"
	 viewBox="0 0 12.901 16.002" enable-background="new 0 0 12.901 16.002" xml:space="preserve">
<path fill="#A4B0BE" d="M12.315,0H4.162C4.12,0,4.064,0,4.02,0.014C4.005,0.016,3.992,0.025,3.985,0.031
	c-0.02,0.007-0.037,0.013-0.054,0.02C3.915,0.058,3.899,0.065,3.88,0.071L3.871,0.077c-0.004,0.004-0.009,0.007-0.015,0.01
	C3.849,0.091,3.839,0.096,3.834,0.102c-0.04,0.026-0.085,0.057-0.114,0.1L0.143,4.084C0.099,4.128,0.07,4.187,0.044,4.239
	C0.028,4.258,0.027,4.285,0.027,4.302C0.02,4.323,0.016,4.345,0.013,4.365S0.007,4.403,0.001,4.422L0,15.403
	c0,0.33,0.262,0.599,0.585,0.599h6.629l-0.006-0.026c-0.06-0.265-0.091-0.529-0.091-0.788c0-0.104,0.006-0.213,0.017-0.332
	l0.002-0.023H1.171V5.056h2.992c0.328,0,0.584-0.257,0.584-0.585V1.173h6.984v3.934l0.018,0.003c0.382,0.064,0.76,0.175,1.122,0.328
	l0.03,0.013V0.589C12.9,0.257,12.643,0,12.315,0z M3.576,2.176v1.721h-1.73L3.576,2.176z"/>
<path fill="#A4B0BE" d="M10.42,14.249c-0.248,0-0.46,0.086-0.637,0.259s-0.265,0.379-0.265,0.619c0,0.239,0.09,0.444,0.271,0.613
	s0.396,0.253,0.643,0.253c0.248,0,0.46-0.086,0.637-0.259s0.265-0.38,0.265-0.619c0-0.24-0.09-0.444-0.271-0.613
	S10.668,14.249,10.42,14.249z"/>
<path fill="#A4B0BE" d="M12.218,8.089c-0.44-0.381-1.01-0.572-1.709-0.572s-1.283,0.199-1.75,0.596S8.018,9.058,7.94,9.758h1.426
	c0.031-0.307,0.147-0.552,0.348-0.737c0.2-0.184,0.449-0.276,0.749-0.276c0.298,0,0.542,0.097,0.731,0.289
	c0.188,0.192,0.283,0.434,0.283,0.725s-0.09,0.534-0.271,0.73l-0.86,0.861c-0.252,0.251-0.415,0.454-0.49,0.606
	c-0.075,0.154-0.112,0.388-0.112,0.702v0.719h1.333v-0.53c0-0.314,0.071-0.559,0.212-0.73c0.055-0.063,0.127-0.14,0.218-0.23
	c0.09-0.09,0.2-0.196,0.33-0.318c0.129-0.122,0.233-0.222,0.313-0.3c0.078-0.079,0.192-0.213,0.342-0.401
	c0.259-0.314,0.389-0.707,0.389-1.179C12.878,9.002,12.659,8.47,12.218,8.089z"/>
</svg>
