<?xml version="1.0" encoding="utf-8"?>
<!-- Generator: Adobe Illustrator 22.0.1, SVG Export Plug-In . SVG Version: 6.00 Build 0)  -->
<svg version="1.1" id="Layer_1" xmlns="http://www.w3.org/2000/svg" xmlns:xlink="http://www.w3.org/1999/xlink" x="0px" y="0px"
	 viewBox="0 0 16.017 16" enable-background="new 0 0 16.017 16" xml:space="preserve">
<path fill="#F04C23" d="M3.888,16c-0.361,0-0.656-0.294-0.656-0.655v-2.471H0.656C0.294,12.874,0,12.579,0,12.218V0.656
	C0,0.294,0.294,0,0.656,0h11.577c0.361,0,0.656,0.294,0.656,0.656v5.461l2.932,2.932c0.019,0.02,0.032,0.033,0.044,0.048
	c0.101,0.122,0.152,0.266,0.152,0.418l-0.001,5.83c0,0.361-0.294,0.655-0.656,0.655H3.888L3.888,16z M4.544,14.688h10.161V10.17
	H9.628c-0.361,0-0.656-0.294-0.656-0.656V4.438H4.543L4.544,14.688L4.544,14.688z M1.312,11.563h1.92V3.784
	c0-0.362,0.294-0.656,0.656-0.656h5.74C9.654,3.129,9.669,3.13,9.684,3.131c0.035,0.003,0.054,0.006,0.072,0.01l0.057,0.015
	c0,0,0.045,0.015,0.056,0.019L9.89,3.183c0.017,0.008,0.033,0.015,0.049,0.024c0.027,0.016,0.039,0.021,0.05,0.029l0.048,0.036
	c0.028,0.021,0.042,0.035,0.056,0.048l1.487,1.487V1.313H1.313L1.312,11.563L1.312,11.563z M10.284,8.859h3.494l-3.494-3.494V8.859z
	"/>
</svg>
