<svg xmlns="http://www.w3.org/2000/svg" width="280" height="245" viewBox="0 0 280 245">
    <g fill="none" fill-rule="evenodd">
        <path fill="#FBFBFB" d="M261.783 110.768c62.77 30.367-58.988 160.206-103.464 129.139-34.54-24.126-28.14-72.064-45.25-80.082-27.515-12.896-41.672 55.58-84.34 32.936-42.667-22.644 42.43-149.059 95.4-135.788 52.968 13.271 22.157 89.173 34.913 96.742 16.604 9.85 62.381-62.473 102.741-42.947zM7.648 209.666c9 4.323 18.799-15.088 9.752-17.356-9.048-2.268-18.751 13.032-9.752 17.356z"/>
        <path stroke="#CDD5DC" stroke-linecap="round" stroke-width="2.1" d="M232.347 174.17c1.987.843 24.809 7.061 30.379-15.636"/>
        <path stroke="#CDD5DC" stroke-linecap="round" stroke-width="2.52" d="M271.388 156c-4.508 4-8.513 4-12.014 0M26.09 156c-4.509 4-8.514 4-12.016 0"/>
        <path stroke="#CDD5DC" stroke-linecap="round" stroke-width="2.1" d="M53.842 174.17c-1.987.843-24.809 7.061-30.379-15.636"/>
        <path fill="#FFF" fill-rule="nonzero" stroke="#CDD5DC" stroke-width="2.1" d="M173.253 209.268h-63.959L87.67 230.409H76.625l10.124-21.141h-6.903c-15.645 0-26.227-12.408-28.529-27.113l-10.121-68.477c-.462-2.297.92-3.678 3.221-3.678h41.411c2.3 0 3.681 1.381 3.681 3.678l6.442 42.74c.46 3.676 2.761 5.055 5.982 5.055h78.682c3.222 0 5.062-1.379 5.982-5.055l6.442-42.74c.46-2.297 1.84-3.217 3.682-3.678h41.411c2.302 0 3.221 1.381 3.221 3.678l-10.122 68.477c-2.3 14.705-12.423 27.113-28.528 27.113h-6.901l10.12 21.141H194.88l-21.626-21.141z"/>
        <g fill-rule="nonzero" stroke="#CCD5DC" stroke-linecap="square">
            <path stroke-width="2.1" d="M1.37 230.05h277.09M51.96 219.143v10.295"/>
            <path stroke-width="1.68" d="M47.647 225.887l2.254 3.588"/>
            <path stroke-width="2.1" d="M58.41 223.88l-2.098 6.05"/>
            <g stroke-width="2.1">
                <path d="M255.209 219.143v10.295M250.895 225.887l2.254 3.588M265.663 223.88l-2.098 6.05"/>
            </g>
        </g>
        <path fill="#FFF" fill-rule="nonzero" stroke="#CDD5DC" stroke-width="2.1" d="M111.282 145.075l-5.061-34.008v-.461c-2.302-10.109-9.663-16.543-19.786-17.002h-8.282l2.761-21.601c0-1.378 2.3-6.894 17.485-11.488C109.901 57.297 125.086 55 141.651 55c16.105 0 31.749 1.838 42.792 5.515 15.184 4.595 17.486 10.11 17.486 11.488l2.759 21.601h-8.281c-10.123.459-17.485 6.893-19.785 17.002v.461l-5.063 34.008h-60.277z"/>
        <g stroke="#F04C23" stroke-linecap="round" stroke-width="2.1">
            <path d="M151.242 30.138L141.679 39l-9.563-8.862M141.679 1.554V36.41"/>
        </g>
        <g fill-rule="nonzero">
            <path stroke="#F56A48" stroke-linecap="round" stroke-width="2.52" d="M118.201 91c4.509-4 8.513-4 12.015 0M152.243 91c4.508-4 8.513-4 12.015 0"/>
            <path fill="#F56A48" d="M140.729 100c2.59 0 7.51.76 7.51 4.759 0 4-3.824 7.241-7.51 7.241s-7.51-3.242-7.51-7.241c0-4 4.92-4.759 7.51-4.759z"/>
        </g>
    </g>
</svg>
