<?xml version="1.0" encoding="utf-8"?>
<!-- Generator: Adobe Illustrator 22.0.1, SVG Export Plug-In . SVG Version: 6.00 Build 0)  -->
<svg version="1.1" id="Layer_1" xmlns="http://www.w3.org/2000/svg" xmlns:xlink="http://www.w3.org/1999/xlink" x="0px" y="0px"
	 viewBox="0 0 16 15.938" enable-background="new 0 0 16 15.938" xml:space="preserve">
<path fill="#8E969F" d="M1.084,15.938c-0.304,0-0.555-0.102-0.769-0.314C0.104,15.41,0,15.158,0,14.854V1.084
	c0-0.301,0.106-0.561,0.315-0.77C0.529,0.104,0.78,0,1.084,0h8.137c0.32,0,0.679,0.082,1.066,0.244
	c0.389,0.16,0.699,0.356,0.922,0.58l3.967,3.967c0.225,0.223,0.42,0.533,0.581,0.922C15.919,6.102,16.001,6.461,16,6.779v8.074
	c0,0.305-0.103,0.557-0.315,0.769c-0.213,0.213-0.464,0.314-0.768,0.314H1.084V15.938z M1.355,14.584h13.292V7.863H9.221
	c-0.304,0-0.556-0.103-0.768-0.316C8.24,7.334,8.137,7.084,8.137,6.779V1.354H1.355V14.584z M9.491,6.508H14.6l-0.062-0.18
	c-0.092-0.268-0.194-0.455-0.312-0.574l-3.979-3.978c-0.118-0.117-0.311-0.223-0.573-0.312L9.491,1.4V6.508z"/>
</svg>
