<?xml version="1.0" encoding="utf-8"?>
<!-- Generator: Adobe Illustrator 22.0.1, SVG Export Plug-In . SVG Version: 6.00 Build 0)  -->
<svg version="1.1" id="Layer_1" xmlns="http://www.w3.org/2000/svg" xmlns:xlink="http://www.w3.org/1999/xlink" x="0px" y="0px"
	 viewBox="0 0 17.31 15.954" enable-background="new 0 0 17.31 15.954" xml:space="preserve">
<path fill="#F04C23" d="M17.26,0.301C17.174,0.117,16.989,0,16.785,0H0.525C0.323,0,0.137,0.117,0.05,0.301
	c-0.086,0.184-0.059,0.4,0.07,0.558L6.37,8.44v6.99c0,0.182,0.094,0.35,0.248,0.445c0.084,0.053,0.181,0.079,0.277,0.079
	c0.079,0,0.159-0.018,0.232-0.055l3.512-1.74c0.179-0.089,0.291-0.271,0.291-0.47l0.008-5.25l6.25-7.581
	C17.319,0.702,17.347,0.485,17.26,0.301L17.26,0.301z M10.01,7.917C9.933,8.011,9.891,8.129,9.891,8.25l-0.007,5.113L7.42,14.584
	V8.251c0-0.122-0.041-0.24-0.119-0.334L1.639,1.049h14.034L10.01,7.917z"/>
</svg>
