<?xml version="1.0" encoding="UTF-8"?>
<svg width="24px" height="21px" viewBox="0 0 24 21" version="1.1" xmlns="http://www.w3.org/2000/svg" xmlns:xlink="http://www.w3.org/1999/xlink">
    <!-- Generator: Sketch 51.2 (57519) - http://www.bohemiancoding.com/sketch -->
    <title>icon/28/folder</title>
    <desc>Created with Sketch.</desc>
    <defs>
        <path d="M23.7334282,8.84632843 C23.4463302,8.44152036 22.9630487,8.21088503 22.4070358,8.21088503 L20.2920811,8.21088503 L20.2920811,5.91027369 C20.2920811,5.0240981 19.5705083,4.30252533 18.6843327,4.30252533 L11.2685934,4.30252533 C10.9537427,4.30252533 10.4608913,4.05179314 10.2752346,3.79818998 L9.72017862,3.03929448 C9.28761776,2.44691576 8.40718413,2 7.67412744,2 L5.10460104,2 C4.29689889,2 3.48536876,2.57419584 3.21549672,3.33596233 L3.038453,3.83551271 C2.9551946,4.07093301 2.62790297,4.30252533 2.37812778,4.30252533 L1.60774836,4.30252533 C0.721572776,4.30252533 0,5.0240981 0,5.91027369 L0,20.4297726 C0,20.506332 0.0143548961,20.5800205 0.0382797228,20.648924 C0.0516776258,20.9369789 0.140677981,21.2068509 0.303366804,21.4365293 C0.590464725,21.8413373 1.07374623,22.0729297 1.62880221,22.0729297 L18.0096526,22.0729297 C19.0001404,22.0729297 20.031779,21.339873 20.3590706,20.4058477 L23.894203,10.3086138 C24.0789027,9.78418164 24.0195691,9.2511365 23.7334282,8.84632843 Z M1.60774836,5.60594989 L2.37812778,5.60594989 C3.18582993,5.60594989 3.99831705,5.03079706 4.2672321,4.26998756 L4.44331883,3.77043718 C4.52657723,3.53501689 4.85386886,3.30438156 5.10364405,3.30438156 L7.67317044,3.30438156 C7.98897816,3.30438156 8.4808726,3.55415675 8.66748625,3.8087169 L9.22254223,4.56761241 C9.65510309,5.15999112 10.5345797,5.60690689 11.2685934,5.60690689 L18.6843327,5.60690689 C18.8489355,5.60690689 18.9886565,5.74567088 18.9886565,5.91027369 L18.9886565,8.21088503 L6.02714236,8.21088503 C5.03665453,8.21088503 4.005016,8.94298473 3.67772437,9.87700997 L1.30438156,16.6553919 L1.30438156,5.9093167 C1.30438156,5.74471389 1.44314555,5.60594989 1.60774836,5.60594989 Z M22.6644669,9.87700997 L19.1293345,19.9742439 C18.9848285,20.3905358 18.4508264,20.7685481 18.0106096,20.7685481 L1.6297592,20.7685481 C1.50439311,20.7685481 1.40582282,20.7360103 1.3675431,20.6814617 C1.32830638,20.6269131 1.33022037,20.5235579 1.37232806,20.4048907 L4.90746047,10.3076569 C5.05292342,9.89136486 5.58596856,9.5133526 6.02618537,9.5133526 L22.4060788,9.5133526 C22.5324019,9.5133526 22.6300152,9.54589037 22.6692519,9.60043897 C22.7075316,9.65498758 22.7065746,9.75834283 22.6644669,9.87700997 Z" id="path-1"></path>
    </defs>
    <g id="Version-G---approved" stroke="none" stroke-width="1" fill="none" fill-rule="evenodd">
        <g id="Items-Img&amp;F-G-empty" transform="translate(-264.000000, -186.000000)">
            <g id="Stacked-Group" transform="translate(231.000000, 138.000000)">
                <g id="Group-22">
                    <g id="Stacked-Group" transform="translate(22.000000, 40.000000)">
                        <g id="Group-9">
                            <g id="icon/24/folder/opened" transform="translate(11.000000, 6.000000)">
                                <mask id="mask-2" fill="white">
                                    <use xlink:href="#path-1"></use>
                                </mask>
                                <use id="Shape" fill="#A4B0BE" fill-rule="nonzero" xlink:href="#path-1"></use>
                                <g id="color/secondary/white" mask="url(#mask-2)" fill="#FFFFFF" fill-rule="nonzero">
                                    <rect id="Rectangle-8" x="0" y="0" width="24" height="24"></rect>
                                </g>
                            </g>
                        </g>
                    </g>
                </g>
            </g>
        </g>
    </g>
</svg>