<?xml version="1.0" encoding="UTF-8"?>
<svg width="89px" height="29px" viewBox="0 0 89 29" version="1.1" xmlns="http://www.w3.org/2000/svg" xmlns:xlink="http://www.w3.org/1999/xlink">
    <!-- Generator: Sketch 48 (47235) - http://www.bohemiancoding.com/sketch -->
    <title>Group 2</title>
    <desc>Created with Sketch.</desc>
    <defs>
        <polygon id="path-1" points="88.7235765 28.9873643 88.7235765 0.374203571 0.294694706 0.374203571 0.294694706 28.9873643"></polygon>
    </defs>
    <g id="Cell-C---4-lineup---carrots-&amp;-underline-copy" stroke="none" stroke-width="1" fill="none" fill-rule="evenodd" transform="translate(-650.000000, -1418.000000)">
        <g id="Page-1" transform="translate(561.000000, 1418.000000)">
            <g id="Group-2" transform="translate(89.000000, 0.000000)">
                <path d="M38.4853344,7 C38.3504106,7 38.2358232,7.09385407 38.1415722,7.28156222 C38.0473211,7.46866485 38,7.70602483 38,7.99243112 C38,8.29034211 38.0496676,8.53254617 38.1490027,8.7196488 C38.248729,8.90614593 38.3703559,9 38.5146656,9 C38.6495894,9 38.7641768,8.90554042 38.8588189,8.71722676 C38.95307,8.52891311 39,8.29276415 39,8.00756888 C39,7.70844687 38.9503324,7.4656373 38.8517794,7.27914018 C38.7528354,7.09324856 38.6304263,7 38.4853344,7" id="Fill-4" fill="#58585B"></path>
                <path d="M42.2065057,7 C42.1562346,7 42.0877279,7.00678593 42,7.019124 C42.0113356,7.31153609 42.0177427,7.61628624 42.0177427,7.93460827 C42.0177427,8.28315854 42.023657,8.62924121 42.0349926,8.97100555 C42.1108921,8.99074645 42.1867915,9 42.2621981,9 C42.5130606,9 42.6988664,8.9025293 42.8191227,8.70820481 C42.9398719,8.51326342 43,8.2751388 43,7.99506477 C43,7.71499075 42.9349433,7.47933374 42.8043371,7.28747687 C42.6737309,7.09561999 42.474618,7 42.2065057,7" id="Fill-6" fill="#58585B"></path>
                <path d="M48.3454545,7 C48.2363636,7 48.1214286,7.01139962 48,7.03419886 C48.0168831,7.31665611 48.0253247,7.6371121 48.0253247,7.9949335 C48.0636364,7.99810006 48.1084416,8 48.1590909,8 C48.7194805,8 49,7.82710576 49,7.48068398 C49,7.16022799 48.7818182,7 48.3454545,7" id="Fill-8" fill="#58585B"></path>
                <path d="M46.4860681,7 C46.4860681,7.04648813 46.3243034,7.37998989 46,8 L47,8 C46.6865325,7.38352703 46.5301858,7.05053057 46.5301858,7 L46.4860681,7 Z" id="Fill-10" fill="#58585B"></path>
                <path d="M28.4864446,7 C28.4864446,7.04648813 28.3245546,7.37998989 28,8 L29,8 C28.6870643,7.38352703 28.5305964,7.05053057 28.5305964,7 L28.4864446,7 Z" id="Fill-12" fill="#58585B"></path>
                <path d="M36.3934536,7 C36.245157,7 36.1142285,7.01141706 36,7.03357958 C36.0180361,7.27938214 36.0260521,7.60040296 36.0260521,7.99529886 C36.1128925,7.99865682 36.1863727,8 36.246493,8 C36.748831,8 37,7.82538617 37,7.47347213 C37,7.15782404 36.7975952,7 36.3934536,7" id="Fill-14" fill="#58585B"></path>
                <path d="M33.2065057,7 C33.1562346,7 33.0877279,7.00678593 33,7.019124 C33.0113356,7.31153609 33.0172499,7.61628624 33.0172499,7.93460827 C33.0172499,8.28315854 33.023657,8.62924121 33.0349926,8.97100555 C33.1108921,8.99074645 33.1867915,9 33.2621981,9 C33.5130606,9 33.6983736,8.9025293 33.8191227,8.70820481 C33.9398719,8.51326342 34,8.2751388 34,7.99506477 C34,7.71499075 33.9349433,7.47933374 33.8043371,7.28747687 C33.6737309,7.09561999 33.474618,7 33.2065057,7" id="Fill-16" fill="#58585B"></path>
                <path d="M53.4857255,7 C53.3504106,7 53.2358232,7.09385407 53.1415722,7.28156222 C53.0473211,7.46866485 53,7.70602483 53,7.99243112 C53,8.29034211 53.0500587,8.53254617 53.1493938,8.7196488 C53.248729,8.90614593 53.3703559,9 53.5146656,9 C53.6499804,9 53.7645679,8.90554042 53.8588189,8.71722676 C53.95307,8.52891311 54,8.29276415 54,8.00756888 C54,7.70844687 53.9507235,7.4656373 53.8521705,7.27914018 C53.7532264,7.09324856 53.6308174,7 53.4857255,7" id="Fill-18" fill="#58585B"></path>
                <path d="M50.3454545,7 C50.2363636,7 50.1207792,7.01139962 50,7.03419886 C50.0168831,7.31665611 50.0253247,7.6371121 50.0253247,7.9949335 C50.0636364,7.99810006 50.1084416,8 50.1590909,8 C50.7194805,8 51,7.82710576 51,7.48068398 C51,7.16022799 50.7818182,7 50.3454545,7" id="Fill-20" fill="#58585B"></path>
                <path d="M46,15 C45.4580153,15 44.9890949,15.1823783 44.5937841,15.5476278 C44.1973828,15.9138632 44,16.3974122 44,17.0002465 C44,17.6025878 44.1973828,18.0866297 44.5937841,18.4518792 C44.9890949,18.8171288 45.4580153,19 46,19 C46.5414395,19 47.0103599,18.8171288 47.4062159,18.4518792 C47.802072,18.0866297 48,17.6025878 48,17.0002465 C48,16.3974122 47.802072,15.9138632 47.4062159,15.5476278 C47.0103599,15.1823783 46.5414395,15 46,15" id="Fill-22" fill="#58585B"></path>
                <path d="M39,15 C38.4580153,15 37.9890949,15.1823783 37.5937841,15.5476278 C37.1973828,15.9138632 37,16.3974122 37,17.0002465 C37,17.6025878 37.1973828,18.0866297 37.5937841,18.4518792 C37.9890949,18.8171288 38.4580153,19 39,19 C39.5414395,19 40.0103599,18.8171288 40.4062159,18.4518792 C40.802072,18.0866297 41,17.6025878 41,17.0002465 C41,16.3974122 40.802072,15.9138632 40.4062159,15.5476278 C40.0103599,15.1823783 39.5414395,15 39,15" id="Fill-24" fill="#58585B"></path>
                <path d="M69.638051,13 L68,13 L68,16 L69.638051,16 C70.0491879,16 70.3791183,15.8440063 70.6273782,15.5320188 C70.8756381,15.2200314 71,14.8761124 71,14.4997383 C71,14.1238876 70.8756381,13.7799686 70.6273782,13.4685046 C70.3791183,13.1559937 70.0491879,13 69.638051,13" id="Fill-26" fill="#58585B"></path>
                <path d="M76.4046053,18.331007 C76.1345222,18.552343 76,18.8110668 76,19.108674 C76,19.3823529 76.1225762,19.5997009 76.3692867,19.7597208 C76.6144391,19.9197408 76.8964681,20 77.2143352,20 C77.6667244,20 78.0775623,19.8374875 78.446849,19.5139581 C78.8161357,19.1904287 79,18.8075773 79,18.3654038 C78.6904432,18.1216351 78.2266274,18 77.6069945,18 C77.0751385,18 76.6746884,18.110668 76.4046053,18.331007" id="Fill-28" fill="#58585B"></path>
                <path d="M60.4785747,15 C60.1196437,15 59.8081708,15.0902033 59.544156,15.2709797 C59.2796805,15.4521257 59.0986024,15.6950092 59,16 L62,16 C61.9788051,15.7626617 61.8428813,15.5367837 61.5931501,15.3219963 C61.3429581,15.1072089 60.9711258,15 60.4785747,15" id="Fill-30" fill="#58585B"></path>
                <path d="M52,15 C51.4524609,15 50.9826622,15.1823783 50.5900447,15.5476278 C50.1963087,15.9138632 50,16.3974122 50,17.0002465 C50,17.6025878 50.1963087,18.0866297 50.5900447,18.4518792 C50.9826622,18.8171288 51.4524609,19 52,19 C52.5553691,19 53.0279642,18.8191004 53.4166667,18.4577942 C53.8059284,18.0959951 54,17.6099815 54,17.0002465 C54,16.3895256 53.8059284,15.9040049 53.4166667,15.5426987 C53.0279642,15.1804067 52.5553691,15 52,15" id="Fill-32" fill="#58585B"></path>
                <g id="Group-36">
                    <mask id="mask-2" fill="white">
                        <use xlink:href="#path-1"></use>
                    </mask>
                    <g id="Clip-35"></g>
                    <path d="M82.4144712,22.6436143 L81.2742241,22.6436143 L82.64273,19.7115071 L80.2182653,14.2620964 L81.4181947,14.2620964 L83.1704476,18.4417214 L83.19453,18.4417214 L84.8986182,14.2620964 L86.0985476,14.2620964 L82.4144712,22.6436143 Z M80.0135653,20.0797036 L78.9570829,20.0797036 L78.9570829,19.2723643 L78.9099653,19.2723643 C78.4696771,19.936775 77.8252124,20.2697571 76.9770947,20.2697571 C76.3530476,20.2697571 75.8310888,20.0910964 75.4112182,19.7353286 C74.9908241,19.3790429 74.7808888,18.9083107 74.7808888,18.3226143 C74.7808888,17.6897929 75.0290418,17.1931679 75.5253476,16.8327393 C76.02113,16.4728286 76.6331359,16.2926143 77.3613653,16.2926143 C78.0094947,16.2926143 78.5419241,16.4112036 78.9570829,16.6489 L78.9570829,16.4826679 C78.9570829,16.0549179 78.8094476,15.7126143 78.5136535,15.4557571 C78.2173359,15.1983821 77.8534829,15.0699536 77.4215712,15.0699536 C77.1016947,15.0699536 76.8111359,15.1455607 76.5514653,15.2957393 C76.2912712,15.4459179 76.1132712,15.6515071 76.0169418,15.9125071 L75.0086241,15.485275 C75.1447418,15.137275 75.4127888,14.81465 75.8132888,14.5179179 C76.2127418,14.2206679 76.7409829,14.0725607 77.3974888,14.0725607 C78.1498006,14.0725607 78.7733241,14.2905786 79.26963,14.7255786 C79.7654124,15.1610964 80.0135653,15.7742393 80.0135653,16.5660429 L80.0135653,20.0797036 Z M73.0296829,20.0797036 L74.1332829,20.0797036 L74.1332829,11.5795964 L73.0296829,11.5795964 L73.0296829,20.0797036 Z M71.5109241,15.9187214 C70.9784947,16.3972214 70.3486888,16.6364714 69.6209829,16.6364714 L67.7964829,16.6364714 L67.7964829,20.0797036 L66.6923594,20.0797036 L66.6923594,11.5795964 L69.6209829,11.5795964 C70.3486888,11.5795964 70.9784947,11.8193643 71.5109241,12.2973464 C72.04283,12.7768821 72.3087829,13.3801857 72.3087829,14.1082929 C72.3087829,14.8364 72.04283,15.4402214 71.5109241,15.9187214 Z M63.4401947,17.3728643 L58.7954418,17.3728643 C58.8268535,17.9585607 59.0252712,18.4220429 59.3896476,18.7617571 C59.7535006,19.1019893 60.17913,19.2723643 60.6675829,19.2723643 C61.4596829,19.2723643 61.9957771,18.9399 62.2758653,18.2749714 L63.2595771,18.6789 C63.0679653,19.1299536 62.75123,19.5079893 62.3119888,19.8124893 C61.8717006,20.1169893 61.3314182,20.2697571 60.6916653,20.2697571 C59.8037594,20.2697571 59.0812888,19.9771679 58.5253006,19.3909536 C57.9693124,18.805775 57.6907947,18.0652393 57.6907947,17.1714179 C57.6907947,16.3242036 57.9609359,15.5966143 58.5012182,14.9865786 C59.0409771,14.3775786 59.7315124,14.0725607 60.5712535,14.0725607 C61.4434535,14.0725607 62.1413182,14.3537571 62.6653712,14.9156321 C63.1894241,15.4775071 63.4517124,16.2294357 63.4517124,17.1714179 L63.4401947,17.3728643 Z M57.6017947,8.51025714 L57.1431829,8.51025714 C57.1431829,8.460025 56.9730359,8.1954 56.6327418,7.71534643 C56.2756947,7.20888214 56.0730888,6.86295357 56.0233535,6.67704286 L55.9935124,6.67704286 C56.0249241,6.94581071 56.0401065,7.18765 56.0401065,7.40463214 C56.0401065,7.70706071 56.0490065,8.075775 56.0662829,8.51025714 L55.6092418,8.51025714 C55.6275653,8.13118571 55.6375124,7.71379286 55.6375124,7.25963214 C55.6375124,6.81272143 55.6275653,6.43209643 55.6092418,6.11879286 L56.1610418,6.11879286 C56.1610418,6.183525 56.3139124,6.44297143 56.6196535,6.89557857 C56.9452888,7.37718571 57.1321888,7.70343571 57.1803535,7.87484643 L57.2086241,7.87484643 C57.1787829,7.60193571 57.1641241,7.35647143 57.1641241,7.140525 C57.1641241,6.80806071 57.1552241,6.46782857 57.1379476,6.11879286 L57.6017947,6.11879286 C57.5845182,6.422775 57.5761418,6.80288214 57.5761418,7.25963214 C57.5761418,7.72000714 57.5845182,8.13688214 57.6017947,8.51025714 Z M55.9395888,20.0797036 L57.0431888,20.0797036 L57.0431888,11.5795964 L55.9395888,11.5795964 L55.9395888,20.0797036 Z M54.7354712,8.20575714 C54.5030241,8.45329286 54.2150829,8.57654286 53.8716476,8.57654286 C53.5449653,8.57654286 53.2711594,8.46313214 53.0507535,8.23579286 C52.8303476,8.00845357 52.7204065,7.72000714 52.7204065,7.36993571 C52.7204065,6.99345357 52.83663,6.68222143 53.0696006,6.43468571 C53.3025712,6.18766786 53.5899888,6.06338214 53.9334241,6.06338214 C54.2601065,6.06338214 54.5339124,6.17679286 54.7537947,6.40361429 C54.9747241,6.62991786 55.0846653,6.9194 55.0846653,7.27050714 C55.0846653,7.64647143 54.9684418,7.95822143 54.7354712,8.20575714 Z M54.8956712,19.7829714 C54.8956712,20.7798464 54.6030182,21.5374714 54.0192829,22.0563643 C53.4350241,22.5742214 52.7230241,22.8336679 51.8832829,22.8336679 C51.1869888,22.8336679 50.6189594,22.6617393 50.1786712,22.3173643 C49.7383829,21.9729893 49.4221712,21.5789 49.2305594,21.1361321 L50.2388771,20.7208107 C50.3509124,21.0367036 50.5566594,21.3023643 50.8571653,21.5157214 C51.1566241,21.7295964 51.4984888,21.836275 51.8832829,21.836275 C52.4911006,21.836275 52.9690829,21.6565786 53.31723,21.29615 C53.6653771,20.9362393 53.8391888,20.4479 53.8391888,19.8300964 L53.8391888,19.2723643 L53.7910241,19.2723643 C53.5988888,19.5571857 53.3266535,19.7948821 52.9753653,19.9844179 C52.62303,20.1744714 52.2267182,20.2697571 51.7869535,20.2697571 C51.0267888,20.2697571 50.3708065,19.973025 49.8184829,19.3790429 C49.2666829,18.7855786 48.9902594,18.0497036 48.9902594,17.1714179 C48.9902594,16.2926143 49.2666829,15.5562214 49.8184829,14.9627571 C50.3708065,14.3692929 51.0267888,14.0725607 51.7869535,14.0725607 C52.2267182,14.0725607 52.62303,14.1678464 52.9753653,14.3573821 C53.3266535,14.5474357 53.5988888,14.7846143 53.7910241,15.0699536 L53.8391888,15.0699536 L53.8391888,14.2620964 L54.8956712,14.2620964 L54.8956712,19.7829714 Z M48.0767006,7.60297143 C48.0185888,7.60297143 47.9777535,7.60193571 47.9526241,7.59934643 C47.9526241,7.82979286 47.95943,8.13325714 47.9730418,8.51025714 L47.4510829,8.51025714 C47.4673124,8.15656071 47.4751653,7.73968571 47.4751653,7.25963214 C47.4751653,6.81841786 47.4673124,6.43831071 47.4510829,6.11879286 L47.7741006,6.11879286 C47.8201712,6.11879286 47.9081241,6.11672143 48.0379594,6.11309643 C48.1677947,6.10947143 48.2808771,6.1074 48.3756359,6.1074 C48.6112241,6.1074 48.8101653,6.16022143 48.9719359,6.26534643 C49.1347535,6.37098929 49.2153771,6.53100714 49.2153771,6.7454 C49.2153771,7.03798929 49.1054359,7.25393571 48.8855535,7.39375714 C48.6661947,7.53306071 48.3960535,7.60297143 48.0767006,7.60297143 Z M47.7662476,19.3852571 C47.1976947,19.9750964 46.4741771,20.2697571 45.5941241,20.2697571 C44.7135476,20.2697571 43.99003,19.9750964 43.4220006,19.3852571 C42.8539712,18.7954179 42.5696947,18.0579893 42.5696947,17.1714179 C42.5696947,16.2848464 42.8539712,15.5469 43.4220006,14.9570607 C43.99003,14.3677393 44.7135476,14.0725607 45.5941241,14.0725607 C46.4741771,14.0725607 47.1976947,14.3677393 47.7662476,14.9570607 C48.3342771,15.5469 48.61803,16.2848464 48.61803,17.1714179 C48.61803,18.0579893 48.3342771,18.7954179 47.7662476,19.3852571 Z M41.3456829,19.3852571 C40.77713,19.9750964 40.0530888,20.2697571 39.1730359,20.2697571 C38.2929829,20.2697571 37.5689418,19.9750964 37.0009124,19.3852571 C36.4328829,18.7954179 36.1486065,18.0579893 36.1486065,17.1714179 C36.1486065,16.2848464 36.4328829,15.5469 37.0009124,14.9570607 C37.5689418,14.3677393 38.2929829,14.0725607 39.1730359,14.0725607 C40.0530888,14.0725607 40.77713,14.3677393 41.3456829,14.9570607 C41.9137124,15.5469 42.1974653,16.2848464 42.1974653,17.1714179 C42.1974653,18.0579893 41.9137124,18.7954179 41.3456829,19.3852571 Z M35.6156535,7.55688214 C35.6156535,7.87225714 35.6214124,8.18970357 35.63293,8.51025714 L35.1162065,8.51025714 C35.1324359,8.14050714 35.1402888,7.72363214 35.1402888,7.25963214 C35.1402888,6.81375714 35.1324359,6.43313214 35.1162065,6.11879286 L35.4376535,6.11879286 C35.4748241,6.11879286 35.5523065,6.11672143 35.6706241,6.11309643 C35.7884182,6.10947143 35.8978359,6.1074 35.9983535,6.1074 C36.5669065,6.1074 36.8511829,6.299525 36.8511829,6.68481071 C36.8511829,6.98931071 36.6883653,7.20215 36.3643006,7.321775 L36.3643006,7.34973929 C36.4889006,7.38391786 36.5988418,7.48023929 36.6930771,7.63870357 C36.7873124,7.79768571 36.9140065,8.08820357 37.0736829,8.51025714 L36.5239771,8.51025714 C36.3800065,8.07681071 36.2700653,7.80907857 36.19363,7.70757857 C36.1161476,7.60607857 35.9925947,7.55532857 35.8219241,7.55532857 C35.7502006,7.55532857 35.6810947,7.55584643 35.6156535,7.55688214 Z M34.6246124,19.0108464 C33.8162829,19.849775 32.7639888,20.2697571 31.4682535,20.2697571 C30.2274888,20.2697571 29.1736241,19.8445964 28.3056124,18.9932393 C27.4370771,18.1429179 27.0035947,17.087525 27.0035947,15.82965 C27.0035947,14.5712571 27.4370771,13.5169 28.3056124,12.6655429 C29.1736241,11.8152214 30.2274888,11.3900607 31.4682535,11.3900607 C32.0839241,11.3900607 32.6718476,11.5081321 33.2325476,11.7458286 C33.7922006,11.9830071 34.2403418,12.2999357 34.5764476,12.6955786 L33.8204712,13.4433643 C33.2524418,12.7711857 32.4681947,12.4340607 31.4682535,12.4340607 C30.5635947,12.4340607 29.7819653,12.7489179 29.1217947,13.3781143 C28.4616241,14.0073107 28.1312771,14.8244893 28.1312771,15.82965 C28.1312771,16.8348107 28.4616241,17.6514714 29.1217947,18.2811857 C29.7819653,18.9103821 30.5635947,19.2247214 31.4682535,19.2247214 C32.4284065,19.2247214 33.2283594,18.9083107 33.8681124,18.2749714 C34.2843182,17.8637929 34.5240947,17.2894893 34.5879653,16.5536143 L31.4682535,16.5536143 L31.4682535,15.5329179 L35.63293,15.5329179 C35.6727182,15.7545607 35.6926124,15.9679179 35.6926124,16.174025 C35.6926124,17.3609536 35.3366124,18.3070786 34.6246124,19.0108464 Z M23.5137476,16.442275 C23.3504065,16.5619 23.1703124,16.659775 22.9917888,16.75765 C21.9332124,17.3366143 20.8704476,17.9098821 19.8144888,18.4929893 C19.6715653,18.5722214 19.5867535,18.5685964 19.4689594,18.4474179 C18.7166476,17.6789179 17.95753,16.9166321 17.1947476,16.1590071 C17.0832359,16.0487036 17.0806182,15.9875964 17.1942241,15.8772929 C18.0831771,15.0109179 18.9679418,14.1393643 19.8479947,13.2647036 C19.9516535,13.1606143 20.0259947,13.1492214 20.1553065,13.2222393 C21.2013182,13.8079357 22.2525653,14.3869 23.3017182,14.9679357 C23.6257829,15.1476321 23.8781241,15.3806679 23.8922594,15.760775 C23.8802182,16.0668286 23.7346771,16.2817393 23.5137476,16.442275 Z M18.9490947,18.9632036 C15.4466829,20.8595964 11.9468888,22.7616857 8.44657118,24.6617036 C8.38898294,24.6932929 8.33505941,24.7450786 8.30521824,24.7642393 C11.0338535,22.03565 13.7640594,19.3101679 16.4858888,16.5753643 C16.6555124,16.4055071 16.7340418,16.4282929 16.8853418,16.5846857 C17.5764006,17.2967393 18.2784535,17.9989536 18.9836476,18.6985786 C19.1072006,18.8213107 19.1176712,18.8715429 18.9490947,18.9632036 Z M6.84195353,24.8605607 C6.52835941,24.6218286 6.40742412,24.301275 6.40742412,23.9201321 C6.40794765,22.3116679 6.40533,20.7037214 6.40480647,19.095775 C6.40375941,17.9590786 6.40480647,16.8223821 6.40480647,15.6851679 L6.40899471,15.6851679 C6.40899471,12.9700429 6.40951824,10.2554357 6.40742412,7.54031071 C6.40690059,7.20681071 6.47286529,6.90282857 6.71107118,6.65115 C6.80425941,6.55379286 6.87074765,6.52738214 6.98487706,6.64234643 C8.83136529,8.50611429 10.6825653,10.3657393 12.5337653,12.2258821 C13.7326476,13.4304179 14.9304829,14.6359893 16.1335535,15.8358643 C16.2503006,15.9518643 16.2607712,16.0129714 16.1366947,16.1346679 C13.1934124,19.0294893 10.2527476,21.9274179 7.31941235,24.8331143 C7.14036529,25.0102214 7.01419471,24.9915786 6.84195353,24.8605607 Z M7.99895353,6.48854286 C11.7584182,8.57188214 15.5168359,10.656775 19.2783947,12.7354536 C19.4511594,12.8312571 19.4480182,12.8845964 19.3145182,13.0140607 C18.4732065,13.832275 17.6392241,14.6572214 16.8057653,15.4832036 C16.7162418,15.572275 16.6607476,15.623025 16.5403359,15.5018464 C13.5499359,12.4848107 10.5543006,9.47191786 7.56075941,6.45850714 C7.53563,6.43313214 7.51521235,6.40361429 7.46390647,6.34142308 C7.68850059,6.3394 7.84660647,6.40413214 7.99895353,6.48854286 Z M27.5841888,7.33472143 C27.8726535,6.59884643 28.0176712,6.19336429 28.0176712,6.11879286 L28.7197241,6.11879286 C28.7197241,6.18870357 28.8506065,6.58797143 29.1123712,7.31711429 C29.3741359,8.046775 29.5055418,8.44448929 29.5055418,8.51025714 L28.9108124,8.51025714 C28.9108124,8.42998929 28.8542712,8.20057857 28.7422359,7.82357857 L27.8836476,7.82357857 C27.7674241,8.19488214 27.7093124,8.423775 27.7093124,8.51025714 L27.1496594,8.51025714 C27.1496594,8.46261429 27.2946771,8.07059643 27.5841888,7.33472143 Z M29.9070888,6.11879286 L30.4588888,6.11879286 C30.4588888,6.183525 30.6117594,6.44297143 30.9175006,6.89557857 C31.2431359,7.37718571 31.4295124,7.70343571 31.4782006,7.87484643 L31.5059476,7.87484643 C31.4761065,7.60193571 31.4614476,7.35647143 31.4614476,7.140525 C31.4614476,6.80806071 31.4525476,6.46782857 31.4352712,6.11879286 L31.9001653,6.11879286 C31.8828888,6.422775 31.8739888,6.80288214 31.8739888,7.25963214 C31.8739888,7.72000714 31.8828888,8.13688214 31.9001653,8.51025714 L31.44103,8.51025714 C31.44103,8.460025 31.2708829,8.1954 30.9300653,7.71534643 C30.5740653,7.20888214 30.3709359,6.86295357 30.3212006,6.67704286 L30.2913594,6.67704286 C30.3222476,6.94581071 30.3379535,7.18765 30.3379535,7.40463214 C30.3379535,7.70706071 30.34633,8.075775 30.3636065,8.51025714 L29.9070888,8.51025714 C29.9254124,8.13118571 29.9348359,7.71379286 29.9348359,7.25963214 C29.9348359,6.81272143 29.9254124,6.43209643 29.9070888,6.11879286 Z M32.5488182,6.11879286 L32.87393,6.11879286 C32.92733,6.11879286 33.0063829,6.11672143 33.1116124,6.11309643 C33.2163182,6.10947143 33.2854241,6.1074 33.3178829,6.1074 C33.7644535,6.1074 34.0885182,6.21770357 34.2895535,6.43831071 C34.4911124,6.65891786 34.59163,6.92354286 34.59163,7.23166786 C34.59163,7.57966786 34.4790712,7.88365 34.2539535,8.14309643 C34.0283124,8.40254286 33.7126241,8.532525 33.3063653,8.532525 C33.12313,8.532525 32.8702653,8.525275 32.5488182,8.51025714 C32.5645241,8.14050714 32.5729006,7.72363214 32.5729006,7.25963214 C32.5729006,6.81375714 32.5645241,6.43313214 32.5488182,6.11879286 Z M37.7207653,6.43468571 C37.9537359,6.18766786 38.2416771,6.06338214 38.5840653,6.06338214 C38.9112712,6.06338214 39.1850771,6.17679286 39.4054829,6.40361429 C39.6258888,6.62991786 39.7363535,6.9194 39.7363535,7.27050714 C39.7363535,7.64647143 39.6196065,7.95822143 39.3871594,8.20575714 C39.1536653,8.45329286 38.8657241,8.57654286 38.5233359,8.57654286 C38.19613,8.57654286 37.9228476,8.46313214 37.7024418,8.23579286 C37.4820359,8.00845357 37.3715712,7.72000714 37.3715712,7.36993571 C37.3715712,6.99345357 37.4883182,6.68222143 37.7207653,6.43468571 Z M40.2604065,6.11879286 L40.78603,6.11879286 C40.7698006,6.42743571 40.7614241,6.80754286 40.7614241,7.25963214 C40.7614241,7.72156071 40.7698006,8.13791786 40.78603,8.51025714 L40.2604065,8.51025714 C40.2766359,8.13118571 40.2844888,7.71379286 40.2844888,7.25963214 C40.2844888,6.81272143 40.2766359,6.43209643 40.2604065,6.11879286 Z M41.4352065,6.11879286 L41.7603182,6.11879286 C41.8131947,6.11879286 41.8927712,6.11672143 41.9980006,6.11309643 C42.1027065,6.10947143 42.1718124,6.1074 42.2037476,6.1074 C42.6508418,6.1074 42.9749065,6.21770357 43.1764653,6.43831071 C43.3775006,6.65891786 43.4780182,6.92354286 43.4780182,7.23166786 C43.4780182,7.57966786 43.3649359,7.88365 43.1398182,8.14309643 C42.9147006,8.40254286 42.5984888,8.532525 42.1927535,8.532525 C42.0095182,8.532525 41.7571771,8.525275 41.4352065,8.51025714 C41.4509124,8.14050714 41.4592888,7.72363214 41.4592888,7.25963214 C41.4592888,6.81375714 41.4509124,6.43313214 41.4352065,6.11879286 Z M45.1276594,7.33472143 C45.4166476,6.59884643 45.5611418,6.19336429 45.5611418,6.11879286 L46.2631947,6.11879286 C46.2631947,6.18870357 46.3940771,6.58797143 46.6558418,7.31711429 C46.91813,8.046775 47.0490124,8.44448929 47.0490124,8.51025714 L46.4542829,8.51025714 C46.4542829,8.42998929 46.3982653,8.20057857 46.2851829,7.82357857 L45.4276418,7.82357857 C45.3114182,8.19488214 45.2533065,8.423775 45.2533065,8.51025714 L44.6941771,8.51025714 C44.6941771,8.46261429 44.8386712,8.07059643 45.1276594,7.33472143 Z M49.6787006,6.11879286 L50.0017182,6.11879286 C50.0477888,6.11879286 50.1357418,6.11672143 50.2655771,6.11309643 C50.3954124,6.10947143 50.5079712,6.1074 50.6032535,6.1074 C50.8388418,6.1074 51.0372594,6.16022143 51.1995535,6.26534643 C51.3618476,6.37098929 51.4429947,6.53100714 51.4429947,6.7454 C51.4429947,7.03798929 51.3330535,7.25393571 51.1131712,7.39375714 C50.8932888,7.53306071 50.6236712,7.60297143 50.3043182,7.60297143 C50.2462065,7.60297143 50.2048476,7.60193571 50.1802418,7.59934643 C50.1802418,7.82979286 50.1865241,8.13325714 50.2006594,8.51025714 L49.6787006,8.51025714 C49.6944065,8.15656071 49.7027829,7.73968571 49.7027829,7.25963214 C49.7027829,6.81841786 49.6944065,6.43831071 49.6787006,6.11879286 Z M84.8153771,0.374203571 L4.20388882,0.374203571 C2.04485353,0.374203571 0.294694706,2.10591786 0.294694706,4.24104286 L0.294694706,25.1200071 C0.294694706,27.25565 2.04485353,28.9873643 4.20388882,28.9873643 L84.8153771,28.9873643 C86.9738888,28.9873643 88.7240476,27.25565 88.7240476,25.1200071 L88.7240476,4.24104286 C88.7240476,2.10591786 86.9738888,0.374203571 84.8153771,0.374203571 Z" id="Fill-34" fill="#58585B" mask="url(#mask-2)"></path>
                </g>
            </g>
        </g>
    </g>
</svg>