<svg xmlns="http://www.w3.org/2000/svg" xml:space="preserve" viewBox="0 0 36 36"><g fill="none" stroke="#EF4C24" stroke-linecap="round" stroke-miterlimit="10"><path d="M.5 12.1h2.4M3 2.1l2 1.3M3 22.1l2-1.4"/></g><g fill="none" stroke="#EF4C24" stroke-linecap="round" stroke-miterlimit="10"><path d="M35.5 12.1h-2.4M33 2.2l-2 1.3M33 22.1l-2-1.4"/></g><path fill="none" stroke="#EF4C24" stroke-miterlimit="10" stroke-width="2" d="M13.7 27.6v4.9c0 .7.5 1.2 1.2 1.2h6.3c.7 0 1.2-.5 1.2-1.2v-4.9M22.2 27.6c.4 0 1.2 0 1.2-.8 0-2.5.8-4.5 3-7.2 1.7-2 2.8-4.6 2.8-7.4C29.2 6.1 24.2 1 18 1S6.8 6.1 6.8 12.2c0 2.8 1 5.4 2.8 7.4 2.2 2.6 3 4.7 3 7.2 0 .8.8.8 1.2.8h8.4zM16.1 33.8c0 .7.5 1.2 1.2 1.2h1.3c.7 0 1.2-.5 1.2-1.2"/><path fill="none" stroke="#EF4C24" stroke-miterlimit="10" stroke-width="2.75" d="M13.7 30.7h8.6"/></svg>