<?xml version="1.0"?>
<svg width="280" height="59" xmlns="http://www.w3.org/2000/svg" xmlns:svg="http://www.w3.org/2000/svg">
 <style type="text/css">.st0{fill:#AFADAE;}
	.st1{fill:#FFFFFF;}
	.st2{fill-rule:evenodd;clip-rule:evenodd;fill:#FFFFFF;}</style>
 <g class="layer">
  <title>Layer 1</title>
  <g id="svg_1">
   <g id="svg_2">
    <path id="svg_3" d="m131.6,39.2l0,-19.4c0,-5.2 2.7,-8 7.3,-8c3,0 5,1.4 5.9,2.9l0,-14.7l2.7,0l0,46.9l-2.6,0l0,-2.6c-0.9,1.4 -3,3 -6,3c-4.6,-0.1 -7.3,-2.9 -7.3,-8.1zm13.2,0.1l0,-19.8c0,-3.3 -2,-5.3 -5.2,-5.3c-3.2,0 -5.3,2 -5.3,5.6l0,19.5c0,3.5 2,5.6 5.3,5.6c3.1,-0.1 5.2,-2.1 5.2,-5.6z" class="st0"/>
    <path id="svg_4" d="m153.7,38.9l0,-18.8c0,-5.1 2.9,-8.4 8,-8.4c5.3,0 7.9,3.2 7.9,8.8l0,10l-13.2,0l0,8.8c0,3.3 2.2,5.4 5.3,5.4c3.2,0 5.2,-2.1 5.2,-5l0,-0.3l2.7,0l0,0.3c0,4.1 -2.9,7.4 -7.9,7.4c-5.1,0.1 -8,-3.1 -8,-8.2zm2.7,-10.6l10.5,0l0,-8.2c0,-3.9 -1.9,-5.9 -5.2,-5.9c-3.1,0 -5.3,2 -5.3,5.6l0,8.5z" class="st0"/>
    <path id="svg_5" d="m190.3,19.5l-2.6,0c0,-3.5 -2,-5.1 -5,-5.1c-3,0 -4.8,2 -4.8,4.5c0,1.4 0.7,3.2 2.1,4.8l7.7,9.2c2.2,2.6 2.8,4.8 2.8,7.2c0,3.6 -2.4,7.2 -7.7,7.2c-5.1,0 -8,-3 -8,-7.9l2.7,0c0,3.4 2,5.4 5.3,5.4c3.3,0 5.1,-2.5 5.1,-4.9c0,-1.7 -0.3,-3.2 -2.2,-5.5l-7.7,-9c-2,-2.4 -2.7,-4.6 -2.7,-6.6c0,-3.7 2.5,-7.1 7.2,-7.1c5,0 7.8,2.7 7.8,7.8z" class="st0"/>
    <path id="svg_6" d="m197.6,7.8c-1,0 -1.9,-0.8 -1.9,-1.7c0,-1.1 0.9,-1.7 1.9,-1.7c0.9,0 1.7,0.7 1.7,1.7c0,0.9 -0.9,1.7 -1.7,1.7zm-1.5,39.1l0,-34.7l2.7,0l0,34.7l-2.7,0z" class="st0"/>
    <path id="svg_7" d="m204.8,39.1l0,-19.3c0,-5.1 2.7,-7.9 7.1,-7.9c3,0 5.2,1.2 6.2,2.9l0,-2.6l2.6,0l0,38.6c0,5.1 -2.5,8 -7.9,8c-5.5,0 -7.7,-3.2 -7.7,-6.6l2.6,0c0,2.4 1.7,4.3 5.1,4.3c3.5,0 5.2,-1.7 5.2,-5.3l0,-6.9c-0.9,1.5 -2.9,3 -5.9,3c-4.6,-0.1 -7.3,-2.9 -7.3,-8.2zm13.2,-0.2l0,-18.9c0,-3.8 -1.9,-5.9 -5.2,-5.9c-3.2,0 -5.3,2 -5.3,5.6l0,18.9c0,4.1 1.9,6.2 5.3,6.2c3.3,0 5.2,-2 5.2,-5.9z" class="st0"/>
    <path id="svg_8" d="m240.6,46.9l0,-27.2c0,-3.5 -2.2,-5.6 -5.3,-5.6c-3.9,0 -5.3,2.9 -5.3,7.2l0,25.6l-2.7,0l0,-34.7l2.5,0l0,2.7c1,-1.6 3,-3 6.1,-3c4.6,0 7.3,2.8 7.3,8l0,27l-2.6,0z" class="st0"/>
    <path id="svg_9" d="m249.2,38.9l0,-18.8c0,-5.1 2.9,-8.4 8,-8.4c5.3,0 7.9,3.2 7.9,8.8l0,10l-13.2,0l0,8.8c0,3.3 2.2,5.4 5.3,5.4c3.2,0 5.2,-2.1 5.2,-5l0,-0.3l2.7,0l0,0.3c0,4.1 -2.9,7.4 -7.9,7.4c-5.1,0.1 -8,-3.1 -8,-8.2zm2.7,-10.6l10.5,0l0,-8.2c0,-3.9 -1.9,-5.9 -5.2,-5.9c-3.1,0 -5.3,2 -5.3,5.6l0,8.5z" class="st0"/>
    <path id="svg_10" d="m280.2,14.4c-4,0 -6.4,2.2 -6.4,5.9l0,26.6l-2.7,0l0,-34.7l2.5,0l0,2.7c0.9,-1.5 2.8,-3 6.5,-3l0,2.5l0.1,0z" class="st0"/>
   </g>
  </g>
  <g id="svg_11">
   <g id="svg_12">
    <path id="svg_13" d="m17.4,20.3l-5.6,0c0,-2.5 -1.5,-3.5 -2.9,-3.5c-1.5,0 -2.8,1.1 -2.8,2.7c0,1.1 0.4,2.2 1.5,3.6l7.1,8.5c2.5,3 3,5.4 3,8c0,4.3 -3,7.7 -8.7,7.7c-5.6,0 -9,-3.2 -9,-8.7l5.7,0c0,2.5 1.5,3.8 3.3,3.8c1.7,0 3,-1.4 3,-3c0,-1.2 -0.1,-2.1 -1.7,-4.1l-7,-8.5c-2.5,-3.1 -2.8,-5.3 -2.8,-7.4c0,-4.3 3,-7.7 8.2,-7.7c5.5,0 8.7,2.8 8.7,8.6z" class="st1"/>
    <path id="svg_14" d="m20,12.5c3.1,0 4,-1.1 4,-5.5l4,0l0,5.2l4.3,0l0,5.1l-4.3,0l0,20.8c0,2.9 0.3,4.3 4.3,3.8l0,5.1c-0.6,0.1 -1.6,0.1 -2.5,0.1c-5.9,0 -7.5,-3.5 -7.5,-8.8l0,-21l-2.3,0l0,-4.8z" class="st1"/>
    <path id="svg_15" d="m47.8,12.2l5.7,0l0,26.2c0,5.5 -3.3,8.9 -8.7,8.9c-5.5,0 -8.7,-3.4 -8.7,-8.9l0,-26.2l5.7,0l0,27c0,2.1 1.4,3 3,3c1.5,0 3,-0.9 3,-3l0,-27z" class="st1"/>
    <path id="svg_16" d="m58.2,38.9l0,-18.8c0,-5.9 2.7,-8.3 6.8,-8.3c3.2,0 4.6,2 4.9,2.5l0,-14.3l5.7,0l0,46.9l-5.3,0l0,-2.2c-0.3,0.5 -2,2.5 -5.3,2.5c-4.1,0 -6.8,-2.3 -6.8,-8.3zm11.7,-1.2l0,-16.4c0,-3.2 -1,-4.3 -3,-4.3c-1.9,0 -3,1.2 -3,4.3l0,16.4c0,3.2 1.1,4.3 3,4.3c2,0 3,-1.1 3,-4.3z" class="st1"/>
    <path id="svg_17" d="m83.8,8.9c-2,0 -3.5,-1.5 -3.5,-3.4c0,-1.9 1.5,-3.5 3.5,-3.5c1.9,0 3.5,1.5 3.5,3.5c0,1.8 -1.6,3.4 -3.5,3.4zm2.8,38l-5.7,0l0,-34.7l5.7,0l0,34.7z" class="st1"/>
    <path id="svg_18" d="m91.6,38.1l0,-17.2c0,-5.5 3.2,-9.1 8.7,-9.1c5.4,0 8.7,3.6 8.7,9.1l0,17.2c0,5.7 -3.2,9.2 -8.7,9.2c-5.6,0 -8.7,-3.5 -8.7,-9.2zm5.7,-18l0,18.8c0,2.4 1.4,3.2 3,3.2c1.5,0 3,-0.9 3,-3.2l0,-18.8c0,-2.2 -1.4,-3.2 -3,-3.2c-1.7,0 -3,1 -3,3.2z" class="st1"/>
   </g>
  </g>
  <g id="svg_22">
   <rect id="svg_23" height="47.3" width="2" class="st0" y="2.5" x="119.8"/>
  </g>
 </g>
</svg>
