<?xml version="1.0" encoding="utf-8"?>
<!-- Generator: Adobe Illustrator 22.0.1, SVG Export Plug-In . SVG Version: 6.00 Build 0)  -->
<svg version="1.1" id="Layer_1" xmlns="http://www.w3.org/2000/svg" xmlns:xlink="http://www.w3.org/1999/xlink" x="0px" y="0px"
	 viewBox="0 0 11.001 11" enable-background="new 0 0 11.001 11" xml:space="preserve">
<path fill="#F04C23" d="M10.839,10.067L8.696,7.923C9.384,7.062,9.76,5.985,9.76,4.881C9.76,2.19,7.571,0,4.88,0S0,2.189,0,4.881
	c0,2.69,2.188,4.88,4.88,4.88c1.104,0,2.181-0.377,3.04-1.063l2.143,2.142c0.104,0.104,0.242,0.16,0.389,0.16
	c0.146,0,0.283-0.057,0.387-0.16s0.162-0.24,0.162-0.387C11.001,10.307,10.943,10.169,10.839,10.067z M4.881,8.659
	c-2.085,0-3.78-1.694-3.78-3.777c0-2.085,1.695-3.78,3.78-3.78c2.084,0,3.78,1.695,3.78,3.78C8.661,6.965,6.965,8.659,4.881,8.659z"
	/>
</svg>
