<svg xmlns="http://www.w3.org/2000/svg" xmlns:xlink="http://www.w3.org/1999/xlink" width="24" height="24" viewBox="0 0 24 24">
    <defs>
        <path id="a" d="M6.204 19.562h12.174a3.213 3.213 0 0 0 3.204-3.204V7.204A3.213 3.213 0 0 0 18.378 4H6.204A3.213 3.213 0 0 0 3 7.204v9.154a3.213 3.213 0 0 0 3.204 3.204zm13.067-1.099l-5.355-5.63 2.746-2.585 4.005 3.867v2.243c0 .938-.572 1.762-1.396 2.105zM6.204 4.915h12.174a2.295 2.295 0 0 1 2.289 2.289v5.652L16.983 9.31a.487.487 0 0 0-.641 0l-3.067 2.86-2.723-2.86a.453.453 0 0 0-.572-.068L3.915 13.2V7.204a2.295 2.295 0 0 1 2.289-2.289zm-2.289 9.383l6.248-4.073 8.032 8.421H6.204a2.295 2.295 0 0 1-2.289-2.288v-2.06z"/>
    </defs>
    <g fill="none" fill-rule="evenodd">
        <mask id="b" fill="#fff">
            <use xlink:href="#a"/>
        </mask>
        <use fill="#8E97A0" fill-rule="nonzero" xlink:href="#a"/>
        <g fill="#8E97A0" fill-rule="nonzero" mask="url(#b)">
            <path d="M0 0h24v24H0z"/>
        </g>
    </g>
</svg>
