<?xml version="1.0" encoding="utf-8"?>
<!-- Generator: Adobe Illustrator 22.0.1, SVG Export Plug-In . SVG Version: 6.00 Build 0)  -->
<svg version="1.1" id="Layer_1" xmlns="http://www.w3.org/2000/svg" xmlns:xlink="http://www.w3.org/1999/xlink" x="0px" y="0px"
	 viewBox="0 0 20.001 16.936" enable-background="new 0 0 20.001 16.936" xml:space="preserve">
<path fill="#F04C23" d="M4.865,5.814c-0.336,0-0.6-0.264-0.6-0.601s0.263-0.601,0.6-0.601h10.27c0.337,0,0.601,0.264,0.601,0.601
	s-0.264,0.601-0.601,0.601H4.865z"/>
<path fill="#F04C23" d="M4.865,9.26c-0.336,0-0.6-0.264-0.6-0.601s0.263-0.601,0.6-0.601h10.27c0.337,0,0.601,0.264,0.601,0.601
	S15.472,9.26,15.135,9.26H4.865z"/>
<path fill="#F04C23" d="M3.612,16.936c-0.101,0-0.185-0.018-0.262-0.058c-0.209-0.104-0.338-0.312-0.338-0.542v-2.463H0.601
	C0.27,13.873,0,13.604,0,13.273V0.601C0,0.264,0.264,0,0.601,0H19.4c0.337,0,0.601,0.264,0.601,0.601V13.29
	c0,0.336-0.264,0.6-0.601,0.6H7.838l-3.859,2.93C3.876,16.893,3.742,16.936,3.612,16.936z M1.201,12.671h2.411
	c0.336,0,0.6,0.265,0.6,0.602v1.848l3.055-2.333c0.102-0.073,0.237-0.116,0.366-0.116h11.149V1.201H1.201V12.671z"/>
</svg>
