<svg xmlns="http://www.w3.org/2000/svg" xml:space="preserve" viewBox="0 0 36 36"><path fill="#F04D24" d="M18 29.8c-.3 0-.5-.2-.5-.5v-16c0-.3.2-.5.5-.5s.5.2.5.5v16c0 .3-.2.5-.5.5z"/><path fill="#F04D24" d="M18.4 28H18c-1.2 0-2.3-.3-3.3-.9-.9-.7-1.4-1.8-1.3-2.9 0-.3.2-.5.5-.5s.5.2.5.5c0 1.8 1.1 2.6 3.7 2.8 1 .1 2.1-.1 2.9-.7.4-.4.6-.9.6-1.5 0-1.3-.1-2-3.8-2.8-4-.9-4.4-2.7-4.4-3.9 0-.8.3-3.3 4.7-3.3 4.1 0 4.2 3.5 4.2 3.5 0 .3-.2.5-.5.5s-.5-.2-.5-.5c0-.5-.2-.9-.4-1.3-.5-.8-1.4-1.2-2.7-1.2-3.1 0-3.6 1.4-3.6 2.3 0 .7 0 2.1 3.6 2.9 3.6.8 4.7 1.7 4.6 3.9 0 .9-.4 1.7-1 2.3-1.1.5-2.2.9-3.4.8z"/><path fill="none" stroke="#F04D24" stroke-linecap="round" stroke-linejoin="round" stroke-width="2" d="M18 1.7c1.4 0 1.7-.6 3.2-.6 2.6 0 1.8 1.6 4.4.8s2.7 1.5 1.6 2.5c-1.3 1.1-4.6 2.9-4.6 4.3s3.3 3.3 5.9 5.9c2.2 2.2 7.4 6.1 6.4 11.8-1 5.3-6.4 8.8-16.8 8.8s-15.9-3.6-17-8.9C0 20.6 5.2 16.7 7.5 14.6c2.6-2.6 5.9-4.5 5.9-5.9S10 5.5 8.8 4.3c-1.1-1-.9-3.2 1.6-2.5s1.7-.8 4.4-.8c1.5 0 1.7.7 3.2.7zM13.4 8.6h9.2"/></svg>