<?xml version="1.0" encoding="utf-8"?>
<!-- Generator: Adobe Illustrator 22.0.1, SVG Export Plug-In . SVG Version: 6.00 Build 0)  -->
<svg version="1.1" id="Layer_1" xmlns="http://www.w3.org/2000/svg" xmlns:xlink="http://www.w3.org/1999/xlink" x="0px" y="0px"
	 viewBox="0 0 16 16.777" enable-background="new 0 0 16 16.777" xml:space="preserve">
<path fill="#FFFFFF" d="M2.705,5.42h2.247v2.246c0,0.377,0.304,0.682,0.681,0.682c0.378,0,0.682-0.305,0.682-0.682V5.42h2.247
	c0.377,0,0.681-0.305,0.681-0.682c0-0.377-0.304-0.682-0.681-0.682H6.314v-2.25c0-0.377-0.304-0.682-0.682-0.682
	c-0.377,0-0.681,0.305-0.681,0.682v2.246H2.705c-0.377,0-0.682,0.305-0.682,0.682C2.023,5.111,2.331,5.42,2.705,5.42L2.705,5.42z"/>
<path fill="#FFFFFF" d="M15.322,0h-3.288c-0.378,0-0.682,0.303-0.682,0.68v9.377H0.682C0.305,10.057,0,10.359,0,10.736
	c0,0.379,0.305,0.682,0.682,0.682H12.03c0.378,0,0.682-0.303,0.682-0.682V1.365h2.607C15.696,1.365,16,1.061,16,0.684
	C16.004,0.307,15.696,0,15.322,0L15.322,0z"/>
<path fill="#FFFFFF" d="M2.946,12.189c-1.273,0-2.308,1.029-2.308,2.293c0,1.266,1.035,2.295,2.308,2.295
	c1.271,0,2.307-1.029,2.307-2.295C5.253,13.219,4.218,12.189,2.946,12.189L2.946,12.189z M2.946,15.414
	c-0.521,0-0.945-0.416-0.945-0.932c0-0.514,0.425-0.93,0.945-0.93s0.944,0.416,0.944,0.93C3.891,14.998,3.467,15.414,2.946,15.414
	L2.946,15.414z"/>
<path fill="#FFFFFF" d="M9.67,12.189c-1.273,0-2.308,1.029-2.308,2.293c0,1.266,1.035,2.295,2.308,2.295
	c1.271,0,2.307-1.029,2.307-2.295C11.977,13.219,10.941,12.189,9.67,12.189L9.67,12.189z M9.67,15.414
	c-0.522,0-0.945-0.416-0.945-0.932c0-0.514,0.424-0.93,0.945-0.93s0.944,0.416,0.944,0.93C10.614,14.998,10.19,15.414,9.67,15.414
	L9.67,15.414z"/>
</svg>
