<?xml version="1.0" encoding="utf-8"?>
<!-- Generator: Adobe Illustrator 22.0.1, SVG Export Plug-In . SVG Version: 6.00 Build 0)  -->
<svg version="1.1" id="Layer_1" xmlns="http://www.w3.org/2000/svg" xmlns:xlink="http://www.w3.org/1999/xlink" x="0px" y="0px"
	 viewBox="0 0 18.287 16" enable-background="new 0 0 18.287 16" xml:space="preserve">
<path fill="#A4B0BE" d="M6.286,0H0.572C0.257,0,0,0.256,0,0.571v5.715c0,0.315,0.257,0.571,0.572,0.571h5.714
	c0.315,0,0.571-0.256,0.571-0.571V0.571C6.858,0.256,6.602,0,6.286,0z M5.715,5.714H1.144V1.143h4.571V5.714z"/>
<path fill="#A4B0BE" d="M6.286,9.143H0.572C0.257,9.143,0,9.399,0,9.714v5.715C0,15.744,0.257,16,0.572,16h5.714
	c0.315,0,0.571-0.256,0.571-0.571V9.714C6.858,9.398,6.602,9.143,6.286,9.143z M5.715,14.857H1.144v-4.571h4.571V14.857z"/>
<rect x="9.144" y="1.714" fill="#A4B0BE" width="4.571" height="1.144"/>
<rect x="9.144" y="4" fill="#A4B0BE" width="9.143" height="1.143"/>
<rect x="9.144" y="10.857" fill="#A4B0BE" width="4.571" height="1.143"/>
<rect x="9.144" y="13.143" fill="#A4B0BE" width="9.143" height="1.144"/>
</svg>
