<?xml version="1.0" encoding="utf-8"?>
<!-- Generator: Adobe Illustrator 22.0.1, SVG Export Plug-In . SVG Version: 6.00 Build 0)  -->
<svg version="1.1" id="Layer_1" xmlns="http://www.w3.org/2000/svg" xmlns:xlink="http://www.w3.org/1999/xlink" x="0px" y="0px"
	 viewBox="0 0 13.002 13.002" enable-background="new 0 0 13.002 13.002" xml:space="preserve">
<path fill="#A4B0BE" d="M12.282,5.778H7.224V0.72C7.224,0.324,6.899,0,6.505,0C6.103,0,5.778,0.324,5.778,0.72v5.058H0.719
	C0.324,5.778,0,6.102,0,6.505C0,6.9,0.324,7.224,0.719,7.224h5.059v5.058c0,0.397,0.324,0.72,0.727,0.72
	c0.394,0,0.719-0.322,0.719-0.72V7.224h5.058c0.395,0,0.72-0.324,0.72-0.719C13.002,6.103,12.677,5.778,12.282,5.778L12.282,5.778z"
	/>
</svg>
