<?xml version="1.0" encoding="utf-8"?>
<!-- Generator: Adobe Illustrator 22.0.1, SVG Export Plug-In . SVG Version: 6.00 Build 0)  -->
<svg version="1.1" id="Layer_1" xmlns="http://www.w3.org/2000/svg" xmlns:xlink="http://www.w3.org/1999/xlink" x="0px" y="0px"
	 viewBox="0 0 15 15" enable-background="new 0 0 15 15" xml:space="preserve">
<path fill="#FFFFFF" d="M14.17,6.666H8.334V0.83C8.334,0.374,7.959,0,7.504,0C7.039,0,6.666,0.374,6.666,0.83v5.836H0.828
	C0.375,6.666,0,7.04,0,7.504c0,0.456,0.375,0.83,0.828,0.83h5.838v5.836c0,0.458,0.373,0.83,0.838,0.83
	c0.455,0,0.83-0.372,0.83-0.83V8.334h5.836c0.455,0,0.83-0.374,0.83-0.83C15,7.04,14.625,6.666,14.17,6.666L14.17,6.666z"/>
</svg>
