<?xml version="1.0" encoding="utf-8"?>
<!-- Generator: Adobe Illustrator 22.0.1, SVG Export Plug-In . SVG Version: 6.00 Build 0)  -->
<svg version="1.1" id="Layer_1" xmlns="http://www.w3.org/2000/svg" xmlns:xlink="http://www.w3.org/1999/xlink" x="0px" y="0px"
	 viewBox="0 0 16.001 16" enable-background="new 0 0 16.001 16" xml:space="preserve">
<path fill="#A4B0BE" d="M13.89,7.195c-0.333,0-0.603,0.271-0.603,0.604v6.994l-12.08-0.019L1.225,2.693h6.996
	c0.333,0,0.603-0.27,0.603-0.604c0-0.333-0.27-0.603-0.603-0.603H0.623c-0.333,0-0.602,0.27-0.603,0.602L0,15.375
	c-0.001,0.159,0.063,0.313,0.176,0.427c0.112,0.113,0.266,0.177,0.426,0.177L13.888,16h0.001c0.16,0,0.314-0.063,0.426-0.177
	c0.113-0.112,0.177-0.267,0.177-0.427V7.798C14.493,7.465,14.223,7.195,13.89,7.195z"/>
<path fill="#A4B0BE" d="M15.398,0h-4.342c-0.333,0-0.603,0.27-0.603,0.603s0.27,0.604,0.603,0.604h3.739v3.759
	c0,0.333,0.27,0.603,0.603,0.603s0.603-0.27,0.603-0.603V0.604C16.001,0.269,15.731,0,15.398,0z"/>
<path fill="#A4B0BE" d="M15.824,0.176c-0.235-0.235-0.617-0.235-0.853,0L7.212,7.935c-0.236,0.235-0.236,0.617,0,0.853
	C7.33,8.905,7.484,8.965,7.638,8.965s0.309-0.06,0.426-0.177l7.759-7.759C16.06,0.794,16.06,0.412,15.824,0.176z"/>
</svg>
