<?xml version="1.0" encoding="utf-8"?>
<!-- Generator: Adobe Illustrator 22.0.1, SVG Export Plug-In . SVG Version: 6.00 Build 0)  -->
<svg version="1.1" id="Layer_1" xmlns="http://www.w3.org/2000/svg" xmlns:xlink="http://www.w3.org/1999/xlink" x="0px" y="0px"
	 viewBox="0 0 16.001 16.001" enable-background="new 0 0 16.001 16.001" xml:space="preserve">
<path fill="#F04C23" d="M13.89,7.196c-0.333,0-0.604,0.271-0.604,0.604v6.994L1.207,14.775L1.226,2.694h6.996
	c0.333,0,0.602-0.27,0.602-0.604c0-0.333-0.27-0.603-0.602-0.603H0.623c-0.332,0-0.602,0.27-0.603,0.602L0,15.376
	c0,0.159,0.063,0.313,0.177,0.427c0.112,0.113,0.266,0.177,0.426,0.177l13.286,0.021h0.001c0.16,0,0.313-0.063,0.426-0.177
	c0.113-0.112,0.177-0.267,0.177-0.427V7.799C14.492,7.466,14.223,7.196,13.89,7.196z"/>
<path fill="#F04C23" d="M15.397,0h-4.342c-0.333,0-0.604,0.27-0.604,0.603s0.27,0.604,0.604,0.604h3.738v3.759
	c0,0.333,0.271,0.603,0.604,0.603C15.73,5.569,16,5.299,16,4.966V0.604C16,0.27,15.73,0,15.397,0z"/>
<path fill="#F04C23" d="M15.823,0.177c-0.235-0.235-0.617-0.235-0.853,0L7.211,7.936c-0.235,0.235-0.235,0.617,0,0.853
	c0.118,0.117,0.272,0.177,0.427,0.177c0.154,0,0.309-0.06,0.426-0.177l7.759-7.759C16.06,0.794,16.06,0.413,15.823,0.177z"/>
</svg>
