<?xml version="1.0" encoding="utf-8"?>
<!-- Generator: Adobe Illustrator 16.0.0, SVG Export Plug-In . SVG Version: 6.00 Build 0)  -->
<!DOCTYPE svg PUBLIC "-//W3C//DTD SVG 1.1//EN" "http://www.w3.org/Graphics/SVG/1.1/DTD/svg11.dtd">
<svg version="1.1" id="Layer_1" xmlns="http://www.w3.org/2000/svg" xmlns:xlink="http://www.w3.org/1999/xlink" x="0px" y="0px"
	 width="15.851px" height="15.85px" viewBox="0 0 15.851 15.85" enable-background="new 0 0 15.851 15.85" xml:space="preserve">
<path fill="#F04E24" d="M0.56,13.45h3.124v1.841c0,0.313,0.245,0.56,0.559,0.56h7.365c0.314,0,0.56-0.246,0.56-0.56V13.45h3.124
	c0.313,0,0.56-0.246,0.56-0.561v-9.93c0-0.314-0.246-0.56-0.56-0.56h-3.124V0.559c0-0.313-0.245-0.559-0.56-0.559H4.242
	C3.929,0,3.684,0.245,3.684,0.559v1.841H0.56C0.245,2.399,0,2.646,0,2.959v9.93C0,13.189,0.26,13.45,0.56,13.45L0.56,13.45z
	 M11.049,14.731H4.802V10.12h6.247V14.731z M4.802,1.118h6.247v1.281H4.802V1.118z M1.119,3.519h13.613v8.812h-2.565V10.12h0.996
	c0.314,0,0.56-0.244,0.56-0.559c0-0.313-0.245-0.559-0.56-0.559H2.701c-0.313,0-0.56,0.245-0.56,0.559
	c0,0.314,0.246,0.559,0.56,0.559h0.995v2.211H1.119V3.519z M1.119,3.519"/>
<path fill="#F04E24" d="M10.886,6.396h1.445c0.314,0,0.56-0.245,0.56-0.56c0-0.313-0.245-0.559-0.56-0.559h-1.445
	c-0.314,0-0.561,0.245-0.561,0.559C10.325,6.151,10.571,6.396,10.886,6.396L10.886,6.396z M10.886,6.396"/>
</svg>
