<?xml version="1.0" encoding="utf-8"?>
<!-- Generator: Adobe Illustrator 22.0.1, SVG Export Plug-In . SVG Version: 6.00 Build 0)  -->
<svg version="1.1" id="Layer_1" xmlns="http://www.w3.org/2000/svg" xmlns:xlink="http://www.w3.org/1999/xlink" x="0px" y="0px"
	 viewBox="0 0 15.913 16.945" enable-background="new 0 0 15.913 16.945" xml:space="preserve">
<path fill="#FFFFFF" d="M15.509,4.033L8.234,0.06c-0.177-0.08-0.379-0.08-0.555,0L0.404,4.033c-0.236,0.106-0.394,0.338-0.402,0.6
	c-0.01,0.258,0.13,0.502,0.359,0.623l7.275,3.879c0.1,0.055,0.211,0.08,0.32,0.08c0.111,0,0.221-0.025,0.321-0.08l7.274-3.879
	c0.23-0.121,0.369-0.365,0.36-0.623C15.903,4.371,15.746,4.138,15.509,4.033L15.509,4.033z M7.957,7.761L2.232,4.708l5.725-3.279
	l5.725,3.279L7.957,7.761z"/>
<path fill="#FFFFFF" d="M14.911,8.029l-6.954,3.709L1.003,8.029C0.67,7.851,0.257,7.976,0.08,8.308
	C-0.096,8.642,0.029,9.054,0.361,9.23l7.275,3.881c0.1,0.055,0.211,0.08,0.32,0.08c0.111,0,0.221-0.025,0.321-0.08l7.274-3.881
	c0.332-0.176,0.457-0.588,0.28-0.922C15.657,7.976,15.244,7.851,14.911,8.029L14.911,8.029z"/>
<path fill="#FFFFFF" d="M14.911,11.783l-6.954,3.709l-6.954-3.709C0.67,11.605,0.257,11.73,0.08,12.062
	c-0.176,0.334-0.051,0.746,0.281,0.922l7.275,3.881c0.1,0.053,0.211,0.08,0.32,0.08c0.111,0,0.221-0.027,0.321-0.08l7.274-3.881
	c0.332-0.176,0.457-0.588,0.28-0.922C15.655,11.73,15.244,11.605,14.911,11.783L14.911,11.783z"/>
</svg>
