<?xml version="1.0" encoding="utf-8"?>
<!-- Generator: Adobe Illustrator 22.0.1, SVG Export Plug-In . SVG Version: 6.00 Build 0)  -->
<svg version="1.1" id="Layer_1" xmlns="http://www.w3.org/2000/svg" xmlns:xlink="http://www.w3.org/1999/xlink" x="0px" y="0px"
	 viewBox="0 0 17.732 16" enable-background="new 0 0 17.732 16" xml:space="preserve">
<path fill="#F04C23" d="M17.212,0C15.877,0,1.261,0,0.52,0C0.233,0,0,0.232,0,0.519s0.232,0.52,0.52,0.52h1.247v14.442
	c0,0.174,0.087,0.336,0.232,0.433c0.145,0.096,0.329,0.113,0.489,0.046l3.088-1.301l3.089,1.301c0.129,0.054,0.274,0.054,0.403,0
	l3.088-1.301l3.088,1.301c0.161,0.067,0.344,0.05,0.489-0.046c0.145-0.097,0.232-0.259,0.232-0.433V1.039h1.247
	c0.287,0,0.52-0.232,0.52-0.52C17.732,0.232,17.499,0,17.212,0z M14.927,14.697l-2.569-1.081c-0.129-0.055-0.274-0.055-0.403,0
	l-3.088,1.3l-3.088-1.3c-0.129-0.055-0.274-0.055-0.403,0l-2.569,1.081V1.038h12.121L14.927,14.697L14.927,14.697z"/>
<path fill="#F04C23" d="M11.464,2.77H6.269c-0.287,0-0.519,0.232-0.519,0.519s0.232,0.52,0.519,0.52h5.195
	c0.287,0,0.519-0.232,0.519-0.52C11.983,3.003,11.75,2.77,11.464,2.77z"/>
<path fill="#F04C23" d="M12.676,6.926H7.827c-0.287,0-0.52,0.232-0.52,0.52s0.233,0.52,0.52,0.52h4.849
	c0.287,0,0.52-0.232,0.52-0.52S12.963,6.926,12.676,6.926z"/>
<circle fill="#F04C23" cx="5.126" cy="7.445" r="0.692"/>
<path fill="#F04C23" d="M12.676,9.696H7.827c-0.287,0-0.52,0.232-0.52,0.52s0.233,0.52,0.52,0.52h4.849
	c0.287,0,0.52-0.232,0.52-0.52S12.963,9.696,12.676,9.696z"/>
<circle fill="#F04C23" cx="5.126" cy="10.216" r="0.692"/>
</svg>
