<?xml version="1.0" encoding="utf-8"?>
<!-- Generator: Adobe Illustrator 22.0.1, SVG Export Plug-In . SVG Version: 6.00 Build 0)  -->
<svg version="1.1" id="Layer_1" xmlns="http://www.w3.org/2000/svg" xmlns:xlink="http://www.w3.org/1999/xlink" x="0px" y="0px"
	 viewBox="0 0 16 16" enable-background="new 0 0 16 16" xml:space="preserve">
<path fill="#FFFFFF" d="M4.513,5.285c-0.366,0-0.664-0.291-0.664-0.65s0.298-0.652,0.664-0.652h6.977
	c0.367,0,0.664,0.293,0.664,0.652c0,0.359-0.297,0.65-0.664,0.65H4.513z"/>
<path fill="#FFFFFF" d="M4.513,8.654c-0.366,0-0.664-0.291-0.664-0.65c0-0.359,0.298-0.65,0.664-0.65h6.977
	c0.367,0,0.664,0.291,0.664,0.65s-0.297,0.65-0.664,0.65H4.513z"/>
<path fill="#FFFFFF" d="M4.513,12.025c-0.366,0-0.664-0.293-0.664-0.65c0-0.359,0.298-0.652,0.664-0.652h6.977
	c0.367,0,0.664,0.293,0.664,0.652c0,0.357-0.297,0.65-0.664,0.65H4.513z"/>
<path fill="#FFFFFF" d="M0.664,16h4.07h6.693h3.98C15.74,15.965,16,15.689,16,15.354V0.65c0.002-0.174-0.065-0.336-0.189-0.459
	C15.686,0.068,15.519,0,15.34,0H0.664C0.297,0,0,0.291,0,0.65v1.309V3.26v10.961v1.129C0,15.709,0.297,16,0.664,16z M1.332,1.303
	h13.344v13.4H1.332V1.303z"/>
</svg>
