<?xml version="1.0" encoding="utf-8"?>
<!-- Generator: Adobe Illustrator 27.0.0, SVG Export Plug-In . SVG Version: 6.00 Build 0)  -->
<svg version="1.1" id="Layer_3" xmlns="http://www.w3.org/2000/svg" xmlns:xlink="http://www.w3.org/1999/xlink" x="0px" y="0px"
	 viewBox="0 0 36 36" style="enable-background:new 0 0 36 36;" xml:space="preserve">
<style type="text/css">
	.st0{fill:#EF4C24;}
	.st1{fill:none;stroke:#EF4C24;stroke-width:0.5;stroke-linecap:round;stroke-linejoin:round;stroke-miterlimit:10;}
	.st2{fill:none;stroke:#EF4C24;stroke-width:2;stroke-linejoin:bevel;stroke-miterlimit:10;}
</style>
<g>
	<path class="st0" d="M0,13.2c0.2,2.5,3.2,4.5,6.7,4.5s6.5-2,6.7-4.5H0z"/>
	<polyline class="st1" points="10.2,13.7 6.7,2.6 3.3,13.7 	"/>
</g>
<g>
	<path class="st0" d="M22.5,18.5c0.2,2.5,3.2,4.5,6.7,4.5s6.5-2,6.7-4.5H22.5z"/>
	<polyline class="st1" points="32.7,19 29.3,7.9 25.8,19 	"/>
</g>
<path class="st0" d="M31.9,6.6l-12-2.9c-0.1-0.5-0.5-0.9-0.9-1.2V2.1c0-0.6-0.4-1-1-1s-1,0.4-1,1v0.4c-0.2,0.1-0.3,0.2-0.5,0.4
	L4.5,0C4-0.1,3.5,0.2,3.3,0.8C3.2,1.3,3.5,1.8,4.1,2l12,2.9c0.1,0.5,0.5,0.9,0.9,1.2v24.6h2V6.1c0.2-0.1,0.3-0.2,0.5-0.4l12,2.9
	c0.1,0,0.2,0,0.2,0c0.5,0,0.9-0.3,1-0.8C32.8,7.3,32.5,6.8,31.9,6.6z M18,5.3c-0.6,0-1-0.5-1-1s0.5-1,1-1s1,0.5,1,1S18.6,5.3,18,5.3
	z"/>
<path class="st2" d="M28.9,35c-2.3-2.2-6.3-3.7-10.9-3.7S9.3,32.8,7.1,35H28.9z"/>
</svg>
