<svg xmlns="http://www.w3.org/2000/svg" width="16" height="16" viewBox="0 0 16 16">
    <g fill="#8E969F" fill-rule="nonzero">
        <path d="M8 5.5a2.503 2.503 0 0 0-2.5 2.499A2.503 2.503 0 0 0 8 10.5c1.38 0 2.5-1.121 2.5-2.501A2.502 2.502 0 0 0 8 5.5zm0 3.64a1.145 1.145 0 0 1-1.143-1.142c0-.628.514-1.143 1.143-1.143A1.143 1.143 0 1 1 8 9.14z"/>
        <path d="M15.753 9.864l-1.631-1.24a5.85 5.85 0 0 0 0-1.248l1.63-1.238a.622.622 0 0 0 .16-.814l-1.58-2.657a.634.634 0 0 0-.772-.264l-1.936.756a6.252 6.252 0 0 0-1.131-.636l-.29-1.988A.63.63 0 0 0 9.579 0h-3.16a.628.628 0 0 0-.622.535l-.291 1.988a6.32 6.32 0 0 0-1.131.636L2.44 2.403a.632.632 0 0 0-.773.264L.088 5.324a.621.621 0 0 0 .16.814l1.63 1.238c-.046.43-.042.845 0 1.248l-1.63 1.24a.62.62 0 0 0-.16.814l1.58 2.655a.63.63 0 0 0 .773.264l1.934-.756c.354.252.732.463 1.13.636l.292 1.988A.627.627 0 0 0 6.42 16h3.159a.628.628 0 0 0 .624-.535l.29-1.988a6.168 6.168 0 0 0 1.13-.636l1.937.756a.631.631 0 0 0 .773-.264l1.579-2.655a.62.62 0 0 0-.16-.814zM13.52 12.24l-1.765-.69a.638.638 0 0 0-.628.097c-.426.344-.904.61-1.421.797a.628.628 0 0 0-.408.498l-.265 1.81H6.967L6.7 12.94a.626.626 0 0 0-.408-.498 4.897 4.897 0 0 1-1.42-.797.64.64 0 0 0-.63-.097l-1.765.69-1.021-1.719 1.479-1.124a.625.625 0 0 0 .238-.602 4.588 4.588 0 0 1 0-1.586.623.623 0 0 0-.238-.6l-1.48-1.126 1.022-1.719 1.766.69a.631.631 0 0 0 .629-.097c.426-.342.902-.61 1.42-.797a.623.623 0 0 0 .408-.498l.266-1.81h2.067l.265 1.81c.033.228.19.419.408.498.517.187.995.455 1.42.797.178.144.417.18.629.097l1.765-.69 1.023 1.719-1.48 1.126a.62.62 0 0 0-.236.6c.093.535.09 1.07 0 1.586a.624.624 0 0 0 .237.602l1.479 1.124-1.023 1.719z"/>
    </g>
</svg>
