<?xml version="1.0" encoding="utf-8"?>
<!-- Generator: Adobe Illustrator 16.0.0, SVG Export Plug-In . SVG Version: 6.00 Build 0)  -->
<!DOCTYPE svg PUBLIC "-//W3C//DTD SVG 1.1//EN" "http://www.w3.org/Graphics/SVG/1.1/DTD/svg11.dtd">
<svg version="1.1" id="Layer_1" xmlns="http://www.w3.org/2000/svg" xmlns:xlink="http://www.w3.org/1999/xlink" x="0px" y="0px"
	 width="1569px" height="480px" viewBox="0 0 1569 480" enable-background="new 0 0 1569 480" xml:space="preserve">
<g>
	<g>
		<g>
			<path fill="#8E969F" d="M396.699,107.267l-7.275-3.972c-0.177-0.08-0.379-0.08-0.555,0l-7.275,3.972
				c-0.236,0.106-0.394,0.339-0.402,0.6c-0.01,0.259,0.13,0.502,0.359,0.624l7.275,3.879c0.1,0.055,0.211,0.08,0.32,0.08
				c0.111,0,0.221-0.025,0.321-0.08l7.274-3.879c0.229-0.122,0.369-0.365,0.36-0.624
				C397.093,107.605,396.936,107.373,396.699,107.267L396.699,107.267z M389.146,110.996l-5.725-3.053l5.725-3.28l5.725,3.28
				L389.146,110.996z M389.146,110.996"/>
			<path fill="#8E969F" d="M396.101,111.263l-6.954,3.71l-6.954-3.71c-0.333-0.177-0.746-0.052-0.923,0.28
				c-0.176,0.333-0.051,0.745,0.281,0.922l7.275,3.881c0.1,0.054,0.211,0.08,0.32,0.08c0.111,0,0.221-0.026,0.321-0.08l7.274-3.881
				c0.332-0.177,0.457-0.589,0.28-0.922C396.847,111.211,396.434,111.086,396.101,111.263L396.101,111.263z M396.101,111.263"/>
			<path fill="#8E969F" d="M396.101,115.017l-6.954,3.71l-6.954-3.71c-0.333-0.178-0.746-0.052-0.923,0.28
				c-0.176,0.333-0.051,0.745,0.281,0.922l7.275,3.881c0.1,0.053,0.211,0.08,0.32,0.08c0.111,0,0.221-0.027,0.321-0.08l7.274-3.881
				c0.332-0.177,0.457-0.589,0.28-0.922C396.845,114.965,396.434,114.839,396.101,115.017L396.101,115.017z M396.101,115.017"/>
		</g>
		<g>
			<g>
				<g>
					<path fill="#8E969F" d="M389.146,129.797c0.67,0,1.235,0.424,1.235,0.926s-0.565,0.926-1.235,0.926
						c-0.336,0-0.649-0.104-0.883-0.293c-0.263-0.215-0.652-0.176-0.868,0.088c-0.216,0.266-0.177,0.654,0.089,0.869
						c0.298,0.242,0.658,0.406,1.045,0.494v0.695c0,0.34,0.276,0.617,0.617,0.617s0.618-0.277,0.618-0.617v-0.695
						c1.062-0.24,1.853-1.08,1.853-2.084c0-1.191-1.108-2.16-2.471-2.16c-0.669,0-1.234-0.424-1.234-0.928
						c0-0.502,0.565-0.926,1.234-0.926c0.336,0,0.65,0.104,0.883,0.295c0.265,0.213,0.653,0.176,0.869-0.09
						c0.216-0.264,0.176-0.652-0.09-0.869c-0.297-0.242-0.658-0.404-1.044-0.492v-0.695c0-0.342-0.277-0.617-0.618-0.617
						s-0.617,0.275-0.617,0.617v0.693c-1.063,0.242-1.853,1.08-1.853,2.084C386.677,128.828,387.784,129.797,389.146,129.797z"/>
				</g>
			</g>
			<path fill="#8E969F" d="M381.811,137.18h4.07h6.694h3.979c0.332-0.035,0.592-0.313,0.592-0.646v-14.705
				c0.002-0.172-0.065-0.336-0.188-0.457c-0.125-0.125-0.293-0.191-0.472-0.191h-14.676c-0.367,0-0.664,0.291-0.664,0.65v1.307
				v1.303v10.959v1.131C381.146,136.887,381.443,137.18,381.811,137.18z M382.479,122.48h13.344v13.4h-13.344V122.48z"/>
		</g>
		<g>
			<path fill="#8E969F" d="M396.957,138.369c-0.125-0.123-0.292-0.189-0.471-0.189h-14.676c-0.367,0-0.664,0.291-0.664,0.65v1.307
				v1.303v10.959v1.129c0,0.359,0.297,0.652,0.664,0.652h4.07h6.693h3.98c0.332-0.037,0.592-0.313,0.592-0.646v-14.705
				C397.148,138.656,397.081,138.492,396.957,138.369z M382.479,139.48h13.344v13.4h-0.016c-0.144-0.324-0.307-0.641-0.496-0.938
				c-0.06-0.094-0.117-0.184-0.182-0.273c-0.072-0.104-0.148-0.203-0.227-0.303c-0.145-0.184-0.296-0.363-0.457-0.531
				c-0.021-0.021-0.039-0.045-0.06-0.064c-0.438-0.445-0.93-0.838-1.468-1.166c-0.001-0.002-0.003-0.002-0.004-0.002
				c-0.271-0.166-0.555-0.316-0.849-0.445h0.001c-0.896-0.396-1.883-0.617-2.92-0.617s-2.024,0.221-2.92,0.617l0,0
				c-0.293,0.129-0.577,0.279-0.849,0.445c0,0-0.002,0-0.003,0.002c-0.539,0.328-1.031,0.721-1.469,1.166
				c-0.02,0.02-0.038,0.043-0.057,0.063c-0.163,0.17-0.314,0.35-0.459,0.533c-0.078,0.1-0.154,0.199-0.227,0.303
				c-0.064,0.09-0.122,0.182-0.184,0.273c-0.189,0.299-0.352,0.613-0.495,0.938h-0.007V139.48z M384.258,152.881
				c1.016-1.646,2.842-2.752,4.889-2.752s3.872,1.105,4.889,2.752H384.258z"/>
			<path fill="#8E969F" d="M387.451,146.479c0.494,0.367,1.077,0.561,1.689,0.561c0.143,0,0.282-0.01,0.423-0.031
				c0.752-0.111,1.415-0.51,1.869-1.121c0.453-0.611,0.642-1.361,0.529-2.111c-0.09-0.607-0.367-1.16-0.803-1.596
				c-0.433-0.434-0.983-0.713-1.595-0.803c-0.276-0.043-0.561-0.043-0.834,0c-0.752,0.111-1.415,0.508-1.869,1.119
				s-0.643,1.361-0.53,2.113C386.441,145.361,386.84,146.025,387.451,146.479z M387.886,143.256c0.25-0.336,0.616-0.557,1.03-0.617
				c0.076-0.012,0.154-0.016,0.23-0.016c0.078,0,0.154,0.004,0.23,0.016c0.689,0.102,1.222,0.633,1.324,1.322
				c0.061,0.414-0.043,0.828-0.294,1.166c-0.25,0.338-0.616,0.559-1.031,0.619c-0.415,0.063-0.829-0.043-1.166-0.293
				c-0.336-0.248-0.556-0.615-0.617-1.031C387.531,144.008,387.635,143.594,387.886,143.256z"/>
		</g>
		<g>
			<rect x="391.856" y="162.334" fill="#8E969F" width="1.348" height="2.086"/>
			<rect x="385.188" y="162.334" fill="#8E969F" width="1.347" height="2.086"/>
			<path fill="#8E969F" d="M381.786,170.658c-0.328,0-0.604-0.252-0.64-0.586l0.001-11.266c0-0.361,0.289-0.658,0.645-0.658h4.135
				v-2.969h6.348v2.971l4.229-0.002c0.355,0,0.643,0.297,0.643,0.658v11.201c0,0.178-0.066,0.344-0.188,0.467
				c-0.119,0.119-0.277,0.186-0.447,0.186l0,0L381.786,170.658z M382.432,169.35h13.428v-9.881h-13.429L382.432,169.35z
				 M387.274,158.148l3.652,0.002v-1.736h-3.652V158.148z"/>
		</g>
		<g>
			<path fill="#8E969F" d="M383.852,177.08h2.247v2.246c0,0.377,0.304,0.682,0.681,0.682c0.378,0,0.682-0.305,0.682-0.682v-2.246
				h2.247c0.377,0,0.681-0.305,0.681-0.682s-0.304-0.682-0.681-0.682h-2.247v-2.25c0-0.377-0.304-0.682-0.682-0.682
				c-0.377,0-0.681,0.305-0.681,0.682v2.246h-2.247c-0.377,0-0.682,0.305-0.682,0.682S383.478,177.08,383.852,177.08L383.852,177.08
				z M383.852,177.08"/>
			<path fill="#8E969F" d="M396.469,171.66h-3.288c-0.378,0-0.682,0.303-0.682,0.68v9.377h-10.671c-0.377,0-0.682,0.303-0.682,0.68
				c0,0.379,0.305,0.682,0.682,0.682h11.349c0.378,0,0.682-0.303,0.682-0.682v-9.371h2.607c0.377,0,0.681-0.305,0.681-0.682
				C397.15,171.967,396.843,171.66,396.469,171.66L396.469,171.66z M396.469,171.66"/>
			<path fill="#8E969F" d="M384.093,183.85c-1.272,0-2.308,1.029-2.308,2.293c0,1.266,1.035,2.295,2.308,2.295
				c1.271,0,2.307-1.029,2.307-2.295C386.399,184.879,385.364,183.85,384.093,183.85L384.093,183.85z M384.093,187.074
				c-0.521,0-0.945-0.416-0.945-0.932c0-0.514,0.425-0.93,0.945-0.93s0.944,0.416,0.944,0.93
				C385.037,186.658,384.613,187.074,384.093,187.074L384.093,187.074z M384.093,187.074"/>
			<path fill="#8E969F" d="M390.816,183.85c-1.272,0-2.308,1.029-2.308,2.293c0,1.266,1.035,2.295,2.308,2.295
				c1.271,0,2.307-1.029,2.307-2.295C393.123,184.879,392.088,183.85,390.816,183.85L390.816,183.85z M390.816,187.074
				c-0.521,0-0.945-0.416-0.945-0.932c0-0.514,0.424-0.93,0.945-0.93c0.521,0,0.944,0.416,0.944,0.93
				C391.761,186.658,391.337,187.074,390.816,187.074L390.816,187.074z M390.816,187.074"/>
		</g>
		<g>
			<path fill="#8E969F" d="M382.23,205.375c-0.304,0-0.555-0.102-0.769-0.314c-0.212-0.213-0.315-0.465-0.315-0.77v-13.77
				c0-0.301,0.106-0.561,0.315-0.77c0.214-0.211,0.465-0.314,0.769-0.314h8.137c0.32,0,0.679,0.082,1.066,0.244
				c0.389,0.16,0.699,0.355,0.922,0.58l3.967,3.967c0.225,0.223,0.42,0.533,0.581,0.922c0.162,0.389,0.244,0.748,0.243,1.066v8.074
				c0,0.305-0.104,0.557-0.315,0.77c-0.213,0.213-0.464,0.314-0.768,0.314H382.23z M382.501,204.021h13.292v-6.721h-5.426
				c-0.304,0-0.556-0.104-0.768-0.316c-0.213-0.213-0.316-0.463-0.316-0.768v-5.426h-6.782V204.021z M390.638,195.945h5.108
				l-0.063-0.18c-0.092-0.268-0.194-0.455-0.312-0.574l-3.979-3.979c-0.118-0.117-0.311-0.223-0.573-0.313l-0.182-0.063V195.945z"/>
		</g>
		<g>
			<path fill="#8E969F" d="M385.659,211.66c-0.366,0-0.664-0.291-0.664-0.65s0.298-0.652,0.664-0.652h6.978
				c0.367,0,0.664,0.293,0.664,0.652s-0.297,0.65-0.664,0.65H385.659z"/>
			<path fill="#8E969F" d="M385.659,215.029c-0.366,0-0.664-0.291-0.664-0.65s0.298-0.65,0.664-0.65h6.978
				c0.367,0,0.664,0.291,0.664,0.65s-0.297,0.65-0.664,0.65H385.659z"/>
			<path fill="#8E969F" d="M385.659,218.4c-0.366,0-0.664-0.293-0.664-0.65c0-0.359,0.298-0.652,0.664-0.652h6.978
				c0.367,0,0.664,0.293,0.664,0.652c0,0.357-0.297,0.65-0.664,0.65H385.659z"/>
			<path fill="#8E969F" d="M381.811,222.375h4.07h6.693h3.98c0.332-0.035,0.592-0.311,0.592-0.646v-14.703
				c0.002-0.174-0.065-0.336-0.189-0.459c-0.125-0.123-0.292-0.191-0.471-0.191h-14.676c-0.367,0-0.664,0.291-0.664,0.65v1.309
				v1.301v10.961v1.129C381.146,222.084,381.443,222.375,381.811,222.375z M382.479,207.678h13.344v13.4h-13.344V207.678z"/>
		</g>
		<g>
			<path fill="#8E969F" d="M389.146,228.844c-1.43,0-2.594,1.164-2.594,2.594c0,1.432,1.164,2.596,2.594,2.596
				c1.431,0,2.594-1.164,2.594-2.596C391.74,230.008,390.577,228.844,389.146,228.844z M389.146,232.623
				c-0.652,0-1.186-0.531-1.186-1.186c0-0.652,0.533-1.186,1.186-1.186c0.653,0,1.185,0.533,1.185,1.186
				C390.331,232.092,389.8,232.623,389.146,232.623z"/>
			<path fill="#8E969F" d="M396.899,233.316l-1.631-1.25c0.046-0.432,0.043-0.852,0-1.258l1.631-1.248
				c0.253-0.195,0.321-0.547,0.159-0.82l-1.579-2.678c-0.158-0.266-0.485-0.379-0.773-0.266l-1.936,0.762
				c-0.354-0.252-0.731-0.467-1.131-0.641l-0.29-2.004c-0.045-0.309-0.311-0.539-0.624-0.539h-3.159
				c-0.313,0-0.578,0.23-0.623,0.539l-0.291,2.004c-0.398,0.174-0.777,0.389-1.131,0.641l-1.934-0.762
				c-0.289-0.113-0.617,0-0.773,0.266l-1.58,2.678c-0.163,0.273-0.093,0.625,0.16,0.82l1.631,1.248
				c-0.047,0.434-0.043,0.852,0,1.258l-1.631,1.25c-0.253,0.193-0.323,0.545-0.16,0.82l1.58,2.676
				c0.156,0.268,0.484,0.379,0.773,0.266l1.934-0.762c0.354,0.254,0.732,0.467,1.131,0.641l0.291,2.004
				c0.045,0.311,0.311,0.539,0.623,0.539h3.159c0.313,0,0.579-0.229,0.624-0.539l0.29-2.004c0.399-0.174,0.777-0.387,1.131-0.641
				l1.936,0.762c0.288,0.113,0.615,0.002,0.773-0.266l1.579-2.676C397.221,233.861,397.152,233.51,396.899,233.316z
				 M394.667,235.709l-1.765-0.695c-0.212-0.082-0.451-0.045-0.628,0.098c-0.426,0.346-0.904,0.615-1.421,0.803
				c-0.218,0.08-0.375,0.273-0.408,0.502l-0.265,1.824h-2.067l-0.266-1.824c-0.033-0.229-0.189-0.422-0.408-0.502
				c-0.518-0.188-0.994-0.457-1.42-0.803c-0.178-0.143-0.418-0.18-0.629-0.098l-1.766,0.695l-1.021-1.732l1.479-1.133
				c0.186-0.143,0.277-0.377,0.238-0.607c-0.094-0.537-0.09-1.076,0-1.598c0.039-0.23-0.053-0.463-0.238-0.605l-1.479-1.135
				l1.021-1.732l1.766,0.695c0.211,0.084,0.451,0.047,0.629-0.098c0.426-0.344,0.902-0.615,1.42-0.803
				c0.219-0.08,0.375-0.271,0.408-0.502l0.266-1.824h2.067l0.265,1.824c0.033,0.23,0.19,0.422,0.408,0.502
				c0.517,0.188,0.995,0.459,1.421,0.803c0.177,0.145,0.416,0.182,0.628,0.098l1.765-0.695l1.023,1.732l-1.479,1.135
				c-0.186,0.143-0.277,0.375-0.237,0.605c0.093,0.539,0.09,1.078,0,1.598c-0.04,0.23,0.052,0.465,0.237,0.607l1.479,1.133
				L394.667,235.709z"/>
		</g>
		<g>
			<g>
				<g>
					<path fill="#8E969F" d="M396.872,90.435l-7.289-5.669c-0.257-0.2-0.616-0.2-0.874,0l-7.288,5.669
						c-0.173,0.135-0.274,0.342-0.274,0.562v8.907c0,1.286,1.046,2.332,2.331,2.332h11.338c1.285,0,2.331-1.046,2.331-2.332v-8.907
						C397.146,90.776,397.045,90.569,396.872,90.435z M395.723,99.903c0,0.501-0.407,0.908-0.907,0.908h-11.338
						c-0.5,0-0.907-0.407-0.907-0.908v-8.56l6.576-5.114l6.576,5.114V99.903z"/>
				</g>
			</g>
			<g>
				<g>
					<path fill="#8E969F" d="M391.576,92.714h-4.859c-0.393,0-0.712,0.318-0.712,0.712v8.098c0,0.394,0.319,0.712,0.712,0.712
						c0.394,0,0.712-0.318,0.712-0.712v-7.387h3.436v7.387c0,0.394,0.318,0.712,0.712,0.712c0.393,0,0.711-0.318,0.711-0.712v-8.098
						C392.287,93.032,391.969,92.714,391.576,92.714z"/>
				</g>
			</g>
		</g>
		<g>
			<path fill="#FFFFFF" d="M396.699,263.152l-7.275-3.973c-0.177-0.08-0.379-0.08-0.555,0l-7.275,3.973
				c-0.236,0.105-0.394,0.338-0.402,0.6c-0.01,0.258,0.13,0.502,0.359,0.623l7.275,3.879c0.1,0.055,0.211,0.08,0.32,0.08
				c0.111,0,0.221-0.025,0.321-0.08l7.274-3.879c0.229-0.121,0.369-0.365,0.36-0.623
				C397.093,263.49,396.936,263.258,396.699,263.152L396.699,263.152z M389.146,266.881l-5.725-3.053l5.725-3.279l5.725,3.279
				L389.146,266.881z M389.146,266.881"/>
			<path fill="#FFFFFF" d="M396.101,267.148l-6.954,3.709l-6.954-3.709c-0.333-0.178-0.746-0.053-0.923,0.279
				c-0.176,0.334-0.051,0.746,0.281,0.922l7.275,3.881c0.1,0.055,0.211,0.08,0.32,0.08c0.111,0,0.221-0.025,0.321-0.08l7.274-3.881
				c0.332-0.176,0.457-0.588,0.28-0.922C396.847,267.096,396.434,266.971,396.101,267.148L396.101,267.148z M396.101,267.148"/>
			<path fill="#FFFFFF" d="M396.101,270.902l-6.954,3.709l-6.954-3.709c-0.333-0.178-0.746-0.053-0.923,0.279
				c-0.176,0.334-0.051,0.746,0.281,0.922l7.275,3.881c0.1,0.053,0.211,0.08,0.32,0.08c0.111,0,0.221-0.027,0.321-0.08l7.274-3.881
				c0.332-0.176,0.457-0.588,0.28-0.922C396.845,270.85,396.434,270.725,396.101,270.902L396.101,270.902z M396.101,270.902"/>
		</g>
		<g>
			<g>
				<g>
					<path fill="#FFFFFF" d="M389.146,285.682c0.67,0,1.235,0.424,1.235,0.926s-0.565,0.926-1.235,0.926
						c-0.336,0-0.649-0.104-0.883-0.293c-0.263-0.215-0.652-0.176-0.868,0.088c-0.216,0.266-0.177,0.654,0.089,0.869
						c0.298,0.242,0.658,0.406,1.045,0.494v0.695c0,0.34,0.276,0.617,0.617,0.617s0.618-0.277,0.618-0.617v-0.695
						c1.062-0.24,1.853-1.08,1.853-2.084c0-1.191-1.108-2.16-2.471-2.16c-0.669,0-1.234-0.424-1.234-0.928
						c0-0.502,0.565-0.926,1.234-0.926c0.336,0,0.65,0.104,0.883,0.295c0.265,0.213,0.653,0.176,0.869-0.09
						c0.216-0.264,0.176-0.652-0.09-0.869c-0.297-0.242-0.658-0.404-1.044-0.492v-0.695c0-0.342-0.277-0.617-0.618-0.617
						s-0.617,0.275-0.617,0.617v0.693c-1.063,0.242-1.853,1.08-1.853,2.084C386.677,284.713,387.784,285.682,389.146,285.682z"/>
				</g>
			</g>
			<path fill="#FFFFFF" d="M381.811,293.064h4.07h6.694h3.979c0.332-0.035,0.592-0.313,0.592-0.646v-14.705
				c0.002-0.172-0.065-0.336-0.188-0.457c-0.125-0.125-0.293-0.191-0.472-0.191h-14.676c-0.367,0-0.664,0.291-0.664,0.65v1.307
				v1.303v10.959v1.131C381.146,292.771,381.443,293.064,381.811,293.064z M382.479,278.365h13.344v13.4h-13.344V278.365z"/>
		</g>
		<g>
			<path fill="#FFFFFF" d="M396.957,294.254c-0.125-0.123-0.292-0.189-0.471-0.189h-14.676c-0.367,0-0.664,0.291-0.664,0.65v1.307
				v1.303v10.959v1.129c0,0.359,0.297,0.652,0.664,0.652h4.07h6.693h3.98c0.332-0.037,0.592-0.313,0.592-0.646v-14.705
				C397.148,294.541,397.081,294.377,396.957,294.254z M382.479,295.365h13.344v13.4h-0.016c-0.144-0.324-0.307-0.641-0.496-0.938
				c-0.06-0.094-0.117-0.184-0.182-0.273c-0.072-0.104-0.148-0.203-0.227-0.303c-0.145-0.184-0.296-0.363-0.457-0.531
				c-0.021-0.021-0.039-0.045-0.06-0.064c-0.438-0.445-0.93-0.838-1.468-1.166c-0.001-0.002-0.003-0.002-0.004-0.002
				c-0.271-0.166-0.555-0.316-0.849-0.445h0.001c-0.896-0.396-1.883-0.617-2.92-0.617s-2.024,0.221-2.92,0.617l0,0
				c-0.293,0.129-0.577,0.279-0.849,0.445c0,0-0.002,0-0.003,0.002c-0.539,0.328-1.031,0.721-1.469,1.166
				c-0.02,0.02-0.038,0.043-0.057,0.063c-0.163,0.17-0.314,0.35-0.459,0.533c-0.078,0.1-0.154,0.199-0.227,0.303
				c-0.064,0.09-0.122,0.182-0.184,0.273c-0.189,0.299-0.352,0.613-0.495,0.938h-0.007V295.365z M384.258,308.766
				c1.016-1.646,2.842-2.752,4.889-2.752s3.872,1.105,4.889,2.752H384.258z"/>
			<path fill="#FFFFFF" d="M387.451,302.363c0.494,0.367,1.077,0.561,1.689,0.561c0.143,0,0.282-0.01,0.423-0.031
				c0.752-0.111,1.415-0.51,1.869-1.121c0.453-0.611,0.642-1.361,0.529-2.111c-0.09-0.607-0.367-1.16-0.803-1.596
				c-0.433-0.434-0.983-0.713-1.595-0.803c-0.276-0.043-0.561-0.043-0.834,0c-0.752,0.111-1.415,0.508-1.869,1.119
				s-0.643,1.361-0.53,2.113C386.441,301.246,386.84,301.91,387.451,302.363z M387.886,299.141c0.25-0.336,0.616-0.557,1.03-0.617
				c0.076-0.012,0.154-0.016,0.23-0.016c0.078,0,0.154,0.004,0.23,0.016c0.689,0.102,1.222,0.633,1.324,1.322
				c0.061,0.414-0.043,0.828-0.294,1.166c-0.25,0.338-0.616,0.559-1.031,0.619c-0.415,0.063-0.829-0.043-1.166-0.293
				c-0.336-0.248-0.556-0.615-0.617-1.031C387.531,299.893,387.635,299.479,387.886,299.141z"/>
		</g>
		<g>
			<rect x="391.856" y="318.219" fill="#FFFFFF" width="1.348" height="2.086"/>
			<rect x="385.188" y="318.219" fill="#FFFFFF" width="1.347" height="2.086"/>
			<path fill="#FFFFFF" d="M381.786,326.543c-0.328,0-0.604-0.252-0.64-0.586l0.001-11.266c0-0.361,0.289-0.658,0.645-0.658h4.135
				v-2.969h6.348v2.971l4.229-0.002c0.355,0,0.643,0.297,0.643,0.658v11.201c0,0.178-0.066,0.344-0.188,0.467
				c-0.119,0.119-0.277,0.186-0.447,0.186l0,0L381.786,326.543z M382.432,325.234h13.428v-9.881h-13.429L382.432,325.234z
				 M387.274,314.033l3.652,0.002v-1.736h-3.652V314.033z"/>
		</g>
		<g>
			<path fill="#FFFFFF" d="M383.852,332.965h2.247v2.246c0,0.377,0.304,0.682,0.681,0.682c0.378,0,0.682-0.305,0.682-0.682v-2.246
				h2.247c0.377,0,0.681-0.305,0.681-0.682s-0.304-0.682-0.681-0.682h-2.247v-2.25c0-0.377-0.304-0.682-0.682-0.682
				c-0.377,0-0.681,0.305-0.681,0.682v2.246h-2.247c-0.377,0-0.682,0.305-0.682,0.682S383.478,332.965,383.852,332.965
				L383.852,332.965z M383.852,332.965"/>
			<path fill="#FFFFFF" d="M396.469,327.545h-3.288c-0.378,0-0.682,0.303-0.682,0.68v9.377h-10.671c-0.377,0-0.682,0.303-0.682,0.68
				c0,0.379,0.305,0.682,0.682,0.682h11.349c0.378,0,0.682-0.303,0.682-0.682v-9.371h2.607c0.377,0,0.681-0.305,0.681-0.682
				C397.15,327.852,396.843,327.545,396.469,327.545L396.469,327.545z M396.469,327.545"/>
			<path fill="#FFFFFF" d="M384.093,339.734c-1.272,0-2.308,1.029-2.308,2.293c0,1.266,1.035,2.295,2.308,2.295
				c1.271,0,2.307-1.029,2.307-2.295C386.399,340.764,385.364,339.734,384.093,339.734L384.093,339.734z M384.093,342.959
				c-0.521,0-0.945-0.416-0.945-0.932c0-0.514,0.425-0.93,0.945-0.93s0.944,0.416,0.944,0.93
				C385.037,342.543,384.613,342.959,384.093,342.959L384.093,342.959z M384.093,342.959"/>
			<path fill="#FFFFFF" d="M390.816,339.734c-1.272,0-2.308,1.029-2.308,2.293c0,1.266,1.035,2.295,2.308,2.295
				c1.271,0,2.307-1.029,2.307-2.295C393.123,340.764,392.088,339.734,390.816,339.734L390.816,339.734z M390.816,342.959
				c-0.521,0-0.945-0.416-0.945-0.932c0-0.514,0.424-0.93,0.945-0.93c0.521,0,0.944,0.416,0.944,0.93
				C391.761,342.543,391.337,342.959,390.816,342.959L390.816,342.959z M390.816,342.959"/>
		</g>
		<g>
			<path fill="#FFFFFF" d="M382.23,361.26c-0.304,0-0.555-0.102-0.769-0.314c-0.212-0.213-0.315-0.465-0.315-0.77v-13.77
				c0-0.301,0.106-0.561,0.315-0.77c0.214-0.211,0.465-0.314,0.769-0.314h8.137c0.32,0,0.679,0.082,1.066,0.244
				c0.389,0.16,0.699,0.355,0.922,0.58l3.967,3.967c0.225,0.223,0.42,0.533,0.581,0.922c0.162,0.389,0.244,0.748,0.243,1.066v8.074
				c0,0.305-0.104,0.557-0.315,0.77c-0.213,0.213-0.464,0.314-0.768,0.314H382.23z M382.501,359.906h13.292v-6.721h-5.426
				c-0.304,0-0.556-0.104-0.768-0.316c-0.213-0.213-0.316-0.463-0.316-0.768v-5.426h-6.782V359.906z M390.638,351.83h5.108
				l-0.063-0.18c-0.092-0.268-0.194-0.455-0.312-0.574l-3.979-3.979c-0.118-0.117-0.311-0.223-0.573-0.313l-0.182-0.063V351.83z"/>
		</g>
		<g>
			<path fill="#FFFFFF" d="M385.659,367.545c-0.366,0-0.664-0.291-0.664-0.65s0.298-0.652,0.664-0.652h6.978
				c0.367,0,0.664,0.293,0.664,0.652s-0.297,0.65-0.664,0.65H385.659z"/>
			<path fill="#FFFFFF" d="M385.659,370.914c-0.366,0-0.664-0.291-0.664-0.65s0.298-0.65,0.664-0.65h6.978
				c0.367,0,0.664,0.291,0.664,0.65s-0.297,0.65-0.664,0.65H385.659z"/>
			<path fill="#FFFFFF" d="M385.659,374.285c-0.366,0-0.664-0.293-0.664-0.65c0-0.359,0.298-0.652,0.664-0.652h6.978
				c0.367,0,0.664,0.293,0.664,0.652c0,0.357-0.297,0.65-0.664,0.65H385.659z"/>
			<path fill="#FFFFFF" d="M381.811,378.26h4.07h6.693h3.98c0.332-0.035,0.592-0.311,0.592-0.646V362.91
				c0.002-0.174-0.065-0.336-0.189-0.459c-0.125-0.123-0.292-0.191-0.471-0.191h-14.676c-0.367,0-0.664,0.291-0.664,0.65v1.309
				v1.301v10.961v1.129C381.146,377.969,381.443,378.26,381.811,378.26z M382.479,363.563h13.344v13.4h-13.344V363.563z"/>
		</g>
		<g>
			<path fill="#FFFFFF" d="M389.146,384.729c-1.43,0-2.594,1.164-2.594,2.594c0,1.432,1.164,2.596,2.594,2.596
				c1.431,0,2.594-1.164,2.594-2.596C391.74,385.893,390.577,384.729,389.146,384.729z M389.146,388.508
				c-0.652,0-1.186-0.531-1.186-1.186c0-0.652,0.533-1.186,1.186-1.186c0.653,0,1.185,0.533,1.185,1.186
				C390.331,387.977,389.8,388.508,389.146,388.508z"/>
			<path fill="#FFFFFF" d="M396.899,389.201l-1.631-1.25c0.046-0.432,0.043-0.852,0-1.258l1.631-1.248
				c0.253-0.195,0.321-0.547,0.159-0.82l-1.579-2.678c-0.158-0.266-0.485-0.379-0.773-0.266l-1.936,0.762
				c-0.354-0.252-0.731-0.467-1.131-0.641l-0.29-2.004c-0.045-0.309-0.311-0.539-0.624-0.539h-3.159
				c-0.313,0-0.578,0.23-0.623,0.539l-0.291,2.004c-0.398,0.174-0.777,0.389-1.131,0.641l-1.934-0.762
				c-0.289-0.113-0.617,0-0.773,0.266l-1.58,2.678c-0.163,0.273-0.093,0.625,0.16,0.82l1.631,1.248
				c-0.047,0.434-0.043,0.852,0,1.258l-1.631,1.25c-0.253,0.193-0.323,0.545-0.16,0.82l1.58,2.676
				c0.156,0.268,0.484,0.379,0.773,0.266l1.934-0.762c0.354,0.254,0.732,0.467,1.131,0.641l0.291,2.004
				c0.045,0.311,0.311,0.539,0.623,0.539h3.159c0.313,0,0.579-0.229,0.624-0.539l0.29-2.004c0.399-0.174,0.777-0.387,1.131-0.641
				l1.936,0.762c0.288,0.113,0.615,0.002,0.773-0.266l1.579-2.676C397.221,389.746,397.152,389.395,396.899,389.201z
				 M394.667,391.594l-1.765-0.695c-0.212-0.082-0.451-0.045-0.628,0.098c-0.426,0.346-0.904,0.615-1.421,0.803
				c-0.218,0.08-0.375,0.273-0.408,0.502l-0.265,1.824h-2.067l-0.266-1.824c-0.033-0.229-0.189-0.422-0.408-0.502
				c-0.518-0.188-0.994-0.457-1.42-0.803c-0.178-0.143-0.418-0.18-0.629-0.098l-1.766,0.695l-1.021-1.732l1.479-1.133
				c0.186-0.143,0.277-0.377,0.238-0.607c-0.094-0.537-0.09-1.076,0-1.598c0.039-0.23-0.053-0.463-0.238-0.605l-1.479-1.135
				l1.021-1.732l1.766,0.695c0.211,0.084,0.451,0.047,0.629-0.098c0.426-0.344,0.902-0.615,1.42-0.803
				c0.219-0.08,0.375-0.271,0.408-0.502l0.266-1.824h2.067l0.265,1.824c0.033,0.23,0.19,0.422,0.408,0.502
				c0.517,0.188,0.995,0.459,1.421,0.803c0.177,0.145,0.416,0.182,0.628,0.098l1.765-0.695l1.023,1.732l-1.479,1.135
				c-0.186,0.143-0.277,0.375-0.237,0.605c0.093,0.539,0.09,1.078,0,1.598c-0.04,0.23,0.052,0.465,0.237,0.607l1.479,1.133
				L394.667,391.594z"/>
		</g>
		<g>
			<g>
				<g>
					<path fill="#FFFFFF" d="M396.872,246.32l-7.289-5.67c-0.257-0.199-0.616-0.199-0.874,0l-7.288,5.67
						c-0.173,0.135-0.274,0.342-0.274,0.561v8.908c0,1.285,1.046,2.332,2.331,2.332h11.338c1.285,0,2.331-1.047,2.331-2.332v-8.908
						C397.146,246.662,397.045,246.455,396.872,246.32z M395.723,255.789c0,0.5-0.407,0.908-0.907,0.908h-11.338
						c-0.5,0-0.907-0.408-0.907-0.908v-8.561l6.576-5.113l6.576,5.113V255.789z"/>
				</g>
			</g>
			<g>
				<g>
					<path fill="#FFFFFF" d="M391.576,248.6h-4.859c-0.393,0-0.712,0.318-0.712,0.711v8.098c0,0.395,0.319,0.713,0.712,0.713
						c0.394,0,0.712-0.318,0.712-0.713v-7.387h3.436v7.387c0,0.395,0.318,0.713,0.712,0.713c0.393,0,0.711-0.318,0.711-0.713v-8.098
						C392.287,248.918,391.969,248.6,391.576,248.6z"/>
				</g>
			</g>
		</g>
	</g>
	<g>
		<g>
			<path fill="#FFFFFF" d="M1332.17,243.895l3.895-3.895l-3.895-3.895l-1.105,1.105l2.789,2.789l-2.789,2.791L1332.17,243.895z
				 M1332.17,243.895"/>
		</g>
		<g>
			<path fill="#8592A0" d="M1338.17,243.895l3.895-3.895l-3.895-3.895l-1.105,1.105l2.789,2.789l-2.789,2.791L1338.17,243.895z
				 M1338.17,243.895"/>
		</g>
	</g>
	<g>
		<g>
			<path fill="#F04C23" d="M1379.854,244.396l-3.895-3.895l-3.895,3.895l1.104,1.105l2.791-2.789l2.789,2.789L1379.854,244.396z
				 M1379.854,244.396"/>
		</g>
		<g>
			<path fill="#B9BEC9" d="M1372.064,235.606l3.895,3.895l3.895-3.895l-1.105-1.105l-2.789,2.789l-2.791-2.789L1372.064,235.606z
				 M1372.064,235.606"/>
		</g>
	</g>
	<g opacity="0.08">
		<path d="M283.131,306.866H219.25l-21.599,21.141h-11.03l10.111-21.141h-6.894c-15.626,0-26.195-12.408-28.494-27.113
			l-10.109-68.477c-0.461-2.297,0.919-3.678,3.217-3.678h41.361c2.297,0,3.676,1.381,3.676,3.678l6.434,42.74
			c0.46,3.676,2.758,5.055,5.975,5.055h78.586c3.218,0,5.056-1.379,5.975-5.055l6.434-42.74c0.46-2.297,1.838-3.217,3.677-3.678
			h41.361c2.299,0,3.217,1.381,3.217,3.678l-10.11,68.477c-2.297,14.705-12.408,27.113-28.493,27.113h-6.893l10.109,21.141h-11.03
			L283.131,306.866z"/>
		<path d="M221.089,242.067l-5.055-34.008v-0.461c-2.299-10.109-9.651-16.543-19.762-17.002l0,0H188l2.758-21.601
			c0-1.378,2.298-6.894,17.464-11.488c11.488-3.218,26.654-5.515,43.199-5.515c16.085,0,31.71,1.838,42.74,5.515
			c15.165,4.595,17.464,10.11,17.464,11.488l2.756,21.601h-8.271l0,0c-10.11,0.459-17.464,6.893-19.761,17.002v0.461l-5.057,34.008
			H221.089z"/>
	</g>
	<g>
		<path fill="#A4B0BE" d="M432.011,228.378c-0.336,0-0.6-0.264-0.6-0.601s0.263-0.601,0.6-0.601h10.27
			c0.337,0,0.601,0.264,0.601,0.601s-0.264,0.601-0.601,0.601H432.011z"/>
		<path fill="#A4B0BE" d="M432.011,231.824c-0.336,0-0.6-0.264-0.6-0.601s0.263-0.601,0.6-0.601h10.27
			c0.337,0,0.601,0.264,0.601,0.601s-0.264,0.601-0.601,0.601H432.011z"/>
		<path fill="#A4B0BE" d="M430.758,239.5c-0.101,0-0.185-0.019-0.262-0.058c-0.209-0.104-0.338-0.312-0.338-0.542v-2.463h-2.411
			c-0.331,0-0.601-0.27-0.601-0.601v-12.672c0-0.337,0.264-0.601,0.601-0.601h18.799c0.337,0,0.601,0.264,0.601,0.601v12.689
			c0,0.336-0.264,0.6-0.601,0.6h-11.562l-3.859,2.93C431.023,239.457,430.888,239.5,430.758,239.5z M428.347,235.235h2.411
			c0.336,0,0.6,0.265,0.6,0.602v1.848l3.055-2.333c0.102-0.073,0.237-0.116,0.366-0.116h11.149v-11.471h-17.581V235.235z"/>
		<path fill="#F04C23" d="M432.011,246.313c-0.336,0-0.6-0.264-0.6-0.601s0.263-0.601,0.6-0.601h10.27
			c0.337,0,0.601,0.264,0.601,0.601s-0.264,0.601-0.601,0.601H432.011z"/>
		<path fill="#F04C23" d="M432.011,249.76c-0.336,0-0.6-0.264-0.6-0.601s0.263-0.601,0.6-0.601h10.27
			c0.337,0,0.601,0.264,0.601,0.601s-0.264,0.601-0.601,0.601H432.011z"/>
		<path fill="#F04C23" d="M430.758,257.436c-0.101,0-0.185-0.019-0.262-0.058c-0.209-0.104-0.338-0.312-0.338-0.542v-2.463h-2.411
			c-0.331,0-0.601-0.27-0.601-0.601v-12.672c0-0.337,0.264-0.601,0.601-0.601h18.799c0.337,0,0.601,0.264,0.601,0.601v12.689
			c0,0.336-0.264,0.6-0.601,0.6h-11.562l-3.859,2.93C431.023,257.393,430.888,257.436,430.758,257.436z M428.347,253.171h2.411
			c0.336,0,0.6,0.265,0.6,0.602v1.848l3.055-2.333c0.102-0.073,0.237-0.116,0.366-0.116h11.149V241.7h-17.581V253.171z"/>
	</g>
	<g>
		<path fill="#A4B0BE" d="M477.146,227.928v-2.313h18.607v2.313l-9.304,7.598L477.146,227.928z M478.444,227.272l8.005,6.564
			l8.005-6.564v-0.36h-16.011V227.272z"/>
		<polygon fill="#A4B0BE" points="477.146,239.5 477.146,231.908 478.444,231.908 478.444,238.202 494.455,238.202 494.455,231.908 
			495.753,231.908 495.753,239.5 		"/>
		<path fill="#F04C23" d="M477.146,242.813V240.5h18.607v2.313l-9.304,7.598L477.146,242.813z M478.444,242.158l8.005,6.564
			l8.005-6.564v-0.36h-16.011V242.158z"/>
		<polygon fill="#F04C23" points="477.146,254.386 477.146,246.794 478.444,246.794 478.444,253.088 494.455,253.088 
			494.455,246.794 495.753,246.794 495.753,254.386 		"/>
	</g>
	<g>
		<g>
			<g>
				<g>
					<path fill="#A4B0BE" d="M539.643,230.692c-0.333,0-0.603,0.271-0.603,0.604v6.994l-12.08-0.019l0.019-12.081h6.996
						c0.333,0,0.603-0.27,0.603-0.604c0-0.333-0.27-0.603-0.603-0.603h-7.598c-0.333,0-0.602,0.27-0.603,0.602l-0.02,13.287
						c0,0.159,0.063,0.313,0.176,0.427c0.112,0.113,0.266,0.177,0.426,0.177l13.286,0.021c0,0,0.001,0,0.001,0
						c0.16,0,0.313-0.063,0.426-0.177c0.113-0.112,0.177-0.267,0.177-0.427v-7.598C540.246,230.963,539.976,230.692,539.643,230.692
						z"/>
				</g>
			</g>
			<g>
				<g>
					<path fill="#A4B0BE" d="M541.15,223.497h-4.342c-0.333,0-0.603,0.27-0.603,0.603s0.27,0.604,0.603,0.604h3.739v3.759
						c0,0.333,0.27,0.603,0.603,0.603s0.603-0.27,0.603-0.603V224.1C541.753,223.767,541.483,223.497,541.15,223.497z"/>
				</g>
			</g>
			<g>
				<g>
					<path fill="#A4B0BE" d="M541.577,223.674c-0.235-0.235-0.617-0.235-0.853,0l-7.759,7.759c-0.236,0.235-0.236,0.617,0,0.853
						c0.118,0.117,0.272,0.177,0.426,0.177s0.309-0.06,0.426-0.177l7.759-7.759C541.813,224.291,541.813,223.909,541.577,223.674z"
						/>
				</g>
			</g>
		</g>
		<g>
			<g>
				<g>
					<path fill="#F04C23" d="M539.643,247.699c-0.333,0-0.604,0.271-0.604,0.604v6.994l-12.079-0.019l0.019-12.081h6.996
						c0.333,0,0.603-0.27,0.603-0.604c0-0.333-0.27-0.603-0.603-0.603h-7.599c-0.332,0-0.602,0.27-0.603,0.602l-0.021,13.287
						c0,0.159,0.063,0.313,0.177,0.427c0.112,0.113,0.266,0.177,0.426,0.177l13.286,0.021h0.001c0.16,0,0.313-0.063,0.426-0.177
						c0.113-0.112,0.177-0.267,0.177-0.427v-7.598C540.246,247.97,539.976,247.699,539.643,247.699z"/>
				</g>
			</g>
			<g>
				<g>
					<path fill="#F04C23" d="M541.151,240.504h-4.342c-0.333,0-0.604,0.27-0.604,0.603s0.271,0.604,0.604,0.604h3.738v3.759
						c0,0.333,0.271,0.603,0.604,0.603s0.603-0.27,0.603-0.603v-4.362C541.753,240.773,541.484,240.504,541.151,240.504z"/>
				</g>
			</g>
			<g>
				<g>
					<path fill="#F04C23" d="M541.577,240.681c-0.235-0.235-0.617-0.235-0.853,0l-7.759,7.759c-0.235,0.235-0.235,0.617,0,0.853
						c0.118,0.117,0.272,0.177,0.427,0.177s0.309-0.06,0.426-0.177l7.759-7.759C541.813,241.298,541.813,240.916,541.577,240.681z"
						/>
				</g>
			</g>
		</g>
	</g>
	<g>
		<g>
			<g>
				<g>
					<path fill="#A4B0BE" d="M579.996,233.608c-4.626,0-8.242,1.646-8.242,4.381v0.844c0,0.369,0.299,0.668,0.668,0.668
						c0.369,0,0.668-0.299,0.668-0.668v-0.844c0-1.92,3.159-3.008,6.906-3.008c3.748,0,6.914,1.088,6.914,3.008v0.844
						c0,0.369,0.299,0.668,0.668,0.668c0.369,0,0.668-0.299,0.668-0.668v-0.844C588.246,235.255,584.622,233.608,579.996,233.608z"
						/>
				</g>
			</g>
			<g>
				<g>
					<path fill="#A4B0BE" d="M584.026,226.946c-0.128-0.863-0.521-1.646-1.139-2.264s-1.399-1.01-2.263-1.139
						c-0.393-0.059-0.792-0.059-1.185,0c-2.203,0.326-3.729,2.385-3.402,4.586c0.158,1.068,0.722,2.008,1.589,2.65
						c0.703,0.523,1.537,0.797,2.397,0.797c0.199,0,0.4-0.016,0.601-0.045C582.827,231.206,584.353,229.147,584.026,226.946z
						 M580.428,230.212c-0.714,0.105-1.426-0.074-2.005-0.504c-0.58-0.43-0.958-1.061-1.063-1.773
						c-0.219-1.475,0.803-2.85,2.276-3.068c0.131-0.02,0.264-0.029,0.396-0.029s0.265,0.01,0.396,0.029
						c1.186,0.176,2.101,1.09,2.276,2.275C582.923,228.616,581.902,229.993,580.428,230.212z"/>
				</g>
			</g>
		</g>
		<g>
			<g>
				<g>
					<path fill="#F04C23" d="M579.996,250.608c-4.626,0-8.242,1.646-8.242,4.381v0.844c0,0.369,0.299,0.668,0.668,0.668
						c0.369,0,0.668-0.299,0.668-0.668v-0.844c0-1.92,3.159-3.008,6.906-3.008c3.748,0,6.914,1.088,6.914,3.008v0.844
						c0,0.369,0.299,0.668,0.668,0.668c0.369,0,0.668-0.299,0.668-0.668v-0.844C588.246,252.255,584.622,250.608,579.996,250.608z"
						/>
				</g>
			</g>
			<g>
				<g>
					<path fill="#F04C23" d="M584.026,243.946c-0.128-0.863-0.521-1.646-1.139-2.264s-1.399-1.01-2.263-1.139
						c-0.393-0.059-0.792-0.059-1.185,0c-2.203,0.326-3.729,2.385-3.402,4.586c0.158,1.068,0.722,2.008,1.589,2.65
						c0.703,0.523,1.537,0.797,2.397,0.797c0.199,0,0.4-0.016,0.601-0.045C582.827,248.206,584.353,246.147,584.026,243.946z
						 M580.428,247.212c-0.714,0.105-1.426-0.074-2.005-0.504c-0.58-0.43-0.958-1.061-1.063-1.773
						c-0.219-1.475,0.803-2.85,2.276-3.068c0.131-0.02,0.264-0.029,0.396-0.029s0.265,0.01,0.396,0.029
						c1.186,0.176,2.101,1.09,2.276,2.275C582.923,245.616,581.902,246.993,580.428,247.212z"/>
				</g>
			</g>
		</g>
	</g>
	<path fill="#FFFFFF" d="M1412.435,243.31c-0.026,0-0.052-0.01-0.069-0.028l-2.484-2.483c-0.023-0.025-0.027-0.055-0.027-0.069
		s0.004-0.044,0.027-0.069l1.105-1.104c0.018-0.019,0.042-0.028,0.068-0.028c0.025,0,0.051,0.01,0.068,0.028l1.312,1.311
		l4.147-4.147c0.025-0.025,0.055-0.028,0.069-0.028s0.044,0.003,0.069,0.028l1.104,1.104c0.019,0.019,0.029,0.043,0.029,0.069
		s-0.011,0.051-0.029,0.068l-5.32,5.321C1412.485,243.3,1412.46,243.31,1412.435,243.31z"/>
	<g>
		<path fill="#F04C23" d="M1163.219,238.566l-2.143-2.144c0.688-0.861,1.064-1.938,1.064-3.042c0-2.691-2.189-4.881-4.88-4.881
			c-2.691,0-4.88,2.189-4.88,4.881c0,2.69,2.188,4.88,4.88,4.88c1.104,0,2.181-0.377,3.04-1.063l2.143,2.142
			c0.104,0.104,0.242,0.16,0.389,0.16c0.146,0,0.283-0.057,0.387-0.16c0.104-0.103,0.162-0.24,0.162-0.387
			C1163.381,238.806,1163.323,238.668,1163.219,238.566z M1157.261,237.158c-2.085,0-3.78-1.694-3.78-3.777
			c0-2.085,1.695-3.78,3.78-3.78c2.084,0,3.78,1.695,3.78,3.78C1161.041,235.464,1159.345,237.158,1157.261,237.158z"/>
		<path fill="#A4B0BE" d="M1163.219,250.566l-2.143-2.144c0.688-0.861,1.064-1.938,1.064-3.042c0-2.691-2.189-4.881-4.88-4.881
			c-2.691,0-4.88,2.189-4.88,4.881c0,2.69,2.188,4.88,4.88,4.88c1.104,0,2.181-0.377,3.04-1.063l2.143,2.142
			c0.104,0.104,0.242,0.16,0.389,0.16c0.146,0,0.283-0.057,0.387-0.16c0.104-0.103,0.162-0.24,0.162-0.387
			C1163.381,250.806,1163.323,250.668,1163.219,250.566z M1157.261,249.158c-2.085,0-3.78-1.694-3.78-3.777
			c0-2.085,1.695-3.78,3.78-3.78c2.084,0,3.78,1.695,3.78,3.78C1161.041,247.464,1159.345,249.158,1157.261,249.158z"/>
	</g>
	<path fill="#F04C23" d="M1210.639,232.324c-0.086-0.184-0.271-0.301-0.475-0.301h-16.26c-0.202,0-0.388,0.117-0.475,0.301
		c-0.086,0.184-0.059,0.4,0.07,0.558l6.25,7.581v6.99c0,0.182,0.094,0.35,0.248,0.445c0.084,0.053,0.181,0.079,0.277,0.079
		c0.079,0,0.159-0.018,0.232-0.055l3.512-1.74c0.179-0.089,0.291-0.271,0.291-0.47l0.008-5.25l6.25-7.581
		C1210.698,232.725,1210.726,232.508,1210.639,232.324L1210.639,232.324z M1203.389,239.94c-0.077,0.094-0.119,0.212-0.119,0.333
		l-0.007,5.113l-2.464,1.221v-6.333c0-0.122-0.041-0.24-0.119-0.334l-5.662-6.868h14.034L1203.389,239.94z M1203.389,239.94"/>
	<g>
		<path fill="#A4B0BE" d="M794.832,239.5c-0.361,0-0.656-0.294-0.656-0.655v-2.471h-2.576c-0.362,0-0.656-0.295-0.656-0.656v-11.562
			c0-0.362,0.294-0.656,0.656-0.656h11.577c0.361,0,0.656,0.294,0.656,0.656v5.461l2.932,2.932c0.019,0.02,0.032,0.033,0.044,0.048
			c0.101,0.122,0.152,0.266,0.152,0.418l-0.001,5.83c0,0.361-0.294,0.655-0.656,0.655H794.832z M795.488,238.188h10.161v-4.518
			h-5.077c-0.361,0-0.656-0.294-0.656-0.656v-5.076h-4.429V238.188z M792.256,235.063h1.92v-7.779c0-0.362,0.294-0.656,0.656-0.656
			h5.74c0.026,0.001,0.041,0.002,0.056,0.003c0.035,0.003,0.054,0.006,0.072,0.01l0.057,0.015c0,0,0.045,0.015,0.056,0.019
			l0.021,0.008c0.017,0.008,0.033,0.015,0.049,0.024c0.027,0.016,0.039,0.021,0.05,0.029l0.048,0.036
			c0.028,0.021,0.042,0.035,0.056,0.048l1.487,1.487v-3.494h-10.267V235.063z M801.228,232.359h3.494l-3.494-3.494V232.359z"/>
		<path fill="#F04C23" d="M794.832,256.5c-0.361,0-0.656-0.294-0.656-0.655v-2.471h-2.576c-0.362,0-0.656-0.295-0.656-0.656v-11.562
			c0-0.362,0.294-0.656,0.656-0.656h11.577c0.361,0,0.656,0.294,0.656,0.656v5.461l2.932,2.932c0.019,0.02,0.032,0.033,0.044,0.048
			c0.101,0.122,0.152,0.266,0.152,0.418l-0.001,5.83c0,0.361-0.294,0.655-0.656,0.655H794.832z M795.488,255.188h10.161v-4.518
			h-5.077c-0.361,0-0.656-0.294-0.656-0.656v-5.076h-4.429V255.188z M792.256,252.063h1.92v-7.779c0-0.362,0.294-0.656,0.656-0.656
			h5.74c0.026,0.001,0.041,0.002,0.056,0.003c0.035,0.003,0.054,0.006,0.072,0.01l0.057,0.015c0,0,0.045,0.015,0.056,0.019
			l0.021,0.008c0.017,0.008,0.033,0.015,0.049,0.024c0.027,0.016,0.039,0.021,0.05,0.029l0.048,0.036
			c0.028,0.021,0.042,0.035,0.056,0.048l1.487,1.487v-3.494h-10.267V252.063z M801.228,249.359h3.494l-3.494-3.494V249.359z"/>
	</g>
	<g>
		<polygon fill="#A4B0BE" points="836.961,236.939 836.961,223.5 852.417,223.5 852.417,230.086 851.083,230.086 851.083,224.834 
			838.295,224.834 838.295,235.605 844.555,235.605 844.555,236.939 		"/>
		<polygon fill="#A4B0BE" points="851.083,239.5 851.083,236.535 848.119,236.535 848.119,235.201 851.083,235.201 851.083,232.236 
			852.417,232.236 852.417,235.201 855.382,235.201 855.382,236.535 852.417,236.535 852.417,239.5 		"/>
		<rect x="840.789" y="227.535" fill="#A4B0BE" width="6.546" height="1.334"/>
		<rect x="840.789" y="230.763" fill="#A4B0BE" width="4.932" height="1.334"/>
		<polygon fill="#F04C23" points="836.961,253.939 836.961,240.5 852.417,240.5 852.417,247.086 851.083,247.086 851.083,241.834 
			838.295,241.834 838.295,252.605 844.555,252.605 844.555,253.939 		"/>
		<polygon fill="#F04C23" points="851.083,256.5 851.083,253.535 848.119,253.535 848.119,252.201 851.083,252.201 851.083,249.236 
			852.417,249.236 852.417,252.201 855.382,252.201 855.382,253.535 852.417,253.535 852.417,256.5 		"/>
		<rect x="840.789" y="244.535" fill="#F04C23" width="6.546" height="1.334"/>
		<rect x="840.789" y="247.763" fill="#F04C23" width="4.932" height="1.334"/>
	</g>
	<g>
		<path fill="#738597" d="M989.252,233.503l4.066-4.066c0.098-0.098,0.098-0.256,0-0.354l-1.502-1.503
			c-0.047-0.047-0.111-0.073-0.177-0.073c-0.066,0-0.13,0.026-0.177,0.073l-4.066,4.066l-4.067-4.066
			c-0.094-0.094-0.26-0.094-0.354,0l-1.503,1.503c-0.098,0.098-0.098,0.256,0,0.354l4.067,4.066l-4.067,4.066
			c-0.098,0.098-0.098,0.256,0,0.354l1.503,1.503c0.047,0.047,0.11,0.073,0.177,0.073s0.13-0.026,0.177-0.073l4.067-4.066
			l4.066,4.066c0.047,0.047,0.11,0.074,0.177,0.074c0.065,0,0.13-0.027,0.177-0.074l1.502-1.502c0.098-0.098,0.098-0.257,0-0.354
			L989.252,233.503z M989.252,233.503"/>
		<path fill="#F04C23" d="M989.252,246.496l4.066-4.066c0.098-0.098,0.098-0.256,0-0.354l-1.502-1.503
			c-0.047-0.047-0.111-0.073-0.177-0.073c-0.066,0-0.13,0.026-0.177,0.073l-4.066,4.066l-4.067-4.066
			c-0.094-0.094-0.26-0.094-0.354,0l-1.503,1.503c-0.098,0.098-0.098,0.256,0,0.354l4.067,4.066l-4.067,4.066
			c-0.098,0.098-0.098,0.256,0,0.354l1.503,1.503c0.047,0.047,0.11,0.073,0.177,0.073s0.13-0.026,0.177-0.073l4.067-4.066
			l4.066,4.066c0.047,0.047,0.11,0.074,0.177,0.074c0.065,0,0.13-0.027,0.177-0.074l1.502-1.502c0.098-0.098,0.098-0.257,0-0.354
			L989.252,246.496z M989.252,246.496"/>
	</g>
	<path fill="#F04C23" d="M1254.189,233.25h-1.063V232h-1.25v1.25h-7V232h-1.25v1.25h-1.063c-1.035,0-1.875,0.841-1.875,1.875v11
		c0,1.034,0.84,1.875,1.875,1.875h11.625c1.033,0,1.875-0.841,1.875-1.875v-11C1256.064,234.091,1255.223,233.25,1254.189,233.25
		 M1242.564,234.5h1.063v1.25h1.25v-1.25h7v1.25h1.25v-1.25h1.063c0.344,0,0.625,0.28,0.625,0.625v1.969h-12.875v-1.969
		C1241.939,234.78,1242.219,234.5,1242.564,234.5 M1254.189,246.75h-11.625c-0.346,0-0.625-0.28-0.625-0.625v-7.781h12.875v7.781
		C1254.814,246.47,1254.533,246.75,1254.189,246.75"/>
	<g>
		<path fill="#FFFFFF" d="M1300.234,239.166h-5.836v-5.836c0-0.456-0.375-0.83-0.83-0.83c-0.465,0-0.838,0.374-0.838,0.83v5.836
			h-5.838c-0.453,0-0.828,0.374-0.828,0.838c0,0.456,0.375,0.83,0.828,0.83h5.838v5.836c0,0.458,0.373,0.83,0.838,0.83
			c0.455,0,0.83-0.372,0.83-0.83v-5.836h5.836c0.455,0,0.83-0.374,0.83-0.83C1301.064,239.54,1300.689,239.166,1300.234,239.166
			L1300.234,239.166z M1300.234,239.166"/>
	</g>
	<g>
		<g>
			<path fill="#F04C23" d="M1121.661,238.055H1110.1c-0.395,0-0.719,0.324-0.719,0.727c0,0.395,0.324,0.719,0.719,0.719h11.562
				c0.395,0,0.72-0.324,0.72-0.719C1122.381,238.379,1122.056,238.055,1121.661,238.055L1121.661,238.055z M1121.661,238.055"/>
		</g>
		<g>
			<path fill="#A4B0BE" d="M1121.661,240.5H1110.1c-0.395,0-0.719,0.324-0.719,0.727c0,0.395,0.324,0.719,0.719,0.719h11.562
				c0.395,0,0.72-0.324,0.72-0.719C1122.381,240.824,1122.056,240.5,1121.661,240.5L1121.661,240.5z M1121.661,240.5"/>
		</g>
	</g>
	<g>
		<g>
			<path fill="#F04C23" d="M1078.661,232.277h-5.058v-5.058c0-0.396-0.325-0.72-0.719-0.72c-0.402,0-0.727,0.324-0.727,0.72v5.058
				h-5.059c-0.395,0-0.719,0.324-0.719,0.727c0,0.395,0.324,0.719,0.719,0.719h5.059v5.058c0,0.397,0.324,0.72,0.727,0.72
				c0.394,0,0.719-0.322,0.719-0.72v-5.058h5.058c0.395,0,0.72-0.324,0.72-0.719
				C1079.381,232.602,1079.056,232.277,1078.661,232.277L1078.661,232.277z M1078.661,232.277"/>
		</g>
		<g>
			<path fill="#A4B0BE" d="M1078.661,246.277h-5.058v-5.058c0-0.396-0.325-0.72-0.719-0.72c-0.402,0-0.727,0.324-0.727,0.72v5.058
				h-5.059c-0.395,0-0.719,0.324-0.719,0.727c0,0.395,0.324,0.719,0.719,0.719h5.059v5.058c0,0.397,0.324,0.72,0.727,0.72
				c0.394,0,0.719-0.322,0.719-0.72v-5.058h5.058c0.395,0,0.72-0.324,0.72-0.719
				C1079.381,246.602,1079.056,246.277,1078.661,246.277L1078.661,246.277z M1078.661,246.277"/>
		</g>
	</g>
	<g>
		<g>
			<rect x="618.246" y="238.225" fill="#A4B0BE" width="12.752" height="1.275"/>
			<path fill="#A4B0BE" d="M630.615,226.943l-3.443-3.443l-8.926,8.926v3.443h3.443L630.615,226.943z M619.521,234.594v-1.657
				l7.651-7.651l1.658,1.658l-7.651,7.65H619.521z M619.521,234.594"/>
		</g>
		<g>
			<rect x="618.246" y="255.225" fill="#FFFFFF" width="12.752" height="1.275"/>
			<path fill="#FFFFFF" d="M630.615,243.943l-3.443-3.443l-8.926,8.926v3.443h3.443L630.615,243.943z M619.521,251.594v-1.657
				l7.651-7.651l1.658,1.658l-7.651,7.65H619.521z M619.521,251.594"/>
		</g>
	</g>
	<g>
		<g>
			<g>
				<g>
					<path fill="#A4B0BE" d="M674.498,226.441h-13.236c-0.357,0-0.646,0.289-0.646,0.646c0,0.356,0.29,0.646,0.646,0.646h13.236
						c0.357,0,0.646-0.29,0.646-0.646C675.144,226.73,674.854,226.441,674.498,226.441z"/>
				</g>
			</g>
			<g>
				<g>
					<path fill="#A4B0BE" d="M673.027,226.441c-0.357,0-0.646,0.289-0.646,0.646v10.295c0,0.455-0.37,0.824-0.824,0.824h-7.354
						c-0.455,0-0.825-0.369-0.825-0.824v-10.295c0-0.357-0.289-0.646-0.646-0.646s-0.646,0.289-0.646,0.646v10.295
						c0,1.167,0.95,2.117,2.117,2.117h7.354c1.167,0,2.117-0.95,2.117-2.117v-10.295
						C673.673,226.73,673.384,226.441,673.027,226.441z"/>
				</g>
			</g>
			<g>
				<g>
					<path fill="#A4B0BE" d="M669.35,223.5h-2.941c-1.167,0-2.117,0.949-2.117,2.117v1.471c0,0.356,0.29,0.646,0.646,0.646
						s0.646-0.29,0.646-0.646v-1.471c0-0.455,0.37-0.824,0.824-0.824h2.941c0.455,0,0.824,0.369,0.824,0.824v1.471
						c0,0.356,0.29,0.646,0.646,0.646s0.646-0.29,0.646-0.646v-1.471C671.467,224.449,670.518,223.5,669.35,223.5z"/>
				</g>
			</g>
			<g>
				<g>
					<path fill="#A4B0BE" d="M666.409,230.118c-0.357,0-0.646,0.289-0.646,0.646v4.412c0,0.357,0.29,0.646,0.646,0.646
						s0.646-0.289,0.646-0.646v-4.412C667.055,230.407,666.766,230.118,666.409,230.118z"/>
				</g>
			</g>
			<g>
				<g>
					<path fill="#A4B0BE" d="M669.35,230.118c-0.357,0-0.646,0.289-0.646,0.646v4.412c0,0.357,0.29,0.646,0.646,0.646
						s0.646-0.289,0.646-0.646v-4.412C669.997,230.407,669.707,230.118,669.35,230.118z"/>
				</g>
			</g>
		</g>
		<g>
			<g>
				<g>
					<path fill="#FFFFFF" d="M674.498,243.441h-13.236c-0.357,0-0.646,0.289-0.646,0.646c0,0.356,0.29,0.646,0.646,0.646h13.236
						c0.357,0,0.646-0.29,0.646-0.646C675.144,243.73,674.854,243.441,674.498,243.441z"/>
				</g>
			</g>
			<g>
				<g>
					<path fill="#FFFFFF" d="M673.027,243.441c-0.357,0-0.646,0.289-0.646,0.646v10.295c0,0.455-0.37,0.824-0.824,0.824h-7.354
						c-0.455,0-0.825-0.369-0.825-0.824v-10.295c0-0.357-0.289-0.646-0.646-0.646s-0.646,0.289-0.646,0.646v10.295
						c0,1.167,0.95,2.117,2.117,2.117h7.354c1.167,0,2.117-0.95,2.117-2.117v-10.295
						C673.673,243.73,673.384,243.441,673.027,243.441z"/>
				</g>
			</g>
			<g>
				<g>
					<path fill="#FFFFFF" d="M669.35,240.5h-2.941c-1.167,0-2.117,0.949-2.117,2.117v1.471c0,0.356,0.29,0.646,0.646,0.646
						s0.646-0.29,0.646-0.646v-1.471c0-0.455,0.37-0.824,0.824-0.824h2.941c0.455,0,0.824,0.369,0.824,0.824v1.471
						c0,0.356,0.29,0.646,0.646,0.646s0.646-0.29,0.646-0.646v-1.471C671.467,241.449,670.518,240.5,669.35,240.5z"/>
				</g>
			</g>
			<g>
				<g>
					<path fill="#FFFFFF" d="M666.409,247.118c-0.357,0-0.646,0.289-0.646,0.646v4.412c0,0.357,0.29,0.646,0.646,0.646
						s0.646-0.289,0.646-0.646v-4.412C667.055,247.407,666.766,247.118,666.409,247.118z"/>
				</g>
			</g>
			<g>
				<g>
					<path fill="#FFFFFF" d="M669.35,247.118c-0.357,0-0.646,0.289-0.646,0.646v4.412c0,0.357,0.29,0.646,0.646,0.646
						s0.646-0.289,0.646-0.646v-4.412C669.997,247.407,669.707,247.118,669.35,247.118z"/>
				</g>
			</g>
		</g>
	</g>
	<g>
		<g>
			<path fill="#A4B0BE" d="M717.459,223.5h-8.153c-0.042,0-0.098,0-0.142,0.014c-0.015,0.001-0.028,0.011-0.035,0.017
				c-0.02,0.007-0.037,0.013-0.054,0.02c-0.016,0.007-0.033,0.014-0.052,0.02l-0.009,0.006c-0.004,0.005-0.009,0.007-0.015,0.01
				c-0.007,0.004-0.017,0.009-0.022,0.015c-0.04,0.026-0.085,0.057-0.114,0.1l-3.577,3.882c-0.043,0.044-0.072,0.101-0.099,0.155
				c-0.016,0.019-0.017,0.046-0.017,0.063c-0.007,0.021-0.011,0.043-0.014,0.063c-0.003,0.02-0.006,0.038-0.012,0.057l-0.001,10.981
				c0,0.33,0.262,0.599,0.585,0.599h11.73c0.328,0,0.585-0.257,0.585-0.585v-14.83C718.044,223.757,717.788,223.5,717.459,223.5z
				 M706.99,227.396l1.73-1.721v1.721H706.99z M716.875,224.67v13.66h-10.561v-9.777h2.992c0.328,0,0.584-0.257,0.584-0.585v-3.298
				H716.875z"/>
			<path fill="#A4B0BE" d="M707.899,231.459c0,0.328,0.257,0.585,0.585,0.585h6.219c0.329,0,0.585-0.257,0.585-0.585
				s-0.257-0.585-0.585-0.585h-6.219C708.157,230.874,707.899,231.131,707.899,231.459z"/>
			<path fill="#A4B0BE" d="M714.704,233.596h-6.219c-0.328,0-0.585,0.257-0.585,0.584c0,0.328,0.257,0.586,0.585,0.586h6.219
				c0.329,0,0.585-0.258,0.585-0.586C715.289,233.857,715.027,233.596,714.704,233.596z"/>
		</g>
		<g>
			<path fill="#FFFFFF" d="M717.459,240.5h-8.153c-0.042,0-0.098,0-0.142,0.014c-0.015,0.001-0.028,0.011-0.035,0.017
				c-0.02,0.007-0.037,0.013-0.054,0.02c-0.016,0.007-0.033,0.014-0.052,0.02l-0.009,0.006c-0.004,0.005-0.009,0.007-0.015,0.01
				c-0.007,0.004-0.017,0.009-0.022,0.015c-0.04,0.026-0.085,0.057-0.114,0.1l-3.577,3.882c-0.043,0.044-0.072,0.101-0.099,0.155
				c-0.016,0.019-0.017,0.046-0.017,0.063c-0.007,0.021-0.011,0.043-0.014,0.063c-0.003,0.02-0.006,0.038-0.012,0.057l-0.001,10.981
				c0,0.33,0.262,0.599,0.585,0.599h11.73c0.328,0,0.585-0.257,0.585-0.585v-14.83C718.044,240.757,717.788,240.5,717.459,240.5z
				 M706.99,244.396l1.73-1.721v1.721H706.99z M716.875,241.67v13.66h-10.561v-9.777h2.992c0.328,0,0.584-0.257,0.584-0.585v-3.298
				H716.875z"/>
			<path fill="#FFFFFF" d="M707.899,248.459c0,0.328,0.257,0.585,0.585,0.585h6.219c0.329,0,0.585-0.257,0.585-0.585
				s-0.257-0.585-0.585-0.585h-6.219C708.157,247.874,707.899,248.131,707.899,248.459z"/>
			<path fill="#FFFFFF" d="M714.704,250.596h-6.219c-0.328,0-0.585,0.257-0.585,0.584c0,0.328,0.257,0.586,0.585,0.586h6.219
				c0.329,0,0.585-0.258,0.585-0.586C715.289,250.857,715.027,250.596,714.704,250.596z"/>
		</g>
	</g>
	<g>
		<g>
			<path fill="#A4B0BE" d="M760.36,223.5h-8.153c-0.042,0-0.098,0-0.142,0.014c-0.015,0.002-0.028,0.011-0.035,0.017
				c-0.02,0.007-0.037,0.013-0.054,0.02c-0.016,0.007-0.032,0.014-0.051,0.02l-0.009,0.006c-0.004,0.004-0.009,0.007-0.015,0.01
				c-0.007,0.004-0.017,0.009-0.022,0.015c-0.04,0.026-0.085,0.057-0.114,0.1l-3.577,3.882c-0.044,0.044-0.073,0.103-0.099,0.155
				c-0.016,0.019-0.017,0.046-0.017,0.063c-0.007,0.021-0.011,0.043-0.014,0.063c-0.003,0.02-0.006,0.038-0.012,0.057l-0.001,10.981
				c0,0.33,0.262,0.599,0.585,0.599h6.629l-0.006-0.026c-0.06-0.265-0.091-0.529-0.091-0.788c0-0.104,0.006-0.213,0.017-0.332
				l0.002-0.023h-5.965v-9.777h2.992c0.328,0,0.584-0.257,0.584-0.585v-3.298h6.984v3.934l0.018,0.003
				c0.382,0.064,0.76,0.175,1.122,0.328l0.03,0.013v-4.862C760.945,223.757,760.688,223.5,760.36,223.5z M751.621,225.676v1.721
				h-1.73L751.621,225.676z"/>
			<path fill="#A4B0BE" d="M758.465,237.749c-0.248,0-0.46,0.086-0.637,0.259s-0.265,0.379-0.265,0.619
				c0,0.239,0.09,0.444,0.271,0.613s0.396,0.253,0.643,0.253c0.248,0,0.46-0.086,0.637-0.259s0.265-0.38,0.265-0.619
				c0-0.24-0.09-0.444-0.271-0.613S758.713,237.749,758.465,237.749z"/>
			<path fill="#A4B0BE" d="M760.263,231.589c-0.44-0.381-1.01-0.572-1.709-0.572c-0.699,0-1.283,0.199-1.75,0.596
				s-0.741,0.945-0.819,1.645h1.426c0.031-0.307,0.147-0.552,0.348-0.737c0.2-0.184,0.449-0.276,0.749-0.276
				c0.298,0,0.542,0.097,0.731,0.289c0.188,0.192,0.283,0.434,0.283,0.725s-0.09,0.534-0.271,0.73l-0.86,0.861
				c-0.252,0.251-0.415,0.454-0.49,0.606c-0.075,0.154-0.112,0.388-0.112,0.702v0.719h1.333v-0.53c0-0.314,0.071-0.559,0.212-0.73
				c0.055-0.063,0.127-0.14,0.218-0.23c0.09-0.09,0.2-0.196,0.33-0.318c0.129-0.122,0.233-0.222,0.313-0.3
				c0.078-0.079,0.192-0.213,0.342-0.401c0.259-0.314,0.389-0.707,0.389-1.179C760.923,232.502,760.704,231.97,760.263,231.589z"/>
		</g>
		<g>
			<path fill="#FFFFFF" d="M760.36,240.5h-8.153c-0.042,0-0.098,0-0.142,0.014c-0.015,0.002-0.028,0.011-0.035,0.017
				c-0.02,0.007-0.037,0.013-0.054,0.02c-0.016,0.007-0.032,0.014-0.051,0.02l-0.009,0.006c-0.004,0.004-0.009,0.007-0.015,0.01
				c-0.007,0.004-0.017,0.009-0.022,0.015c-0.04,0.026-0.085,0.057-0.114,0.1l-3.577,3.882c-0.044,0.044-0.073,0.103-0.099,0.155
				c-0.016,0.019-0.017,0.046-0.017,0.063c-0.007,0.021-0.011,0.043-0.014,0.063c-0.003,0.02-0.006,0.038-0.012,0.057l-0.001,10.981
				c0,0.33,0.262,0.599,0.585,0.599h6.629l-0.006-0.026c-0.06-0.265-0.091-0.529-0.091-0.788c0-0.104,0.006-0.213,0.017-0.332
				l0.002-0.023h-5.965v-9.777h2.992c0.328,0,0.584-0.257,0.584-0.585v-3.298h6.984v3.934l0.018,0.003
				c0.382,0.064,0.76,0.175,1.122,0.328l0.03,0.013v-4.862C760.945,240.757,760.688,240.5,760.36,240.5z M751.621,242.676v1.721
				h-1.73L751.621,242.676z"/>
			<path fill="#FFFFFF" d="M758.465,254.749c-0.248,0-0.46,0.086-0.637,0.259s-0.265,0.379-0.265,0.619
				c0,0.239,0.09,0.444,0.271,0.613s0.396,0.253,0.643,0.253c0.248,0,0.46-0.086,0.637-0.259s0.265-0.38,0.265-0.619
				c0-0.24-0.09-0.444-0.271-0.613S758.713,254.749,758.465,254.749z"/>
			<path fill="#FFFFFF" d="M760.263,248.589c-0.44-0.381-1.01-0.572-1.709-0.572c-0.699,0-1.283,0.199-1.75,0.596
				s-0.741,0.945-0.819,1.645h1.426c0.031-0.307,0.147-0.552,0.348-0.737c0.2-0.184,0.449-0.276,0.749-0.276
				c0.298,0,0.542,0.097,0.731,0.289c0.188,0.192,0.283,0.434,0.283,0.725s-0.09,0.534-0.271,0.73l-0.86,0.861
				c-0.252,0.251-0.415,0.454-0.49,0.606c-0.075,0.154-0.112,0.388-0.112,0.702v0.719h1.333v-0.53c0-0.314,0.071-0.559,0.212-0.73
				c0.055-0.063,0.127-0.14,0.218-0.23c0.09-0.09,0.2-0.196,0.33-0.318c0.129-0.122,0.233-0.222,0.313-0.3
				c0.078-0.079,0.192-0.213,0.342-0.401c0.259-0.314,0.389-0.707,0.389-1.179C760.923,249.502,760.704,248.97,760.263,248.589z"/>
		</g>
	</g>
	<g>
		<g>
			<path fill="#BEC7CE" d="M1033.135,225.526l-3.246,4.076h6.492L1033.135,225.526z"/>
			<path fill="#BEC7CE" d="M1026.639,234.509l3.244-4.076h-6.49L1026.639,234.509z"/>
		</g>
		<path fill="#BEC7CE" d="M1033.135,235.509l-3.246,4.076h6.492L1033.135,235.509z"/>
		<path fill="#F04C23" d="M1026.639,244.491l3.244-4.076h-6.49L1026.639,244.491z"/>
		<path fill="#F04C23" d="M1033.135,245.491l-3.246,4.076h6.492L1033.135,245.491z"/>
		<path fill="#BEC7CE" d="M1026.639,254.474l3.244-4.076h-6.49L1026.639,254.474z"/>
	</g>
	<g>
		<g>
			<g>
				<g>
					<path fill="#A4B0BE" d="M891.668,223.5h-5.714c-0.315,0-0.572,0.256-0.572,0.571v5.715c0,0.315,0.257,0.571,0.572,0.571h5.714
						c0.315,0,0.571-0.256,0.571-0.571v-5.715C892.24,223.756,891.984,223.5,891.668,223.5z M891.097,229.214h-4.571v-4.571h4.571
						V229.214z"/>
				</g>
			</g>
			<g>
				<g>
					<path fill="#A4B0BE" d="M891.668,232.643h-5.714c-0.315,0-0.572,0.256-0.572,0.571v5.715c0,0.315,0.257,0.571,0.572,0.571
						h5.714c0.315,0,0.571-0.256,0.571-0.571v-5.715C892.24,232.898,891.984,232.643,891.668,232.643z M891.097,238.357h-4.571
						v-4.571h4.571V238.357z"/>
				</g>
			</g>
			<g>
				<g>
					<rect x="894.526" y="225.214" fill="#A4B0BE" width="4.571" height="1.144"/>
				</g>
			</g>
			<g>
				<g>
					<rect x="894.526" y="227.5" fill="#A4B0BE" width="9.143" height="1.143"/>
				</g>
			</g>
			<g>
				<g>
					<rect x="894.526" y="234.357" fill="#A4B0BE" width="4.571" height="1.143"/>
				</g>
			</g>
			<g>
				<g>
					<rect x="894.526" y="236.643" fill="#A4B0BE" width="9.143" height="1.144"/>
				</g>
			</g>
		</g>
		<g>
			<g>
				<g>
					<path fill="#F04C23" d="M891.668,240.5h-5.714c-0.315,0-0.572,0.256-0.572,0.571v5.715c0,0.315,0.257,0.571,0.572,0.571h5.714
						c0.315,0,0.571-0.256,0.571-0.571v-5.715C892.24,240.756,891.984,240.5,891.668,240.5z M891.097,246.214h-4.571v-4.571h4.571
						V246.214z"/>
				</g>
			</g>
			<g>
				<g>
					<path fill="#F04C23" d="M891.668,249.643h-5.714c-0.315,0-0.572,0.256-0.572,0.571v5.715c0,0.315,0.257,0.571,0.572,0.571
						h5.714c0.315,0,0.571-0.256,0.571-0.571v-5.715C892.24,249.898,891.984,249.643,891.668,249.643z M891.097,255.357h-4.571
						v-4.571h4.571V255.357z"/>
				</g>
			</g>
			<g>
				<g>
					<rect x="894.526" y="242.214" fill="#F04C23" width="4.571" height="1.144"/>
				</g>
			</g>
			<g>
				<g>
					<rect x="894.526" y="244.5" fill="#F04C23" width="9.143" height="1.143"/>
				</g>
			</g>
			<g>
				<g>
					<rect x="894.526" y="251.357" fill="#F04C23" width="4.571" height="1.143"/>
				</g>
			</g>
			<g>
				<g>
					<rect x="894.526" y="253.643" fill="#F04C23" width="9.143" height="1.144"/>
				</g>
			</g>
		</g>
	</g>
	<g>
		<g>
			<g>
				<g>
					<path fill="#A4B0BE" d="M950.88,223.501c-1.335,0-15.951,0-16.692,0c-0.287,0-0.52,0.232-0.52,0.519
						c0,0.287,0.232,0.52,0.52,0.52h1.247v14.442c0,0.174,0.087,0.336,0.232,0.433c0.145,0.096,0.329,0.113,0.489,0.046l3.088-1.301
						l3.089,1.301c0.129,0.054,0.274,0.054,0.403,0l3.088-1.301l3.088,1.301c0.161,0.067,0.344,0.05,0.489-0.046
						c0.145-0.097,0.232-0.259,0.232-0.433v-14.442h1.247c0.287,0,0.52-0.232,0.52-0.52
						C951.4,223.733,951.167,223.501,950.88,223.501z M948.595,238.198l-2.569-1.081c-0.129-0.055-0.274-0.055-0.403,0l-3.088,1.3
						l-3.088-1.3c-0.129-0.055-0.274-0.055-0.403,0l-2.569,1.081v-13.659h12.121V238.198z"/>
				</g>
			</g>
			<g>
				<g>
					<path fill="#A4B0BE" d="M945.132,226.271h-5.195c-0.287,0-0.519,0.232-0.519,0.519c0,0.287,0.232,0.52,0.519,0.52h5.195
						c0.287,0,0.519-0.232,0.519-0.52C945.651,226.504,945.418,226.271,945.132,226.271z"/>
				</g>
			</g>
			<g>
				<g>
					<path fill="#A4B0BE" d="M946.344,230.427h-4.849c-0.287,0-0.52,0.232-0.52,0.52s0.233,0.52,0.52,0.52h4.849
						c0.287,0,0.52-0.232,0.52-0.52S946.631,230.427,946.344,230.427z"/>
				</g>
			</g>
			<g>
				<g>
					<circle fill="#A4B0BE" cx="938.794" cy="230.946" r="0.692"/>
				</g>
			</g>
			<g>
				<g>
					<path fill="#A4B0BE" d="M946.344,233.197h-4.849c-0.287,0-0.52,0.232-0.52,0.52s0.233,0.52,0.52,0.52h4.849
						c0.287,0,0.52-0.232,0.52-0.52S946.631,233.197,946.344,233.197z"/>
				</g>
			</g>
			<g>
				<g>
					<circle fill="#A4B0BE" cx="938.794" cy="233.717" r="0.692"/>
				</g>
			</g>
		</g>
		<g>
			<g>
				<g>
					<path fill="#F04C23" d="M950.88,240.501c-1.335,0-15.951,0-16.692,0c-0.287,0-0.52,0.232-0.52,0.519
						c0,0.287,0.232,0.52,0.52,0.52h1.247v14.442c0,0.174,0.087,0.336,0.232,0.433c0.145,0.096,0.329,0.113,0.489,0.046l3.088-1.301
						l3.089,1.301c0.129,0.054,0.274,0.054,0.403,0l3.088-1.301l3.088,1.301c0.161,0.067,0.344,0.05,0.489-0.046
						c0.145-0.097,0.232-0.259,0.232-0.433v-14.442h1.247c0.287,0,0.52-0.232,0.52-0.52
						C951.4,240.733,951.167,240.501,950.88,240.501z M948.595,255.198l-2.569-1.081c-0.129-0.055-0.274-0.055-0.403,0l-3.088,1.3
						l-3.088-1.3c-0.129-0.055-0.274-0.055-0.403,0l-2.569,1.081v-13.659h12.121V255.198z"/>
				</g>
			</g>
			<g>
				<g>
					<path fill="#F04C23" d="M945.132,243.271h-5.195c-0.287,0-0.519,0.232-0.519,0.519c0,0.287,0.232,0.52,0.519,0.52h5.195
						c0.287,0,0.519-0.232,0.519-0.52C945.651,243.504,945.418,243.271,945.132,243.271z"/>
				</g>
			</g>
			<g>
				<g>
					<path fill="#F04C23" d="M946.344,247.427h-4.849c-0.287,0-0.52,0.232-0.52,0.52s0.233,0.52,0.52,0.52h4.849
						c0.287,0,0.52-0.232,0.52-0.52S946.631,247.427,946.344,247.427z"/>
				</g>
			</g>
			<g>
				<g>
					<circle fill="#F04C23" cx="938.794" cy="247.946" r="0.692"/>
				</g>
			</g>
			<g>
				<g>
					<path fill="#F04C23" d="M946.344,250.197h-4.849c-0.287,0-0.52,0.232-0.52,0.52s0.233,0.52,0.52,0.52h4.849
						c0.287,0,0.52-0.232,0.52-0.52S946.631,250.197,946.344,250.197z"/>
				</g>
			</g>
			<g>
				<g>
					<circle fill="#F04C23" cx="938.794" cy="250.717" r="0.692"/>
				</g>
			</g>
		</g>
	</g>
</g>
</svg>
