<svg xmlns="http://www.w3.org/2000/svg" xmlns:xlink="http://www.w3.org/1999/xlink" width="18" height="18" viewBox="0 0 18 18">
    <defs>
        <path id="a" d="M12.851 3.942h3.032a.646.646 0 0 1-.001 1.292h-.822v9.649A2.12 2.12 0 0 1 12.943 17H5.589a2.12 2.12 0 0 1-2.117-2.117V5.234h-.826a.646.646 0 0 1 0-1.292h3.032v-.825C5.678 1.949 6.627 1 7.795 1h2.941c1.166 0 2.117.95 2.115 2.117v.825zm-1.292 0v-.825a.825.825 0 0 0-.824-.824H7.794a.824.824 0 0 0-.824.824v.825h4.589zm2.207 1.292H4.764v9.649c0 .455.369.824.824.824h7.354a.824.824 0 0 0 .824-.824V5.234zM7.795 7.619c.355 0 .646.289.646.646v4.412a.647.647 0 0 1-1.292 0V8.265c0-.357.289-.646.646-.646zm2.941 0c.356 0 .647.289.646.646v4.412a.647.647 0 0 1-1.292 0V8.265c0-.357.289-.646.646-.646z"/>
    </defs>
    <g fill="none" fill-rule="evenodd">
        <mask id="b" fill="#fff">
            <use xlink:href="#a"/>
        </mask>
        <use fill="#C4CCD5" fill-rule="nonzero" xlink:href="#a"/>
        <g fill="#CCD4DB" fill-rule="nonzero" mask="url(#b)">
            <path d="M0 0h18v18H0z"/>
        </g>
    </g>
</svg>
