<?xml version="1.0" encoding="utf-8"?>
<!-- Generator: Adobe Illustrator 22.0.1, SVG Export Plug-In . SVG Version: 6.00 Build 0)  -->
<svg version="1.1" id="Layer_1" xmlns="http://www.w3.org/2000/svg" xmlns:xlink="http://www.w3.org/1999/xlink" x="0px" y="0px"
	 viewBox="0 0 14.528 15.999" enable-background="new 0 0 14.528 15.999" xml:space="preserve">
<path fill="#FFFFFF" d="M13.882,2.941H0.646C0.289,2.941,0,3.23,0,3.587c0,0.356,0.29,0.646,0.646,0.646h13.236
	c0.357,0,0.646-0.29,0.646-0.646C14.528,3.23,14.239,2.941,13.882,2.941z"/>
<path fill="#FFFFFF" d="M12.411,2.941c-0.357,0-0.647,0.289-0.647,0.646v10.295c0,0.455-0.37,0.824-0.824,0.824H3.586
	c-0.455,0-0.825-0.369-0.825-0.824V3.587c0-0.357-0.289-0.646-0.646-0.646S1.469,3.23,1.469,3.587v10.295
	c0,1.167,0.95,2.117,2.117,2.117h7.354c1.167,0,2.117-0.95,2.117-2.117V3.587C13.058,3.23,12.768,2.941,12.411,2.941z"/>
<path fill="#FFFFFF" d="M8.735,0H5.794C4.626,0,3.677,0.949,3.677,2.117v1.471c0,0.356,0.29,0.646,0.647,0.646
	S4.97,3.944,4.97,3.588V2.117c0-0.455,0.37-0.824,0.824-0.824h2.941c0.455,0,0.824,0.369,0.824,0.824v1.471
	c0,0.356,0.29,0.646,0.646,0.646s0.647-0.29,0.647-0.646V2.117C10.852,0.949,9.902,0,8.735,0z"/>
<path fill="#FFFFFF" d="M5.793,6.618c-0.357,0-0.647,0.289-0.647,0.646v4.412c0,0.357,0.29,0.646,0.647,0.646
	s0.646-0.289,0.646-0.646V7.264C6.44,6.907,6.15,6.618,5.793,6.618z"/>
<path fill="#FFFFFF" d="M8.735,6.618c-0.357,0-0.646,0.289-0.646,0.646v4.412c0,0.357,0.29,0.646,0.646,0.646
	c0.357,0,0.647-0.289,0.647-0.646V7.264C9.381,6.907,9.092,6.618,8.735,6.618z"/>
</svg>
