<?xml version="1.0" encoding="utf-8"?>
<!-- Generator: Adobe Illustrator 22.0.1, SVG Export Plug-In . SVG Version: 6.00 Build 0)  -->
<svg version="1.1" id="Layer_1" xmlns="http://www.w3.org/2000/svg" xmlns:xlink="http://www.w3.org/1999/xlink" x="0px" y="0px"
	 viewBox="0 0 14.5 16" style="enable-background:new 0 0 14.5 16;" xml:space="preserve">
<style type="text/css">
	.st0{fill:#F04C23;}
</style>
<g>
	<g>
		<g>
			<path class="st0" d="M13.9,2.9H0.6C0.3,2.9,0,3.2,0,3.6s0.3,0.6,0.6,0.6h13.2c0.4,0,0.6-0.3,0.6-0.6C14.5,3.2,14.2,2.9,13.9,2.9z
				"/>
		</g>
	</g>
	<g>
		<g>
			<path class="st0" d="M12.4,2.9c-0.4,0-0.6,0.3-0.6,0.6v10.3c0,0.5-0.4,0.8-0.8,0.8H3.6c-0.5,0-0.8-0.4-0.8-0.8V3.6
				C2.8,3.2,2.5,3,2.2,3S1.5,3.2,1.5,3.6v10.3c0,1.2,1,2.1,2.1,2.1H11c1.2,0,2.1-0.9,2.1-2.1V3.6C13.1,3.2,12.8,2.9,12.4,2.9z"/>
		</g>
	</g>
	<g>
		<g>
			<path class="st0" d="M8.7,0H5.8C4.6,0,3.7,0.9,3.7,2.1v1.5C3.7,4,4,4.2,4.3,4.2S5,3.9,5,3.6V2.1c0-0.5,0.4-0.8,0.8-0.8h2.9
				c0.5,0,0.8,0.4,0.8,0.8v1.5c0,0.4,0.3,0.6,0.6,0.6s0.6-0.3,0.6-0.6V2.1C10.9,0.9,9.9,0,8.7,0z"/>
		</g>
	</g>
	<g>
		<g>
			<path class="st0" d="M5.8,6.6c-0.4,0-0.6,0.3-0.6,0.6v4.4c0,0.4,0.3,0.6,0.6,0.6s0.6-0.3,0.6-0.6V7.3C6.4,6.9,6.2,6.6,5.8,6.6z"
				/>
		</g>
	</g>
	<g>
		<g>
			<path class="st0" d="M8.7,6.6c-0.4,0-0.6,0.3-0.6,0.6v4.4c0,0.4,0.3,0.6,0.6,0.6s0.6-0.3,0.6-0.6V7.3C9.4,6.9,9.1,6.6,8.7,6.6z"
				/>
		</g>
	</g>
</g>
</svg>
