<?xml version="1.0" encoding="utf-8"?>
<!-- Generator: Adobe Illustrator 22.0.1, SVG Export Plug-In . SVG Version: 6.00 Build 0)  -->
<svg version="1.1" id="Layer_1" xmlns="http://www.w3.org/2000/svg" xmlns:xlink="http://www.w3.org/1999/xlink" x="0px" y="0px"
	 viewBox="0 0 16.492 16.002" enable-background="new 0 0 16.492 16.002" xml:space="preserve">
<path fill="#A4B0BE" d="M8.242,10.109C3.616,10.109,0,11.755,0,14.49v0.844c0,0.369,0.299,0.668,0.668,0.668
	s0.668-0.299,0.668-0.668V14.49c0-1.92,3.159-3.008,6.906-3.008c3.748,0,6.914,1.088,6.914,3.008v0.844
	c0,0.369,0.299,0.668,0.668,0.668s0.668-0.299,0.668-0.668V14.49C16.492,11.755,12.868,10.109,8.242,10.109z"/>
<path fill="#A4B0BE" d="M12.272,3.447c-0.128-0.863-0.521-1.646-1.139-2.264c-0.617-0.617-1.399-1.01-2.263-1.139
	c-0.393-0.059-0.791-0.059-1.185,0C5.482,0.37,3.956,2.429,4.283,4.63c0.158,1.068,0.722,2.008,1.589,2.65
	c0.703,0.523,1.537,0.797,2.397,0.797c0.199,0,0.4-0.016,0.601-0.045C11.073,7.707,12.599,5.648,12.272,3.447z M8.675,6.712
	C7.961,6.817,7.249,6.638,6.67,6.208c-0.58-0.43-0.958-1.061-1.063-1.773C5.388,2.96,6.41,1.585,7.883,1.367
	c0.131-0.019,0.264-0.029,0.396-0.029s0.265,0.01,0.396,0.029c1.186,0.176,2.101,1.09,2.276,2.275
	C11.17,5.117,10.148,6.494,8.675,6.712z"/>
</svg>
