<svg xmlns="http://www.w3.org/2000/svg" width="25" height="24" viewBox="0 0 25 24">
    <path fill="#FFF" fill-rule="nonzero" d="M12.434 15c6.979 0 12.446 2.515 12.446 6.69v1.29c0 .563-.451 1.02-1.008 1.02a1.014 1.014 0 0 1-1.007-1.02v-1.29c0-2.931-4.777-4.593-10.431-4.593-5.653 0-10.418 1.662-10.418 4.594v1.289c0 .563-.452 1.02-1.008 1.02A1.014 1.014 0 0 1 0 22.98v-1.29C0 17.515 5.455 15 12.434 15zm5.414-9.879c.484 3.27-1.772 6.33-5.03 6.812a5.894 5.894 0 0 1-4.433-1.117 5.952 5.952 0 0 1-2.349-3.937C5.553 3.609 7.81.55 11.066.066a5.87 5.87 0 0 1 1.752 0 5.92 5.92 0 0 1 3.346 1.692 5.97 5.97 0 0 1 1.684 3.363zm-5.32 4.853c2.18-.326 3.69-2.372 3.366-4.561a3.979 3.979 0 0 0-3.95-3.423c-.196 0-.393.013-.586.043-2.178.324-3.69 2.366-3.365 4.558a3.988 3.988 0 0 0 1.571 2.634 3.956 3.956 0 0 0 2.965.749z"/>
</svg>
