<?xml version="1.0" encoding="utf-8"?>
<!-- Generator: Adobe Illustrator 22.0.1, SVG Export Plug-In . SVG Version: 6.00 Build 0)  -->
<svg version="1.1" id="Layer_1" xmlns="http://www.w3.org/2000/svg" xmlns:xlink="http://www.w3.org/1999/xlink" x="0px" y="0px"
	 viewBox="0 0 16 15.481" enable-background="new 0 0 16 15.481" xml:space="preserve">
<rect x="10.71" y="7.154" fill="#8E969F" width="1.348" height="2.086"/>
<rect x="4.042" y="7.154" fill="#8E969F" width="1.347" height="2.086"/>
<path fill="#8E969F" d="M0.64,15.479c-0.328,0-0.604-0.252-0.64-0.586L0.001,3.627c0-0.361,0.289-0.658,0.645-0.658H4.78V0h6.348
	v2.971l4.229-0.002C15.713,2.969,16,3.266,16,3.627v11.201c0,0.178-0.066,0.344-0.187,0.467c-0.119,0.119-0.277,0.186-0.447,0.186
	l0,0L0.64,15.479z M1.285,14.17h13.428V4.289H1.284L1.285,14.17z M6.128,2.969L9.78,2.971V1.234H6.128V2.969z"/>
</svg>
